<svg xmlns="http://www.w3.org/2000/svg" width="673" height="318" viewBox="0 0 673 318" fill="none"><g opacity="0.9"><path d="M364.55 -617.585C164.227 -733.242 -91.9266 -664.605 -207.584 -464.28C-323.241 -263.956 -254.606 -7.80217 -54.2824 107.855C146.041 223.512 402.194 154.875 517.852 -45.4497C633.509 -245.774 564.874 -501.928 364.55 -617.585Z" stroke="url(#paint0_linear_4830_46)" stroke-miterlimit="10"></path><path d="M-203.833 -451.704C-193.583 -470.101 -182.674 -487.449 -170.476 -503.68C-140.221 -543.84 -102.427 -577.342 -60.0738 -602.115C-32.2607 -618.329 -3.17508 -631.205 26.4041 -641.714C56.3352 -652.318 87.187 -659.49 119.38 -662.542C156.969 -666.047 195.405 -663.933 233.176 -655.51C258.867 -649.749 284.052 -641.306 308.418 -630.287C323.932 -623.264 339.056 -615.052 354.074 -606.01C374.352 -593.708 393.481 -580.061 411.303 -565.309C421.616 -556.753 431.536 -547.903 440.855 -538.656C485.794 -494.195 520.285 -441.043 538.864 -381.983C544.708 -363.366 549.287 -344.364 552.81 -325.078C556.949 -302.092 559.545 -278.88 560.263 -255.638C560.989 -232.539 559.749 -209.386 556.608 -186.29C553.986 -167.057 549.838 -147.888 544.038 -129.078C535.41 -101.119 523.125 -73.7838 507.329 -47.5836C494.952 -26.9194 480.935 -7.79674 465.893 10.1387C424.099 59.8468 374.589 99.0772 317.665 124.732C278.187 142.464 235.781 153.153 192.693 156.904C150.013 160.593 106.587 157.457 63.9077 147.613C23.8469 138.389 -15.8057 123.303 -53.4597 102.307C-115.558 67.7192 -164.659 18.9965 -199.653 -37.7921C-234.981 -95.2932 -255.387 -160.984 -258.493 -228.287C-262.019 -304.012 -243.278 -380.935 -203.736 -451.871L-203.833 -451.704Z" stroke="url(#paint1_linear_4830_46)" stroke-miterlimit="10"></path><path d="M-200.027 -439.098C-190.249 -457.322 -180.324 -474.642 -168.876 -490.861C-140.444 -530.958 -103.375 -564.878 -61.1917 -589.229C-33.3637 -605.21 -4.75885 -617.77 23.8889 -629.114C52.6246 -640.482 81.9782 -648.668 113.663 -652.385C150.663 -656.676 188.797 -654.811 226.102 -645.839C251.4 -639.785 276.008 -630.857 299.509 -619.37C314.454 -612.006 328.986 -603.542 343.443 -594.303C362.905 -581.876 381.492 -568.32 399.044 -553.873C409.198 -545.557 418.959 -536.947 428.239 -528.02C472.642 -485.208 508.045 -434.281 525.309 -375.906C530.682 -357.635 534.879 -339.001 538.22 -320.044C542.241 -297.498 545.182 -274.756 546.375 -252.206C547.543 -229.745 546.898 -207.364 544.486 -184.887C542.466 -166.051 538.775 -147.287 533.2 -128.868C524.982 -101.49 512.564 -74.8261 496.555 -49.4178C484.022 -29.5133 470.04 -10.9657 455.135 6.60299C413.776 55.2985 367.484 95.2711 311.59 121.074C273.007 138.803 231.003 149.054 188.765 152.106C146.815 155.176 104.47 151.325 62.5826 141.27C23.3461 131.778 -15.8365 117.038 -52.9197 97.1151C-113.58 64.547 -161.595 17.9384 -196.126 -36.9466C-230.966 -92.4563 -251.164 -156.317 -254.006 -221.757C-257.19 -295.5 -237.405 -369.589 -200.147 -439.018L-200.027 -439.098Z" stroke="url(#paint2_linear_4830_46)" stroke-miterlimit="10"></path><path d="M-196.221 -426.487C-186.883 -444.594 -177.941 -461.887 -167.245 -478.093C-140.658 -518.215 -104.203 -552.49 -62.2772 -576.394C-34.4341 -592.144 -6.25427 -604.354 21.3504 -616.598C48.8906 -628.731 76.802 -637.898 107.945 -642.225C144.358 -647.301 182.245 -645.653 219.061 -636.22C244.022 -629.84 267.964 -620.404 290.633 -608.506C305.041 -600.857 318.86 -592.06 332.933 -582.671C351.612 -570.176 369.679 -556.622 386.937 -542.569C396.9 -534.437 406.622 -526.147 415.776 -517.516C459.619 -476.439 496.046 -427.673 511.906 -369.96C516.865 -352.002 520.592 -333.714 523.871 -315.165C527.686 -293.035 531.005 -270.818 532.671 -248.962C534.37 -227.161 534.231 -205.528 532.462 -183.647C530.954 -165.185 527.808 -146.85 522.491 -128.876C514.651 -102.024 502.132 -76.0875 485.999 -51.4946C473.388 -32.2296 459.305 -14.4094 444.593 2.82466C403.694 50.5956 360.572 91.1344 305.82 117.151C268.1 134.932 226.561 144.634 185.109 147.098C143.921 149.492 102.57 144.952 61.5626 134.661C23.1181 124.957 -15.4742 110.483 -52.0745 91.657C-111.273 61.1968 -158.17 16.6466 -192.349 -36.3994C-226.703 -89.9176 -246.66 -152.004 -249.238 -215.582C-252.078 -287.341 -231.251 -358.597 -196.277 -426.52L-196.221 -426.487Z" stroke="url(#paint3_linear_4830_46)" stroke-miterlimit="10"></path><path d="M-192.414 -413.88C-183.572 -431.901 -175.589 -449.079 -165.612 -465.329C-140.848 -505.387 -105.086 -540.136 -63.3618 -563.562C-35.5037 -579.081 -7.83684 -590.917 18.8363 -603.997C45.1811 -616.894 71.5622 -627.019 102.285 -632.035C138.078 -637.841 175.694 -636.498 212.044 -626.516C236.612 -619.842 259.977 -609.921 281.781 -597.556C295.74 -589.645 308.847 -580.516 322.392 -570.986C340.255 -558.368 357.811 -544.96 374.823 -531.123C384.594 -523.176 394.19 -515.182 403.337 -506.927C446.644 -467.498 484.071 -420.98 498.528 -363.928C503.017 -346.316 506.306 -328.43 509.458 -310.177C513.155 -288.486 516.796 -266.828 518.905 -245.608C521.045 -224.444 521.501 -203.584 520.461 -182.323C519.555 -164.257 516.866 -146.327 511.807 -128.8C504.377 -102.528 491.781 -77.2316 475.435 -53.4306C462.723 -34.893 448.587 -17.6243 434.044 -0.812827C393.637 45.9779 353.653 87.1385 300.01 113.424C263.153 131.256 222.08 140.41 181.39 142.199C141.019 143.95 100.574 138.742 60.4791 128.16C22.8266 118.244 -15.2313 104.005 -51.2607 86.2517C-109.021 57.8113 -154.744 15.3517 -188.548 -35.7673C-222.326 -87.3176 -242.219 -147.582 -244.478 -209.265C-246.975 -279.042 -225.16 -347.497 -192.414 -413.88Z" stroke="url(#paint4_linear_4830_46)" stroke-miterlimit="10"></path><path d="M-188.693 -401.248C-180.292 -419.151 -173.292 -436.302 -164.066 -452.539C-141.123 -492.534 -106.087 -527.702 -64.5328 -550.705C-36.6597 -565.992 -9.47358 -577.511 16.2681 -591.426C41.3852 -605.032 66.3563 -616.194 96.5705 -621.876C131.775 -628.468 169.089 -627.373 205.005 -616.899C229.181 -609.93 251.968 -599.525 272.907 -586.693C286.329 -578.497 298.78 -569.004 311.852 -559.3C328.932 -546.613 345.913 -533.24 362.654 -519.708C372.235 -511.946 381.792 -504.272 390.812 -496.312C433.559 -458.62 471.954 -414.294 485.063 -357.872C489.082 -340.606 491.989 -323.089 494.991 -305.22C498.57 -283.969 502.501 -262.813 505.14 -242.254C507.755 -221.782 508.773 -201.638 508.463 -180.997C508.157 -163.327 505.926 -145.803 501.124 -128.722C494.048 -103.064 481.375 -78.4066 464.849 -55.4532C452.004 -37.5873 437.823 -21.0138 423.473 -4.53697C383.525 41.3292 346.791 83.1763 294.155 109.522C258.184 127.495 217.577 136.099 177.648 137.213C138.008 138.344 98.5886 132.39 59.3415 121.628C22.481 111.501 -14.9867 97.5274 -50.5333 80.8712C-106.8 54.483 -151.557 14.2169 -184.889 -35.1424C-218.3 -84.6219 -237.865 -143.135 -239.828 -203.011C-241.981 -270.805 -219.179 -336.46 -188.661 -401.304L-188.693 -401.248Z" stroke="url(#paint5_linear_4830_46)" stroke-miterlimit="10"></path><path d="M-184.884 -388.64C-176.923 -406.426 -170.994 -423.525 -162.431 -439.774C-141.423 -479.77 -106.912 -515.316 -65.5595 -537.841C-37.6714 -552.896 -10.9425 -564.01 13.7562 -578.824C37.6456 -593.139 61.1508 -605.371 90.8241 -611.662C125.441 -619.04 162.42 -618.138 197.846 -607.203C221.653 -599.853 243.839 -589.051 263.913 -575.751C276.799 -567.27 288.569 -557.501 301.17 -547.623C317.434 -534.813 333.872 -521.53 350.374 -508.359C359.82 -500.749 369.194 -493.403 378.176 -485.764C420.386 -449.719 459.782 -407.641 471.543 -351.849C475.092 -334.928 477.585 -317.725 480.492 -300.208C483.921 -279.341 488.174 -258.743 491.255 -238.82C494.344 -219.042 495.981 -199.582 496.257 -179.569C496.52 -162.24 494.722 -145.209 490.289 -128.51C483.535 -103.409 470.905 -79.4708 454.135 -57.2536C441.189 -40.1151 426.986 -24.1488 412.774 -8.03884C373.318 36.8471 339.777 79.3483 288.195 105.931C253.142 123.988 212.945 132.011 173.835 132.481C134.956 132.937 96.5306 126.293 58.1634 115.295C22.0391 104.923 -14.8383 91.2168 -49.8141 75.6337C-104.587 51.2977 -148.314 13.1134 -181.183 -34.3424C-214.075 -81.8861 -233.519 -138.545 -235.162 -196.527C-236.972 -262.338 -213.183 -325.192 -184.893 -388.497L-184.884 -388.64Z" stroke="url(#paint6_linear_4830_46)" stroke-miterlimit="10"></path><path d="M-181.08 -376.032C-173.614 -393.732 -168.612 -410.772 -160.8 -427.008C-141.582 -466.996 -107.829 -502.906 -66.6462 -525.008C-38.8311 -539.808 -12.5037 -550.484 11.2721 -566.277C33.9339 -581.301 56.029 -594.57 85.1937 -601.526C119.19 -609.634 155.954 -609.006 190.859 -597.553C214.329 -589.877 235.85 -578.567 255.035 -564.888C267.385 -556.122 278.53 -546.044 290.626 -535.937C306.107 -523.059 322.025 -509.778 338.201 -496.944C347.488 -489.575 356.792 -482.493 365.648 -475.149C407.265 -440.786 447.749 -400.979 458.074 -345.793C461.209 -329.186 463.264 -312.384 466.021 -295.251C469.332 -274.824 473.907 -254.783 477.43 -235.498C481.018 -216.324 483.193 -197.669 484.198 -178.275C485.062 -161.343 483.722 -144.717 479.547 -128.464C473.203 -103.945 460.439 -80.6783 443.545 -59.2765C430.522 -42.7774 416.218 -27.5386 402.255 -11.731C363.258 32.2303 332.943 75.33 282.391 102.061C248.201 120.17 208.438 127.7 170.145 127.527C132.029 127.307 94.597 119.973 57.1099 108.74C21.8098 98.1003 -14.5096 84.7159 -49.0025 70.2296C-102.305 47.8576 -144.923 11.8755 -177.44 -33.7412C-209.844 -79.2935 -229.081 -134.122 -230.428 -190.297C-231.895 -254.125 -207.174 -314.211 -181.056 -375.944L-181.08 -376.032Z" stroke="url(#paint7_linear_4830_46)" stroke-miterlimit="10"></path><path d="M-177.274 -363.425C-170.248 -381.007 -166.261 -397.964 -159.201 -414.188C-141.861 -454.145 -108.745 -490.497 -67.7642 -512.121C-39.934 -526.689 -14.1196 -536.992 8.70113 -553.709C30.1031 -569.385 50.7881 -583.691 79.4763 -591.369C112.94 -600.23 149.346 -599.883 183.818 -587.937C206.895 -579.967 227.838 -568.173 246.158 -554.027C257.939 -544.92 268.436 -534.621 280.06 -524.341C294.757 -511.394 310.133 -498.204 326.006 -485.619C335.102 -478.434 344.279 -471.649 353.04 -464.657C394.033 -431.918 435.606 -394.383 444.527 -339.858C447.192 -323.597 448.809 -307.197 451.496 -290.328C454.656 -270.285 459.553 -250.802 463.606 -232.177C467.668 -213.696 470.462 -195.725 472.141 -176.983C473.606 -160.448 472.723 -144.227 468.805 -128.42C462.872 -104.482 450.031 -81.855 432.924 -61.2451C419.8 -45.4735 405.475 -30.8419 391.649 -15.4011C353.144 27.5799 325.934 71.3573 276.524 98.3016C243.197 116.462 203.9 123.443 166.337 122.651C129.006 121.844 92.5122 113.787 55.9051 102.318C21.397 91.4665 -14.3322 78.3485 -48.3422 64.9589C-100.119 44.5833 -141.739 10.7389 -173.792 -32.9744C-205.71 -76.5352 -224.738 -129.534 -225.821 -183.846C-226.945 -245.691 -201.348 -303.041 -177.347 -363.17L-177.274 -363.425Z" stroke="url(#paint8_linear_4830_46)" stroke-miterlimit="10"></path><path d="M-173.465 -350.816C-166.935 -368.312 -163.875 -385.209 -157.566 -401.421C-142.048 -441.315 -109.682 -478.173 -68.8464 -499.287C-40.9691 -513.678 -15.6762 -523.465 6.18949 -541.105C26.4196 -557.458 45.5829 -572.866 73.7303 -581.153C106.606 -590.8 142.71 -590.702 176.715 -578.207C199.423 -569.855 219.789 -557.577 237.253 -543.107C248.553 -533.683 258.369 -523.107 269.521 -512.654C283.435 -499.638 298.235 -486.483 313.839 -474.203C322.743 -467.203 331.882 -460.737 340.548 -454.097C381.005 -423.007 423.61 -387.775 431.095 -333.857C433.29 -317.941 434.493 -301.854 437.062 -285.425C440.104 -265.823 445.291 -246.841 449.818 -228.909C454.323 -211.065 457.766 -193.834 460.064 -175.777C462.098 -159.582 461.704 -143.822 458.044 -128.461C452.488 -105.049 439.602 -83.1168 422.259 -63.3868C409.002 -48.2868 394.632 -34.3505 381 -19.2443C342.898 22.78 318.97 67.188 270.59 94.281C238.126 112.494 199.35 118.957 162.549 117.49C125.98 116.007 90.4803 107.26 54.7531 95.5559C21.0371 84.4924 -14.0697 71.585 -47.5969 59.2921C-97.8479 40.9129 -138.414 9.23837 -170.059 -32.6036C-201.49 -74.173 -220.366 -125.373 -221.097 -177.846C-221.909 -237.653 -195.373 -292.378 -173.52 -350.848L-173.465 -350.816Z" stroke="url(#paint9_linear_4830_46)" stroke-miterlimit="10"></path><path d="M-169.691 -338.152C-163.656 -355.563 -161.556 -372.345 -155.966 -388.599C-142.27 -428.43 -110.597 -465.763 -69.9638 -486.398C-42.1037 -500.503 -17.2121 -509.852 3.61906 -528.535C22.6451 -545.509 40.3747 -562.042 68.0135 -570.994C100.269 -581.371 136.102 -581.578 169.674 -568.59C191.989 -559.945 211.778 -547.181 228.376 -532.244C239.14 -522.535 248.276 -511.683 258.923 -501C271.998 -487.949 286.335 -474.764 301.644 -462.877C310.358 -456.061 319.37 -449.891 327.998 -443.572C367.862 -414.161 411.555 -381.202 417.637 -327.945C419.362 -312.375 420.183 -296.657 422.569 -280.557C425.493 -261.394 430.969 -242.915 435.972 -225.675C440.95 -208.524 445.012 -191.977 447.952 -174.516C450.642 -158.685 450.65 -143.363 447.247 -128.448C442.101 -105.617 429.115 -84.4126 411.582 -65.3864C398.281 -50.9817 383.833 -37.6848 370.338 -22.9455C332.728 18.0986 311.938 63.1284 264.7 90.4345C233.099 108.699 194.757 114.67 158.773 112.559C122.966 110.401 88.4604 100.963 53.6368 89.1117C20.745 77.7805 -13.7716 65.1394 -46.9039 53.9669C-95.5967 37.5283 -135.141 8.07938 -166.435 -31.9236C-197.378 -71.5015 -216.046 -120.871 -216.514 -171.482C-216.927 -229.274 -189.627 -281.327 -169.834 -338.16L-169.691 -338.152Z" stroke="url(#paint10_linear_4830_46)" stroke-miterlimit="10"></path><path d="M-165.885 -325.544C-160.347 -342.869 -159.206 -359.536 -154.335 -375.834C-142.461 -415.602 -111.426 -453.377 -71.0498 -473.566C-43.1747 -487.439 -18.7725 -496.327 1.13578 -515.989C18.9577 -533.584 35.1979 -551.274 62.3838 -560.86C94.0514 -572.022 129.582 -572.478 162.688 -558.941C184.61 -550.002 203.789 -536.698 219.555 -521.35C229.782 -511.356 238.294 -500.195 248.469 -489.339C260.76 -476.219 274.522 -463.069 289.56 -451.486C298.115 -444.911 307.001 -439.038 315.558 -432.982C354.83 -405.252 399.611 -374.564 404.257 -321.913C405.6 -306.712 405.951 -291.34 408.242 -275.592C410.961 -256.846 416.903 -238.915 422.347 -222.313C427.824 -205.767 432.48 -189.991 436.094 -173.182C439.386 -157.748 439.85 -142.831 436.761 -128.33C431.969 -106.113 418.961 -85.5153 401.249 -67.3368C387.814 -53.6037 373.321 -41.0021 360.052 -26.6531C322.901 13.4664 305.281 59.0624 259.153 86.6374C228.414 104.954 190.538 110.376 155.373 107.621C120.351 104.876 86.8152 94.6602 52.8717 82.573C20.7718 71.0298 -13.1223 58.5995 -45.7717 48.5236C-92.9065 34.0256 -131.485 6.77014 -162.315 -31.3293C-192.716 -68.8835 -211.287 -116.488 -211.403 -165.259C-211.473 -221.068 -183.321 -270.473 -165.621 -325.615L-165.885 -325.544Z" stroke="url(#paint11_linear_4830_46)" stroke-miterlimit="10"></path><path d="M-162.133 -312.967C-157.09 -330.207 -156.877 -346.814 -152.757 -363.1C-142.706 -402.804 -112.395 -440.999 -72.1333 -460.732C-44.2431 -474.373 -20.2746 -482.768 -1.37717 -503.386C15.2407 -521.601 30.0472 -540.417 56.6923 -550.612C87.7396 -562.505 123 -563.265 155.672 -549.235C177.257 -539.97 195.803 -526.214 210.704 -510.398C220.394 -500.119 228.281 -488.65 237.984 -477.62C249.524 -464.488 262.711 -451.372 277.447 -440.039C285.811 -433.649 294.625 -428.039 303.088 -422.335C341.791 -396.197 387.693 -367.837 390.848 -315.824C391.72 -300.969 391.601 -285.943 393.831 -270.602C396.431 -252.296 402.663 -234.867 408.582 -218.958C414.532 -203.104 419.807 -188.013 424.039 -171.888C427.955 -156.763 428.854 -142.339 426.022 -128.284C421.608 -106.592 408.555 -86.6899 390.574 -69.3355C377.094 -56.2976 362.436 -44.3119 349.392 -30.3533C312.733 8.78593 298.307 55.0361 253.209 82.7597C223.333 101.129 185.978 106.033 151.487 102.627C117.227 99.2062 84.6531 88.3558 51.6218 75.9774C20.314 64.2223 -13.0136 51.9703 -45.1565 43.0791C-90.7009 30.466 -128.29 5.49195 -158.736 -30.8242C-188.617 -66.4427 -207.013 -112.161 -206.865 -159.069C-206.591 -212.895 -177.675 -259.629 -161.981 -313.102L-162.133 -312.967Z" stroke="url(#paint12_linear_4830_46)" stroke-miterlimit="10"></path><path d="M-158.327 -300.36C-153.78 -317.514 -154.526 -334.006 -151.158 -350.279C-142.952 -390.008 -113.311 -428.589 -73.2833 -447.789C-45.3781 -461.198 -21.8432 -469.099 -3.9802 -490.76C11.4895 -509.564 24.7184 -529.514 50.8871 -540.431C81.3464 -553.109 116.304 -554.118 148.455 -539.571C169.647 -530.012 187.583 -515.716 201.652 -499.489C210.805 -488.925 218.012 -477.179 227.21 -465.92C237.967 -452.72 250.578 -439.639 265.076 -428.666C273.305 -422.428 281.969 -417.202 290.361 -411.762C328.472 -387.305 375.55 -361.24 377.181 -309.809C377.639 -295.268 377.082 -280.643 379.185 -265.599C381.635 -247.677 388.189 -230.806 394.582 -215.589C400.975 -200.372 406.988 -186.044 411.774 -170.492C416.347 -155.731 417.614 -141.689 415.072 -128.137C411.068 -107.025 397.938 -87.7628 379.777 -71.256C366.164 -58.8899 351.517 -47.5672 338.611 -33.9754C302.411 4.23933 291.155 51.0557 247.166 79.0482C218.153 97.469 181.232 101.88 147.558 97.8311C114.029 93.7905 82.4804 82.194 50.2969 69.6359C19.7811 57.6688 -12.8918 45.5717 -44.6163 37.8888C-88.5704 27.1605 -125.17 4.46785 -155.209 -29.9771C-184.603 -63.6041 -202.791 -107.492 -202.402 -152.626C-201.785 -204.469 -172.105 -248.53 -158.415 -300.336L-158.327 -300.36Z" stroke="url(#paint13_linear_4830_46)" stroke-miterlimit="10"></path><path d="M-154.522 -287.752C-150.527 -304.853 -152.144 -321.254 -149.527 -337.514C-143.143 -377.18 -114.172 -416.148 -74.3696 -434.957C-46.4494 -448.134 -23.2923 -455.51 -6.46379 -478.215C7.82541 -497.552 19.5971 -518.714 45.2571 -530.296C75.1284 -543.76 109.783 -545.019 141.501 -529.978C162.356 -520.094 179.659 -505.345 192.862 -488.651C201.535 -477.769 208.093 -465.803 216.788 -454.314C226.793 -441.102 238.852 -427.968 253.024 -417.332C261.062 -411.278 269.655 -406.317 277.985 -401.285C315.472 -378.452 363.726 -354.682 363.865 -303.89C363.941 -289.717 362.915 -275.438 364.867 -260.778C367.199 -243.296 374.075 -226.983 380.934 -212.315C387.801 -197.791 394.433 -184.147 399.892 -169.247C405.122 -154.85 406.791 -141.246 404.474 -128.084C400.88 -107.554 387.705 -88.9863 369.299 -73.2157C355.642 -61.5447 340.861 -50.8937 328.148 -37.6365C292.44 -0.402066 284.322 47.0362 241.419 75.2096C213.269 93.6824 176.813 97.5447 143.958 92.8522C111.19 88.1362 80.6354 75.8494 49.3319 63.0557C19.6403 50.8209 -12.4424 38.9902 -43.684 32.404C-86.0478 23.5605 -121.626 3.09361 -151.345 -29.4565C-180.252 -61.092 -198.287 -103.181 -197.547 -146.476C-196.586 -196.337 -166.254 -237.791 -154.49 -287.808L-154.522 -287.752Z" stroke="url(#paint14_linear_4830_46)" stroke-miterlimit="10"></path><path d="M-150.745 -275.089C-147.301 -292.136 -149.822 -308.389 -147.924 -324.693C-143.363 -364.295 -115.085 -403.737 -75.4843 -422.068C-47.5491 -435.014 -24.8019 -441.809 -9.06367 -465.589C4.13308 -485.482 14.3036 -507.866 39.5108 -520.082C68.7618 -534.276 103.202 -535.807 134.398 -520.25C154.86 -510.072 171.554 -494.782 183.924 -477.676C192.028 -466.454 197.994 -454.235 206.16 -442.605C215.415 -429.38 226.867 -416.225 240.768 -405.894C248.615 -400.025 257.082 -395.36 265.317 -390.68C302.211 -369.527 351.642 -348.052 350.257 -297.842C349.863 -284.016 348.422 -270.05 350.224 -255.774C352.439 -238.732 359.604 -222.921 366.937 -208.946C374.303 -195.027 381.617 -182.179 387.606 -167.939C393.525 -153.962 395.564 -140.74 393.504 -128.023C390.32 -108.075 377.068 -90.1468 358.426 -75.256C344.691 -64.2246 329.866 -54.2687 317.29 -41.3784C282.041 -5.06847 277.149 42.9682 235.3 71.3782C208.013 89.903 172.023 93.2163 139.953 87.9364C108.003 82.5771 78.3864 69.5677 47.9629 56.5386C19.0633 44.0918 -12.3326 32.3602 -43.1879 27.0381C-83.9849 19.9914 -118.606 1.86167 -147.861 -28.7849C-176.193 -58.4526 -194.109 -98.688 -193.104 -140.12C-191.801 -187.998 -160.816 -226.845 -151 -275.162L-150.745 -275.089Z" stroke="url(#paint15_linear_4830_46)" stroke-miterlimit="10"></path><path d="M-146.94 -262.48C-144.048 -279.475 -147.44 -295.636 -146.293 -311.927C-143.554 -351.466 -115.89 -391.263 -76.5705 -409.236C-48.6524 -421.894 -26.195 -428.187 -11.5471 -453.042C0.55723 -473.492 9.1825 -497.066 33.793 -509.923C62.456 -524.903 96.5934 -526.683 127.356 -510.632C147.481 -500.128 163.509 -484.331 175.047 -466.813C182.614 -455.306 187.932 -442.867 195.618 -430.919C204.121 -417.682 214.965 -404.506 228.628 -394.535C236.316 -388.907 244.712 -384.505 252.821 -380.121C289.146 -360.562 339.73 -341.47 336.821 -291.842C336.046 -278.385 334.079 -264.798 335.842 -250.841C337.906 -234.183 345.394 -218.929 353.201 -205.647C361.041 -192.421 369.061 -180.28 375.637 -166.669C382.212 -153.057 384.652 -140.272 382.906 -127.969C380.1 -108.546 366.803 -91.3135 347.949 -77.2146C334.113 -66.9106 319.21 -57.5942 306.883 -45.0063C272.07 -9.70883 270.371 38.982 229.609 67.5728C203.184 86.1497 167.684 89.002 136.352 82.9586C105.132 76.9797 76.5093 63.28 46.9658 50.0153C18.8582 37.3565 -11.8831 25.7798 -42.3199 21.6659C-81.4622 16.3926 -115.159 0.655815 -144.062 -28.1517C-171.907 -55.8279 -189.67 -94.2652 -188.313 -133.858C-186.666 -179.754 -155.03 -215.993 -147.107 -262.577L-146.94 -262.48Z" stroke="url(#paint16_linear_4830_46)" stroke-miterlimit="10"></path><path d="M-143.131 -249.872C-140.791 -266.813 -145.031 -282.794 -144.659 -299.161C-143.71 -338.693 -116.803 -378.852 -77.6534 -396.403C-49.7204 -408.829 -27.6408 -414.597 -14.0831 -440.528C-3.07124 -461.534 4.00874 -486.297 28.1106 -499.82C56.2413 -515.553 90.0526 -517.67 120.317 -501.015C140.05 -490.217 155.468 -473.88 166.173 -455.951C173.204 -444.158 177.929 -431.466 185.054 -419.321C192.806 -406.072 203.076 -392.93 216.436 -383.209C223.933 -377.765 232.202 -373.66 240.272 -369.595C275.973 -351.66 327.789 -334.831 323.333 -285.874C322.143 -272.73 319.738 -259.544 321.319 -245.916C323.265 -229.698 331.043 -214.946 339.38 -202.325C347.662 -189.736 356.421 -178.359 363.55 -165.319C370.815 -152.128 373.624 -139.724 372.136 -127.868C369.739 -109.026 356.365 -92.4329 337.33 -79.1816C323.417 -69.517 308.47 -60.8959 296.28 -48.6748C261.926 -14.3019 263.398 34.9551 223.745 63.8148C198.183 82.4437 163.149 84.7469 132.602 78.1161C102.144 71.4617 74.5152 57.0717 45.8518 43.5715C18.5361 30.7008 -11.5419 19.1352 -41.5367 16.3176C-79.0801 12.7853 -111.764 -0.582049 -140.291 -27.4626C-167.617 -53.203 -185.204 -89.7542 -183.583 -127.485C-181.594 -171.397 -149.392 -205.005 -143.275 -249.881L-143.131 -249.872Z" stroke="url(#paint17_linear_4830_46)" stroke-miterlimit="10"></path><path d="M-139.324 -237.264C-137.623 -254.128 -142.647 -270.041 -143.058 -286.34C-143.931 -325.808 -117.718 -366.443 -78.7698 -383.515C-50.8218 -395.709 -28.9762 -400.943 -16.629 -427.87C-6.67738 -449.488 -1.26288 -475.362 22.4184 -489.574C49.9288 -506.037 83.4696 -508.459 113.3 -491.31C132.664 -480.131 147.481 -463.397 157.321 -445C163.815 -432.923 167.949 -419.978 174.537 -407.548C181.593 -394.254 191.255 -381.091 204.345 -371.674C211.651 -366.415 219.85 -362.574 227.826 -358.862C262.902 -342.551 315.982 -328.041 309.946 -279.699C308.374 -266.924 305.467 -254.028 306.986 -240.808C308.782 -224.974 316.914 -210.835 325.693 -198.851C334.506 -186.922 343.859 -176.317 351.574 -163.906C359.583 -151.103 362.762 -139.081 361.475 -127.703C359.489 -109.442 346.093 -93.4564 326.734 -81.0615C312.776 -72.0921 297.696 -64.1426 285.699 -52.2562C251.837 -18.8635 256.446 31.0154 217.935 60.0882C193.269 78.7133 158.668 80.5233 128.939 73.2492C99.2987 65.9516 72.6637 50.8713 44.7922 37.1592C18.2686 24.0765 -11.1784 12.5778 -40.7312 11.0564C-76.6993 9.17717 -108.378 -1.67699 -136.498 -26.6862C-163.249 -50.4588 -180.772 -85.1882 -178.799 -121.08C-176.442 -162.921 -143.756 -194.019 -139.388 -237.153L-139.324 -237.264Z" stroke="url(#paint18_linear_4830_46)" stroke-miterlimit="10"></path><path d="M-135.549 -224.601C-134.488 -241.388 -140.295 -257.233 -141.458 -273.52C-144.065 -312.948 -118.61 -353.946 -79.831 -370.595C-51.9002 -382.502 -30.3443 -387.233 -19.0874 -415.236C-10.2283 -437.411 -6.35905 -464.474 16.7814 -479.296C43.7037 -496.544 76.9741 -499.271 106.307 -481.518C125.31 -470.101 139.486 -452.77 148.525 -434.018C154.45 -421.6 158.023 -408.458 164.051 -395.831C170.389 -382.58 179.411 -369.34 192.263 -360.285C199.378 -355.21 207.45 -351.665 215.387 -348.272C249.839 -333.587 304.239 -321.363 296.567 -273.667C294.581 -261.206 291.237 -248.712 292.573 -235.82C294.195 -220.458 302.672 -206.789 311.927 -195.498C321.181 -184.206 331.272 -174.364 339.574 -162.582C348.272 -150.198 351.819 -138.558 350.791 -127.626C349.214 -109.947 335.741 -94.6004 316.202 -83.0531C302.167 -74.7232 287.041 -67.469 275.182 -55.9493C241.779 -23.4812 249.559 26.9638 212.102 56.2733C188.298 74.9504 154.13 76.2671 125.22 68.3499C96.309 60.4326 70.6999 44.6062 43.7084 30.6585C18.009 17.3081 -10.8627 5.84406 -39.9176 5.65113C-74.2546 5.45726 -104.953 -2.97174 -132.753 -26.0862C-159.017 -47.8673 -176.299 -80.822 -174.095 -114.795C-171.395 -154.654 -138.288 -183.129 -135.582 -224.546L-135.549 -224.601Z" stroke="url(#paint19_linear_4830_46)" stroke-miterlimit="10"></path><path d="M-131.799 -212.025C-131.377 -228.735 -138 -244.456 -139.882 -260.785C-144.311 -300.15 -119.549 -341.623 -80.9722 -357.793C-53.0263 -369.469 -31.7044 -373.666 -21.6816 -402.754C-13.8269 -425.508 -11.6468 -453.77 10.985 -469.257C37.2872 -487.235 70.2872 -490.267 99.1307 -472.053C117.797 -460.309 131.307 -442.471 139.513 -423.307C144.902 -410.604 147.938 -397.176 153.406 -384.353C159.048 -371.057 167.408 -357.828 179.989 -349.077C187.001 -344.211 194.946 -340.962 202.789 -337.922C236.64 -324.773 292.337 -314.923 283.03 -267.874C280.662 -255.783 276.791 -243.666 278.089 -231.094C279.593 -216.172 288.415 -202.973 298.144 -192.374C307.873 -181.775 318.703 -172.697 327.558 -161.487C336.945 -149.524 340.862 -138.265 340.09 -127.78C338.924 -110.682 325.373 -95.9745 305.622 -85.2191C291.51 -77.5286 276.251 -70.9461 264.617 -59.8168C231.706 -28.329 242.544 22.6178 206.308 52.2606C183.311 70.9575 149.721 71.7897 121.485 63.2205C93.336 54.6278 68.7207 38.111 42.6092 23.9279C17.7018 10.3655 -10.5304 -1.17542 -39.1517 0.0716545C-71.937 1.44289 -101.575 -4.44071 -129 -25.6281C-154.744 -45.4735 -171.851 -76.5421 -169.351 -108.709C-166.307 -146.584 -132.78 -172.437 -131.735 -212.136L-131.799 -212.025Z" stroke="url(#paint20_linear_4830_46)" stroke-miterlimit="10"></path><path d="M-127.991 -199.417C-128.209 -216.051 -135.615 -231.704 -138.248 -248.021C-144.5 -287.322 -120.431 -329.269 -82.056 -344.962C-54.0951 -356.405 -33.0072 -360.069 -24.1949 -390.152C-17.3446 -413.487 -16.7978 -442.914 5.32533 -459.067C31.0394 -477.831 63.7368 -481.112 92.1145 -462.348C110.388 -450.311 123.288 -431.932 130.662 -412.357C135.514 -399.369 137.99 -385.745 142.834 -372.612C147.78 -359.272 155.564 -346.078 167.787 -337.608C174.608 -332.927 182.427 -329.974 190.175 -327.285C223.402 -315.761 280.418 -308.198 269.532 -261.764C266.749 -249.985 262.409 -238.215 263.557 -226.027C264.91 -211.489 274.055 -198.848 284.258 -188.941C294.429 -178.98 306.029 -170.721 315.35 -160.06C325.515 -148.54 329.712 -137.64 329.254 -127.568C328.498 -111.051 314.926 -96.9514 294.883 -87.108C280.637 -80.0893 265.39 -74.1697 253.893 -63.4073C221.441 -32.8439 235.505 18.7012 200.267 48.5484C178.133 67.2972 144.977 67.6362 117.59 58.368C90.2593 49.1321 66.5498 31.9485 41.3183 17.5299C17.2029 3.75555 -10.3896 -7.86224 -38.6333 -5.20739C-69.8669 -2.27106 -98.4129 -5.66504 -125.55 -24.9019C-150.687 -42.8351 -167.761 -72.0262 -164.942 -102.298C-161.555 -138.191 -127.639 -161.366 -128.223 -199.403L-127.991 -199.417Z" stroke="url(#paint21_linear_4830_46)" stroke-miterlimit="10"></path><path d="M318.604 -127.545C318.804 -137.17 314.269 -147.745 303.384 -158.788C293.453 -168.909 281.226 -176.34 270.525 -185.642C259.824 -194.943 250.413 -206.994 249.177 -221.092C248.18 -232.896 252.99 -244.321 256.155 -255.73C268.788 -301.453 210.363 -306.706 177.738 -316.693C170.028 -319.062 162.336 -321.719 155.706 -326.216C143.721 -334.325 136.633 -347.564 132.382 -360.949C128.098 -374.278 126.215 -388.155 121.843 -401.461C115.335 -421.503 103.067 -440.334 85.1311 -452.698C57.187 -471.954 24.7923 -468.424 -0.333779 -448.875C-21.9483 -432.057 -20.8618 -401.463 -26.6754 -377.604C-34.2537 -346.436 -55.1076 -343.307 -83.0835 -332.095C-121.289 -316.825 -144.601 -274.516 -136.558 -235.221C-133.174 -218.917 -125.129 -203.341 -124.183 -186.808C-122.058 -150.409 -156.274 -129.936 -160.004 -96.0259C-163.12 -67.5611 -146.221 -40.2561 -121.604 -24.2586C-94.8744 -6.89301 -67.4121 -6.13239 -37.6745 -10.6016C-9.97583 -14.7609 17.0329 -3.03403 40.3799 11.0402C64.6755 25.6622 87.3591 43.5918 113.96 53.4474C140.561 63.3031 173.252 63.5131 194.523 44.7123C228.619 14.652 211.417 -37.5151 243.378 -67.0981C254.681 -77.5259 270.03 -82.7181 284.352 -89.0974C304.576 -98.0931 318.225 -111.554 318.604 -127.545Z" stroke="url(#paint22_linear_4830_46)" stroke-miterlimit="10"></path></g><defs><linearGradient id="paint0_linear_4830_46" x1="-226.14" y1="-208.909" x2="495.208" y2="75.4967" gradientUnits="userSpaceOnUse"><stop stop-color="#E24C4A"></stop><stop offset="1" stop-color="#386BB7"></stop></linearGradient><linearGradient id="paint1_linear_4830_46" x1="-219.902" y1="-205.994" x2="484.609" y2="71.6637" gradientUnits="userSpaceOnUse"><stop stop-color="#E24C4A"></stop><stop offset="1" stop-color="#386BB7"></stop></linearGradient><linearGradient id="paint2_linear_4830_46" x1="-214.004" y1="-202.844" x2="473.894" y2="68.2198" gradientUnits="userSpaceOnUse"><stop stop-color="#E24C4A"></stop><stop offset="1" stop-color="#386BB7"></stop></linearGradient><linearGradient id="paint3_linear_4830_46" x1="-208.298" y1="-200.183" x2="463.551" y2="64.4491" gradientUnits="userSpaceOnUse"><stop stop-color="#E24C4A"></stop><stop offset="1" stop-color="#386BB7"></stop></linearGradient><linearGradient id="paint4_linear_4830_46" x1="-202.971" y1="-197.705" x2="453.425" y2="60.7042" gradientUnits="userSpaceOnUse"><stop stop-color="#E24C4A"></stop><stop offset="1" stop-color="#386BB7"></stop></linearGradient><linearGradient id="paint5_linear_4830_46" x1="-197.985" y1="-195.359" x2="443.328" y2="56.9863" gradientUnits="userSpaceOnUse"><stop stop-color="#E24C4A"></stop><stop offset="1" stop-color="#386BB7"></stop></linearGradient><linearGradient id="paint6_linear_4830_46" x1="-193.217" y1="-192.981" x2="433.221" y2="53.4072" gradientUnits="userSpaceOnUse"><stop stop-color="#E24C4A"></stop><stop offset="1" stop-color="#386BB7"></stop></linearGradient><linearGradient id="paint7_linear_4830_46" x1="-188.536" y1="-190.842" x2="423.252" y2="49.6784" gradientUnits="userSpaceOnUse"><stop stop-color="#E24C4A"></stop><stop offset="1" stop-color="#386BB7"></stop></linearGradient><linearGradient id="paint8_linear_4830_46" x1="-184.102" y1="-188.638" x2="413.279" y2="46.1498" gradientUnits="userSpaceOnUse"><stop stop-color="#E24C4A"></stop><stop offset="1" stop-color="#386BB7"></stop></linearGradient><linearGradient id="paint9_linear_4830_46" x1="-179.682" y1="-186.684" x2="403.405" y2="42.3632" gradientUnits="userSpaceOnUse"><stop stop-color="#E24C4A"></stop><stop offset="1" stop-color="#386BB7"></stop></linearGradient><linearGradient id="paint10_linear_4830_46" x1="-175.498" y1="-184.572" x2="393.414" y2="38.8689" gradientUnits="userSpaceOnUse"><stop stop-color="#E24C4A"></stop><stop offset="1" stop-color="#386BB7"></stop></linearGradient><linearGradient id="paint11_linear_4830_46" x1="-171.279" y1="-182.637" x2="383.875" y2="35.2868" gradientUnits="userSpaceOnUse"><stop stop-color="#E24C4A"></stop><stop offset="1" stop-color="#386BB7"></stop></linearGradient><linearGradient id="paint12_linear_4830_46" x1="-167.358" y1="-180.555" x2="373.994" y2="31.9041" gradientUnits="userSpaceOnUse"><stop stop-color="#E24C4A"></stop><stop offset="1" stop-color="#386BB7"></stop></linearGradient><linearGradient id="paint13_linear_4830_46" x1="-163.662" y1="-178.231" x2="363.839" y2="28.8189" gradientUnits="userSpaceOnUse"><stop stop-color="#E24C4A"></stop><stop offset="1" stop-color="#386BB7"></stop></linearGradient><linearGradient id="paint14_linear_4830_46" x1="-159.818" y1="-176.163" x2="354.113" y2="25.5399" gradientUnits="userSpaceOnUse"><stop stop-color="#E24C4A"></stop><stop offset="1" stop-color="#386BB7"></stop></linearGradient><linearGradient id="paint15_linear_4830_46" x1="-156.288" y1="-173.788" x2="343.864" y2="22.5773" gradientUnits="userSpaceOnUse"><stop stop-color="#E24C4A"></stop><stop offset="1" stop-color="#386BB7"></stop></linearGradient><linearGradient id="paint16_linear_4830_46" x1="-152.723" y1="-171.444" x2="333.975" y2="19.6851" gradientUnits="userSpaceOnUse"><stop stop-color="#E24C4A"></stop><stop offset="1" stop-color="#386BB7"></stop></linearGradient><linearGradient id="paint17_linear_4830_46" x1="-149.336" y1="-168.985" x2="323.878" y2="16.9466" gradientUnits="userSpaceOnUse"><stop stop-color="#E24C4A"></stop><stop offset="1" stop-color="#386BB7"></stop></linearGradient><linearGradient id="paint18_linear_4830_46" x1="-146.1" y1="-166.324" x2="313.806" y2="14.4922" gradientUnits="userSpaceOnUse"><stop stop-color="#E24C4A"></stop><stop offset="1" stop-color="#386BB7"></stop></linearGradient><linearGradient id="paint19_linear_4830_46" x1="-142.906" y1="-163.602" x2="303.622" y2="12.095" gradientUnits="userSpaceOnUse"><stop stop-color="#E24C4A"></stop><stop offset="1" stop-color="#386BB7"></stop></linearGradient><linearGradient id="paint20_linear_4830_46" x1="-139.872" y1="-160.918" x2="293.306" y2="9.71202" gradientUnits="userSpaceOnUse"><stop stop-color="#E24C4A"></stop><stop offset="1" stop-color="#386BB7"></stop></linearGradient><linearGradient id="paint21_linear_4830_46" x1="-137.062" y1="-157.782" x2="282.801" y2="7.86366" gradientUnits="userSpaceOnUse"><stop stop-color="#E24C4A"></stop><stop offset="1" stop-color="#386BB7"></stop></linearGradient><linearGradient id="paint22_linear_4830_46" x1="-134.199" y1="-154.671" x2="272.375" y2="6.00156" gradientUnits="userSpaceOnUse"><stop stop-color="#E24C4A"></stop><stop offset="1" stop-color="#386BB7"></stop></linearGradient></defs></svg>