<svg xmlns="http://www.w3.org/2000/svg" viewBox="0 0 693 366"><path d="M175.794 273.154C175.794 321.583 136.441 360.842 87.8968 360.842C39.3528 360.842 0 321.583 0 273.154C0 224.726 39.3528 185.467 87.8968 185.467C136.441 185.467 175.794 224.726 175.794 273.154Z" fill="#E0E2E6"></path><path d="M351.587 87.6875C351.587 136.116 312.235 175.375 263.691 175.375C215.146 175.375 175.794 136.116 175.794 87.6875C175.794 39.259 215.146 0 263.691 0C312.235 0 351.587 39.259 351.587 87.6875Z" fill="#E0E2E6"></path><path d="M522.21 278.312C522.21 326.741 482.858 366 434.313 366C385.769 366 346.417 326.741 346.417 278.312C346.417 229.884 385.769 190.625 434.313 190.625C482.858 190.625 522.21 229.884 522.21 278.312Z" fill="#E0E2E6"></path><path d="M692.834 102.938C692.834 151.366 653.481 190.625 604.937 190.625C556.393 190.625 517.04 151.366 517.04 102.938C517.04 54.509 556.393 15.25 604.937 15.25C653.481 15.25 692.834 54.509 692.834 102.938Z" fill="#E0E2E6"></path><path d="M258.52 190.624C198.543 190.624 178.379 255.736 175.794 280.666L82.9512 188.045C107.942 185.466 173.726 163.286 175.794 95.1995C318.497 91.073 352.449 93.4801 351.587 95.1995C347.451 167.413 420.301 188.905 449.6 190.624L346.417 280.666C342.108 255.736 318.497 190.624 258.52 190.624Z" fill="#E0E2E6"></path></svg>