<svg xmlns="http://www.w3.org/2000/svg" viewBox="0 0 419 561" fill="none"><g clip-path="url(#clip0_403_8273)"><path d="M0 23.283C5.48087 20.4065 10.9325 17.4803 16.3783 14.5152C24.1263 10.2945 31.8451 6.01299 39.5698 1.74249C40.4053 1.27783 41.3578 0.96252 41.8953 0H40.5806C39.8269 0.492324 39.1023 1.03443 38.3252 1.47144C25.6163 8.59077 12.8666 15.5939 0 22.3316V23.283Z" fill="#C94938"></path><path d="M73.4483 57.226C91.5445 45.5762 109.366 33.4175 127.106 21.1094C129.233 19.6324 131.441 18.5039 133.843 17.6742C148.235 12.7178 162.539 7.49028 176.638 1.57133C177.579 1.17858 178.642 0.984968 179.303 0.000321264H176.667C174.155 1.09007 171.654 2.24067 169.118 3.26404C158.817 7.4239 148.398 11.2076 137.951 14.9028C137.144 15.1849 136.303 15.3398 135.479 15.55C135.97 15.1185 136.437 14.6428 136.957 14.2722C142.725 10.1566 148.503 6.06309 154.259 1.93643C155.042 1.37219 155.737 0.647533 156.468 -0.00521046H155.153C154.58 0.492645 154.043 1.04582 153.435 1.47729C146.546 6.38393 139.639 11.2629 132.75 16.164C131.693 16.9163 130.577 17.464 129.379 17.8789C112.066 23.8808 94.5303 28.8925 76.7029 32.5933C67.3714 34.5294 58.0165 36.3548 48.6675 38.208C46.6575 38.6062 44.624 38.9105 42.6023 39.2369C42.1758 39.3032 41.7375 39.2922 41.2934 39.3198C41.3285 38.4569 41.9654 38.4071 42.3627 38.1637C46.5231 35.6246 50.7126 33.1354 54.8787 30.6018C70.0066 21.4081 85.0644 12.0816 99.9235 2.36237C100.969 1.67643 102.22 1.25049 102.909 -0.0107422H101.595C101.086 0.437328 100.625 0.962842 100.07 1.31687C91.5153 6.79328 82.9843 12.3139 74.3832 17.6852C65.2036 23.4106 55.948 28.9976 46.7217 34.6345C44.2851 36.1225 41.8193 37.5441 39.3769 39.0211C38.4011 39.613 37.3785 40.0334 36.2742 40.1717C33.1481 40.5589 30.0279 40.9683 26.8959 41.2891C22.3091 41.7593 17.7164 42.1908 13.1237 42.578C10.2781 42.8214 7.43244 42.9929 4.58099 43.1312C3.05009 43.2031 1.52503 43.275 -0.00587561 43.3359V44.5916C2.13271 44.4975 4.27715 44.398 6.41574 44.2818C12.4751 43.9554 18.5227 43.3801 24.5762 42.8712C26.6155 42.6997 28.643 42.3678 30.6765 42.1299C31.5354 42.0304 32.3943 41.9917 33.7149 41.8921C33.1773 42.4287 33.0079 42.6665 32.7858 42.7993C30.6531 44.0495 28.5262 45.3107 26.3642 46.5111C17.5761 51.3956 8.79974 56.3078 -0.0117188 61.148V62.0995C11.8148 55.6993 23.5361 49.0667 35.2107 42.3236C36.2625 41.7151 37.3376 41.2781 38.5121 41.0789C45.4479 39.9062 52.4071 38.8662 59.3137 37.4888C68.8789 35.5804 78.4208 33.5005 87.9451 31.332C99.9118 28.6104 111.709 25.1144 123.407 21.2311C124.295 20.9379 125.207 20.7166 126.107 20.4622C125.493 20.9932 124.92 21.5906 124.266 22.0442C103.295 36.565 82.1312 50.7373 60.681 64.373C40.7442 77.0683 20.5328 89.1994 -3.24668e-05 100.661V101.651C4.00252 99.4165 7.99339 97.154 11.9726 94.8694C32.7683 82.932 53.1959 70.2643 73.4424 57.2316L73.4483 57.226ZM135.257 15.6385C135.257 15.6385 135.315 15.6164 135.351 15.6109C135.292 15.6551 135.228 15.7049 135.169 15.7491C135.199 15.7104 135.222 15.6551 135.263 15.633L135.257 15.6385Z" fill="#C94938"></path><path d="M399.385 558.682C398.438 559.423 397.533 560.225 396.609 561H399.245C399.841 560.419 400.402 559.783 401.044 559.274C406.227 555.191 411.428 551.137 416.61 547.054C417.44 546.402 418.206 545.638 418.994 544.93V543.47C418.147 544.073 417.277 544.642 416.453 545.29C410.756 549.743 405.064 554.212 399.379 558.687L399.385 558.682Z" fill="#C94938"></path><path d="M418.661 524.783C414.115 530.376 409.587 535.985 405.035 541.572C400.285 547.397 395.517 553.2 390.76 559.025C390.281 559.611 389.644 560.098 389.586 561H390.901C397.211 553.272 403.528 545.549 409.827 537.811C412.9 534.032 415.944 530.221 419 526.421V524.474C418.889 524.573 418.761 524.662 418.661 524.783Z" fill="#C94938"></path><path d="M392.84 34.9049C377.239 50.9635 361.649 67.0276 346.048 83.0862C340.205 89.1047 334.374 95.1288 328.501 101.109C327.596 102.032 326.585 102.873 325.527 103.565C308.015 115.026 290.27 126.029 271.987 135.909C261.732 141.451 251.389 146.778 241.082 152.189C240.574 152.454 240.036 152.653 239.51 152.874C240.036 152.238 240.515 151.547 241.1 150.983C257.151 135.355 273.249 119.789 289.265 104.118C301.88 91.771 314.408 79.3136 326.953 66.8893C337.482 56.462 348 46.0126 358.512 35.5631C367.715 26.4137 376.912 17.2476 386.109 8.09259C388.177 6.03479 390.263 3.99358 392.32 1.91918C392.91 1.32175 393.424 0.635821 393.974 -0.00585938H392.659C392.01 0.757519 391.409 1.57068 390.707 2.26768C382.434 10.51 374.148 18.7301 365.862 26.9558C352.347 40.3813 338.844 53.8178 325.317 67.2267C314.081 78.3676 302.868 89.5307 291.561 100.578C273.611 118.119 255.591 135.566 237.617 153.068C236.226 154.423 234.696 155.441 233.013 156.299C209.319 168.363 184.906 178.348 160.125 187.271C159.64 187.448 159.144 187.586 158.653 187.735C158.6 187.752 158.524 187.68 158.396 187.619C158.571 186.95 159.138 186.695 159.559 186.325C169.621 177.419 179.712 168.551 189.762 159.623C208.144 143.288 226.293 126.626 244.308 109.799C263.385 91.9757 282.387 74.0529 301.354 56.0858C315.985 42.2289 330.506 28.2336 345.073 14.2937C349.391 10.1615 353.715 6.02925 358.021 1.88046C358.623 1.29963 359.16 0.630289 359.727 -0.000327649H358.412C357.805 0.691138 357.238 1.43792 356.578 2.06854C342.402 15.6434 328.238 29.2404 314.016 42.7599C294.512 61.2912 275.042 79.8612 255.409 98.221C238.073 114.44 220.619 130.51 203.061 146.43C188.278 159.833 173.267 172.927 158.355 186.159C157.841 186.612 157.303 187.038 156.806 187.52C155.626 188.659 154.271 189.362 152.786 189.898C133.849 196.724 114.607 202.245 95.0562 206.449C90.9017 207.345 86.7531 208.247 82.3474 209.204C82.7038 208.341 83.2472 208.103 83.6738 207.771C91.6555 201.598 99.6956 195.513 107.613 189.251C128.52 172.711 149.175 155.795 169.574 138.481C195.254 116.68 220.602 94.4041 245.751 71.8568C260.37 58.7466 274.891 45.4871 289.469 32.316C290.369 31.5028 291.351 30.7671 292.362 30.1365C307.191 20.9815 321.881 11.561 336.466 1.92471C337.26 1.3992 338.224 1.05623 338.657 -0.000327649H336.46C336.074 0.359235 335.723 0.785177 335.291 1.06176C322.869 9.06617 310.434 17.0485 298 25.0363C297.831 25.1469 297.638 25.2133 297.457 25.2907C298.006 24.6767 298.514 24.0184 299.11 23.4708C306.864 16.3349 314.636 9.21553 322.389 2.0796C323.056 1.47111 323.856 0.98432 324.172 -0.000327649H323.295C318.971 3.99911 314.653 8.00408 310.323 11.9925C305.029 16.8604 299.706 21.6785 294.436 26.5741C292.741 28.1506 290.918 29.4506 288.984 30.6233C275.831 38.5945 262.468 46.1121 248.894 53.1762C232.551 61.6839 216.12 69.9981 199.403 77.5711C198.486 77.9859 197.592 78.517 196.464 78.4064C196.949 77.9583 197.422 77.4881 197.925 77.0621C208.436 68.145 219.007 59.3053 229.46 50.3107C246.271 35.8453 263.011 21.2802 279.781 6.75391C281.68 5.10546 283.585 3.457 285.467 1.78089C286.016 1.28856 286.735 0.917939 286.857 -0.000327649H285.981C285.385 0.591567 284.812 1.22218 284.181 1.76982C267.242 16.4732 250.343 31.2318 233.34 45.8466C220.158 57.1811 206.841 68.322 193.589 79.557C192.531 80.4531 191.386 81.1224 190.147 81.6535C175.943 87.7052 161.522 93.0654 147.031 98.2099C135.748 102.215 124.406 106.01 112.913 109.207C111.44 109.616 109.962 110.004 108.162 110.485C108.788 109.489 109.46 109.163 110.038 108.731C117.073 103.471 124.126 98.2376 131.161 92.9714C145.956 81.8913 160.523 70.4517 175.078 58.99C198.585 40.4808 221.776 21.496 244.88 2.38385C245.751 1.66472 246.528 0.801773 247.346 0.00520408H246.031C245.324 0.69667 244.664 1.46005 243.91 2.0796C230.208 13.3201 216.523 24.5771 202.78 35.7512C184.672 50.4767 166.383 64.92 147.919 79.0868C134.328 89.5141 120.573 99.6758 106.906 109.981C105.673 110.911 104.364 111.519 102.915 111.884C92.7189 114.446 82.4701 116.702 72.1744 118.716C65.484 120.027 58.7761 121.266 52.0624 122.417C48.089 123.097 44.0923 123.595 40.1014 124.098C36.1865 124.591 32.2599 124.995 28.2749 125.443C28.1931 124.712 28.7541 124.674 29.0404 124.491C33.8727 121.443 38.74 118.467 43.5547 115.391C58.5073 105.827 73.3314 96.0304 87.9801 85.9129C98.901 78.3676 109.74 70.6619 120.579 62.9673C136.905 51.3839 152.991 39.4022 168.995 27.2711C180.045 18.896 191.03 10.4214 202.032 1.96897C202.728 1.43239 203.622 1.07283 203.885 0.0107358H203.008C200.694 1.85833 198.404 3.75018 196.055 5.54246C184.544 14.3268 173.027 23.1002 161.487 31.8403C137.921 49.6856 114.005 66.9501 89.7682 83.6504C69.323 97.7342 48.6792 111.464 27.603 124.369C26.3584 125.133 25.1196 125.703 23.6881 125.752C22.8116 125.786 21.941 125.935 21.0645 125.979C16.5361 126.217 12.0076 126.499 7.47335 126.649C4.98417 126.732 2.48915 126.82 -3.24678e-05 126.903V128.374C2.08013 128.303 4.16028 128.22 6.24044 128.114C10.5468 127.893 14.8532 127.589 19.1655 127.34C20.077 127.285 21.0061 127.119 22.2507 127.434C21.6488 127.888 21.3274 128.17 20.971 128.385C14.0177 132.623 7.02927 136.783 -3.24678e-05 140.854V141.789C6.95915 137.706 13.8891 133.552 20.8425 129.448C21.4852 129.066 22.1455 128.706 22.7648 128.275C24.2899 127.213 25.9377 126.82 27.7432 126.687C31.7516 126.405 35.7541 125.929 39.745 125.443C43.5197 124.978 47.2943 124.464 51.0573 123.855C56.1935 123.025 61.3296 122.212 66.4365 121.178C76.1419 119.208 85.824 117.095 95.512 115.026C97.4343 114.617 99.3451 114.119 101.373 113.926C100.8 114.379 100.239 114.866 99.6489 115.286C88.5469 123.13 77.4566 130.996 66.3313 138.802C46.9145 152.415 27.0128 165.122 6.94746 177.507C4.63942 178.929 2.31969 180.334 -3.24678e-05 181.728V182.696C23.057 168.833 45.7693 154.291 67.944 138.741C79.6887 130.504 91.3809 122.162 103.085 113.854C103.955 113.24 104.838 112.742 105.86 112.476C124.33 107.713 142.403 101.463 160.365 94.7803C168.545 91.7378 176.661 88.4852 184.807 85.3321C185.537 85.05 186.238 84.6129 187.465 84.5632C186.764 85.1772 186.39 85.5312 185.993 85.8576C169.387 99.5763 152.757 113.245 135.847 126.505C118.405 140.185 100.899 153.76 83.0427 166.77C64.1518 180.539 45.1441 194.102 25.6338 206.781C20.3984 210.183 15.1454 213.563 9.92162 216.998C8.74715 217.773 7.55515 218.116 6.18785 218.132C4.11938 218.16 2.05675 218.226 -0.0117188 218.293V219.427C0.385615 219.427 0.782948 219.416 1.18028 219.41C2.61185 219.393 4.03758 219.333 5.53927 219.665C5.13025 219.952 4.73291 220.262 4.30636 220.522C2.86895 221.396 1.42569 222.275 -0.0117188 223.155V224.245C2.08597 222.945 4.17781 221.639 6.25797 220.306C7.43829 219.548 8.64782 219.25 9.99758 219.189C16.3549 218.901 22.7123 218.619 29.0579 218.165C36.7884 217.612 44.5189 216.921 52.1967 215.748C59.4364 214.647 66.6468 213.309 73.869 212.081C74.6987 211.937 75.5343 211.832 76.3698 211.71C76.399 211.809 76.4341 211.909 76.4633 212.009C76.0718 212.335 75.6979 212.683 75.2947 212.993C59.9973 224.543 44.478 235.712 28.7015 246.444C19.1888 252.91 9.67621 259.366 -0.0117188 265.506V266.529C7.84146 261.534 15.6304 256.406 23.355 251.162C41.5798 238.799 59.5942 226.07 77.1879 212.628C78.672 211.494 80.238 210.83 82.0026 210.476C104.54 205.946 126.86 200.398 148.69 192.625C149.579 192.31 150.484 192.045 151.518 192.011C151.267 192.255 151.028 192.515 150.765 192.742C129.542 210.847 108.232 228.831 86.3441 245.946C73.6703 255.853 61.0082 265.794 48.0247 275.203C32.2833 286.609 16.501 297.933 0.274595 308.471C0.181105 308.532 0.0817715 308.593 -0.0117188 308.653V309.616C5.98334 305.694 11.9784 301.783 17.8858 297.706C38.2609 283.644 58.3087 269.035 77.9241 253.696C96.3417 239.297 114.566 224.61 132.476 209.442C139.16 203.777 145.845 198.118 152.5 192.404C153.967 191.143 155.509 190.203 157.291 189.566C169.679 185.13 182.014 180.522 194.214 175.488C206.076 170.593 217.762 165.232 229.32 159.507C229.968 159.186 230.635 158.904 231.453 158.849C231.055 159.269 230.675 159.706 230.266 160.099C211.51 178.099 192.514 195.773 173.354 213.242C150.075 234.478 126.481 255.278 102.343 275.303C88.0503 287.163 73.6703 298.89 59.0215 310.202C57.1751 311.624 55.3345 312.642 53.0265 312.797C49.0181 313.068 45.0214 313.626 41.0188 314.014C37.8168 314.323 34.603 314.55 31.3952 314.81C30.8109 314.86 30.2265 314.904 29.6422 314.926C24.6756 315.153 19.703 315.303 14.7364 315.618C9.82229 315.933 4.90236 315.988 -0.0117188 316.016V317.183C2.27295 317.172 4.56346 317.139 6.84813 317.078C12.6971 316.918 18.5403 316.575 24.3834 316.282C27.6731 316.116 30.9569 315.955 34.2408 315.695C39.1958 315.297 44.1507 314.81 49.1057 314.357C50.5548 314.224 51.9981 314.063 53.4472 313.92C53.4822 314.041 53.5173 314.163 53.5582 314.285C53.2135 314.567 52.8687 314.854 52.5181 315.125C37.6298 326.338 22.7123 337.512 7.33895 347.895C4.89068 349.549 2.4424 351.192 -0.0117188 352.835V353.958C18.0436 341.932 35.6022 329.049 53.0089 315.9C53.4939 315.535 53.9906 315.192 54.4522 314.799C55.5858 313.831 56.8537 313.411 58.2911 313.217C62.7904 312.603 67.2779 311.9 71.7537 311.115C83.9542 308.963 96.0787 306.319 108.168 303.509C113.03 302.38 117.874 301.114 122.723 299.913C123.068 299.83 123.413 299.764 123.758 299.686C123.822 299.825 123.88 299.963 123.945 300.101C123.577 300.472 123.226 300.865 122.84 301.202C103.178 318.356 83.405 335.35 63.0416 351.474C48.2176 363.213 33.3 374.802 17.9852 385.738C12.0193 389.997 6.02425 394.196 -0.0117188 398.328V399.468C10.6286 392.221 21.1463 384.764 31.5003 377.003C54.7736 359.551 77.6144 341.429 99.8067 322.311C108.414 314.893 117.003 307.459 125.581 299.996C126.522 299.178 127.515 298.58 128.672 298.265C145.079 293.751 161.142 287.976 177.129 281.908C183.702 279.413 190.235 276.796 196.785 274.235C197.463 273.969 198.147 273.715 198.83 273.455C199.198 274.191 198.626 274.39 198.363 274.655C195.155 277.858 191.941 281.056 188.704 284.214C170.03 302.436 151.174 320.425 131.961 337.938C111.224 356.846 90.2531 375.432 68.6043 393.056C59.524 400.447 50.3445 407.693 41.2116 415.001C40.6799 415.427 40.119 415.82 39.5989 416.262C38.8159 416.926 37.9453 417.208 36.9578 417.258C30.1623 417.595 23.3725 417.944 16.5828 418.353C11.0552 418.685 5.52758 418.796 -3.24678e-05 418.807V419.885C3.34809 419.885 6.69621 419.869 10.0385 419.808C15.3032 419.714 20.562 419.321 25.8208 419.039C28.8885 418.879 31.9561 418.674 35.0238 418.491C35.3101 418.475 35.6022 418.491 35.9236 418.491C36.0405 419.338 35.4269 419.476 35.0647 419.753C29.1222 424.2 23.2148 428.714 17.208 433.051C11.4934 437.177 5.76715 441.277 0.00581067 445.315V446.471C2.9975 444.374 5.98334 442.261 8.96919 440.148C18.4 433.46 27.7724 426.684 36.9169 419.52C38.1148 418.58 39.3827 418.17 40.7909 418.049C42.8302 417.872 44.8694 417.695 46.9145 417.523C54.3529 416.893 61.7503 415.891 69.136 414.713C81.4417 412.755 93.6422 410.122 105.808 407.312C106.369 407.185 106.941 407.101 107.566 406.985C107.525 407.76 106.976 407.953 106.62 408.28C93.4318 420.262 79.8757 431.718 66.2846 443.13C44.9805 461.014 22.9694 477.758 0.514164 493.795C0.344713 493.916 0.175262 494.033 0.00581067 494.154V495.41C20.6496 480.707 40.9779 465.489 60.6284 449.165C75.4992 436.807 90.3232 424.383 104.756 411.389C106.176 410.111 107.619 408.866 109.004 407.533C109.98 406.598 111.078 406.089 112.317 405.779C118.382 404.269 124.447 402.77 130.489 401.149C144.998 397.255 159.255 392.404 173.383 387.066C176.568 385.86 179.741 384.626 182.919 383.409C183.387 383.232 183.86 383.094 184.339 382.933C184.526 383.697 184.03 383.901 183.749 384.189C178.882 389.107 174.009 394.019 169.118 398.909C150.689 417.324 131.81 435.164 112.767 452.788C99.5613 465.008 85.9993 476.724 72.3906 488.374C59.2377 499.631 45.8803 510.561 32.1898 520.994C28.5203 523.788 29.7474 523.223 25.5462 523.439C20.4334 523.699 15.3207 524.059 10.2079 524.241C6.81307 524.363 3.41821 524.358 0.017497 524.385V525.635C3.86228 525.602 7.70123 525.53 11.546 525.447C15.9985 525.353 20.451 524.96 24.9034 524.712C25.4819 524.678 26.0604 524.712 26.7207 524.712C26.5687 525.514 25.9727 525.74 25.5228 526.072C17.4417 532.063 9.42495 538.17 1.23871 543.984C0.835537 544.272 0.426517 544.548 0.0233401 544.83V546.191C8.8757 539.957 17.5937 533.501 26.2357 526.902C26.4168 526.764 26.5979 526.626 26.7791 526.487C28.5632 525.138 30.5148 524.38 32.6339 524.214C37.5889 523.832 42.5614 523.594 47.4989 523.052C54.4756 522.289 61.4406 521.387 68.3939 520.386C79.9166 518.726 91.3166 516.254 102.681 513.56C102.81 513.526 102.956 513.598 103.178 513.632C102.997 514.317 102.448 514.594 102.027 514.965C93.3967 522.598 84.7781 530.249 76.1127 537.827C67.7278 545.157 59.1735 552.232 50.5198 559.163C49.8127 559.727 49.1817 560.397 48.5156 561.022H50.2744C50.7067 560.596 51.1099 560.12 51.5774 559.744C69.6327 545.323 86.9985 529.906 104.294 514.4C105.521 513.3 106.813 512.58 108.367 512.215C118.885 509.743 129.35 507.043 139.745 503.995C154.387 499.703 168.785 494.519 183.042 488.849C184.006 488.468 184.97 488.108 185.94 487.743C185.987 487.726 186.069 487.793 186.285 487.892C186.051 488.213 185.876 488.529 185.642 488.766C177.69 496.798 169.772 504.869 161.767 512.835C153.382 521.177 144.968 529.496 136.455 537.678C128.935 544.902 121.263 551.933 113.661 559.052C112.995 559.678 112.375 560.364 111.733 561.022H113.491C114.005 560.458 114.485 559.838 115.046 559.329C130.068 545.599 144.764 531.449 159.202 516.973C168.972 507.176 178.701 497.329 188.412 487.472C189.423 486.449 190.556 485.835 191.795 485.315C201.916 481.055 212.059 476.862 222.127 472.464C234.725 466.966 247.065 460.809 259.237 454.243C265.29 450.979 271.303 447.644 277.345 444.347C277.97 444.004 278.56 443.539 279.512 443.384C279.08 444.452 278.431 444.988 277.888 445.597C270.759 453.64 263.683 461.744 256.467 469.693C243.542 483.937 230.588 498.143 217.552 512.254C204.568 526.31 191.269 540.007 177.883 553.593C176.048 555.457 174.202 557.304 172.39 559.196C171.87 559.738 171.461 560.408 171.005 561.022H172.32C174.616 558.643 176.913 556.253 179.215 553.88C187.144 545.704 195.143 537.606 202.991 529.336C212.27 519.556 221.508 509.721 230.617 499.741C245.348 483.605 259.955 467.331 274.604 451.106C276.936 448.529 279.226 445.907 281.47 443.229C282.884 441.537 284.514 440.27 286.361 439.208C295.26 434.096 304.147 428.974 312.976 423.719C326.9 415.432 340.521 406.548 353.901 397.216C365.354 389.228 376.737 381.102 388.148 373.043C388.692 372.661 389.235 372.285 389.808 371.887C390 372.506 389.597 372.705 389.381 372.965C377.934 386.866 366.54 400.817 355.012 414.63C342.139 430.047 329.15 445.353 316.184 460.676C299.011 480.972 281.587 500.997 263.859 520.695C256.362 529.021 248.906 537.39 241.398 545.699C237.36 550.169 233.246 554.555 229.18 559.003C228.613 559.617 228.145 560.341 227.631 561.011H228.946C243.712 544.687 258.53 528.418 273.225 512.016C287.558 496.013 301.617 479.711 315.553 463.282C327.233 449.513 338.949 435.784 350.524 421.904C363.689 406.122 376.707 390.191 389.79 374.32C391.175 372.644 392.525 370.935 393.939 369.292C394.541 368.595 395.201 367.931 395.914 367.389C403.171 361.907 410.44 356.459 417.714 351.004C418.135 350.689 418.597 350.434 419.035 350.152V348.692C418.462 349.013 417.849 349.273 417.323 349.671C411.877 353.776 406.449 357.902 401.015 362.018C400.547 362.372 400.056 362.693 399.566 363.036C399.49 362.864 399.437 362.798 399.437 362.732C399.437 362.66 399.46 362.566 399.507 362.51C406.016 354.495 412.526 346.479 419.035 338.469V336.522C411.158 346.225 403.288 355.939 395.388 365.625C394.663 366.515 393.804 367.323 392.893 367.97C380.657 376.71 368.439 385.467 356.151 394.113C345.219 401.802 334.099 409.148 322.828 416.207C311.621 423.227 300.25 429.914 288.791 436.409C288.365 436.652 287.985 437.122 287.249 436.829C287.763 436.187 288.207 435.579 288.698 435.015C295.388 427.292 302.12 419.62 308.763 411.853C320.993 397.554 333.217 383.243 345.365 368.861C357.413 354.594 369.403 340.262 381.347 325.885C393.436 311.331 405.444 296.683 417.481 282.073C418.024 281.415 418.515 280.713 419.035 280.027V278.566C417.434 280.447 415.815 282.311 414.238 284.22C401.687 299.41 389.188 314.661 376.585 329.796C362.637 346.54 348.619 363.207 334.578 379.858C326.585 389.339 318.515 398.743 310.434 408.13C302.003 417.933 293.501 427.663 285.058 437.454C283.772 438.942 282.341 440.104 280.681 441.028C266.57 448.899 252.429 456.699 237.95 463.724C225.954 469.544 213.795 474.898 201.53 479.982C199.269 480.917 197.007 481.852 194.746 482.776C194.214 482.991 193.671 483.174 193.098 483.39C192.917 482.51 193.49 482.272 193.817 481.924C196.353 479.23 198.93 476.585 201.46 473.886C211.685 462.977 221.911 452.063 232.119 441.133C249.169 422.872 265.793 404.136 282.422 385.412C292.332 374.26 302.166 363.025 311.942 351.729C325.814 335.687 339.615 319.567 353.417 303.448C360.364 295.327 367.259 287.152 374.154 278.97C375.317 277.593 376.596 276.437 378.016 275.413C387.64 268.465 397.252 261.506 406.835 254.492C410.375 251.903 413.829 249.165 417.311 246.477C417.907 246.018 418.462 245.476 419.035 244.972V243.999C418.229 243.999 417.732 244.673 417.154 245.127C406.385 253.508 395.44 261.606 384.385 269.511C383.281 270.302 382.171 271.087 381.06 271.867C380.78 272.061 380.476 272.216 380.009 272.133C380.283 271.784 380.546 271.43 380.827 271.093C387.464 263.216 394.108 255.344 400.74 247.461C406.373 240.763 411.994 234.047 417.615 227.337C418.112 226.745 418.568 226.109 419.041 225.495V224.035C417.282 226.092 415.506 228.134 413.764 230.202C401.33 244.972 388.896 259.742 376.479 274.523C375.673 275.48 374.808 276.32 373.797 277.006C360.639 285.951 347.532 294.996 334.309 303.835C321.717 312.26 308.798 320.054 295.715 327.511C290.574 330.437 285.408 333.314 280.255 336.201C279.618 336.561 278.952 336.871 278.303 337.203C277.999 336.6 278.396 336.384 278.618 336.129C280.558 333.917 282.51 331.721 284.456 329.525C298.707 313.427 313.023 297.402 327.198 281.222C342.648 263.586 357.992 245.841 373.342 228.1C385.297 214.282 397.188 200.392 409.096 186.524C412.426 182.646 415.728 178.741 419.041 174.846V173.386C416.353 176.478 413.648 179.56 410.977 182.668C402.242 192.825 393.53 203.008 384.777 213.159C374.259 225.357 363.741 237.56 353.171 249.702C339.346 265.583 325.51 281.448 311.609 297.247C299.701 310.778 287.693 324.198 275.749 337.695C274.552 339.05 273.225 340.096 271.689 340.931C258.138 348.244 244.559 355.474 230.687 362.023C218.3 367.876 205.731 373.192 193.057 378.231C192.526 378.442 191.971 378.591 191.445 378.757C191.1 378.143 191.503 377.916 191.737 377.678C193.986 375.355 196.265 373.07 198.509 370.741C207.589 361.315 216.728 351.95 225.72 342.425C239.586 327.743 253.44 313.046 267.131 298.165C282.551 281.415 297.825 264.499 313.093 247.572C326.491 232.708 339.814 217.756 353.124 202.798C363.765 190.839 374.341 178.818 384.929 166.803C386.167 165.398 387.517 164.198 388.995 163.125C399.162 155.756 409.16 148.112 419.041 140.279V138.818C413.951 142.746 408.88 146.69 403.773 150.595C400.413 153.168 397.012 155.679 393.623 158.218C393.261 158.489 392.887 158.733 392.513 158.998C392.104 158.45 392.566 158.229 392.764 158.002C395.09 155.319 397.427 152.648 399.776 149.992C405.549 143.465 411.328 136.943 417.101 130.416C417.761 129.663 418.392 128.883 419.041 128.114V126.654C408.699 138.354 398.356 150.048 388.025 161.764C386.997 162.931 385.875 163.938 384.636 164.829C366.225 178.066 347.462 190.673 328.566 203.036C317.037 210.581 305.339 217.778 293.466 224.632C292.56 225.158 291.649 225.661 290.749 226.17C290.381 225.716 290.778 225.567 290.93 225.362C291.111 225.108 291.339 224.903 291.549 224.676C299.823 215.731 308.138 206.831 316.371 197.831C337.412 174.819 358.418 151.779 379.424 128.728C392.32 114.578 405.187 100.4 418.065 86.2337C418.375 85.8908 418.714 85.581 419.035 85.2602V83.7998C418.702 84.1096 418.351 84.4027 418.048 84.7402C403.142 101.147 388.253 117.571 373.336 133.967C360.709 147.852 348.082 161.736 335.408 175.571C321.536 190.711 307.606 205.791 293.7 220.887C291.766 222.989 289.785 225.036 287.862 227.149C286.968 228.134 285.975 228.914 284.841 229.528C275.896 234.351 267.002 239.302 258.004 244.01C248.48 248.994 238.908 253.873 229.267 258.575C222.174 262.038 214.94 265.141 207.765 268.399C207.174 268.665 206.567 268.891 205.941 269.151C205.854 268.371 206.339 268.205 206.631 267.907C220.164 254.254 233.766 240.696 247.212 226.939C261.41 212.418 275.481 197.731 289.563 183.072C297.883 174.409 306.151 165.68 314.408 156.935C328.431 142.082 342.431 127.207 356.426 112.321C367.621 100.417 378.793 88.4796 389.983 76.5643C399.273 66.6736 408.57 56.7939 417.872 46.9142C418.24 46.5215 418.644 46.1785 419.035 45.8079V44.3475C417.124 46.3555 415.208 48.3525 413.309 50.3771C400.653 63.869 388.002 77.3774 375.34 90.8638C360.779 106.375 346.218 121.891 331.633 137.38C322.915 146.64 314.174 155.873 305.403 165.072C292.595 178.508 279.805 191.962 266.909 205.299C253.697 218.968 240.404 232.542 227.088 246.084C219.538 253.762 211.872 261.291 204.276 268.908C203.119 270.07 201.851 270.944 200.379 271.535C181.955 278.959 163.45 286.101 144.641 292.23C140.364 293.624 136.052 294.885 131.745 296.185C131.284 296.323 130.793 296.351 130.197 296.45C130.454 295.482 131.091 295.167 131.576 294.724C138.085 288.811 144.606 282.914 151.109 277.006C165.542 263.896 179.805 250.559 193.881 236.979C206.245 225.052 218.598 213.109 230.886 201.089C239.989 192.177 249.035 183.188 258.016 174.122C277.058 154.894 296.037 135.599 315.039 116.326C318.387 112.93 321.723 109.522 325.031 106.082C326.211 104.854 327.496 103.819 328.899 102.912C349.157 89.7409 369.24 76.249 388.662 61.5954C398.157 54.4319 407.542 47.0857 416.967 39.8115C417.685 39.2583 418.34 38.6111 419.029 38.0082V36.5478C411.439 42.4723 403.872 48.4521 396.247 54.3212C375.989 69.9041 355.07 84.3308 333.836 98.2099C333.357 98.5197 332.866 98.7963 332.188 98.8129C332.521 98.4312 332.843 98.0329 333.193 97.6734C343.109 87.4673 353.031 77.2668 362.941 67.0608C377.408 52.1639 391.87 37.2614 406.338 22.3589C410.568 17.9999 414.799 13.6354 419.029 9.27638V8.30279C418.679 8.57385 418.293 8.80618 417.977 9.12702C409.604 17.7233 401.231 26.3196 392.869 34.927L392.84 34.9049ZM81.6345 208.236C80.1971 209.315 78.7129 209.984 77.0126 210.277C69.9365 211.505 62.8722 212.86 55.7844 214.011C51.4488 214.714 47.0723 215.151 42.7133 215.671C36.4612 216.417 30.1856 216.91 23.9043 217.231C19.8842 217.435 15.8699 217.712 11.8557 217.955C11.4934 217.977 11.1312 217.955 10.763 217.955C10.6462 217.219 11.2539 217.247 11.5402 216.976C11.8148 216.716 12.1595 216.55 12.4751 216.345C18.8441 212.191 25.2248 208.059 31.5821 203.883C45.8102 194.534 59.7402 184.665 73.606 174.675C103.985 152.786 133.615 129.708 162.831 105.954C171.8 98.6635 180.722 91.2953 189.651 83.9491C190.714 83.0696 191.83 82.3505 193.075 81.8139C207.94 75.3971 222.495 68.1782 236.998 60.8265C250.303 54.0778 263.508 47.0913 276.48 39.5847C279.396 37.8975 282.3 36.1827 285.21 34.4789C285.285 34.5674 285.361 34.6559 285.443 34.75C284.327 35.7844 283.217 36.8299 282.089 37.8422C262.258 55.6765 242.49 73.6103 222.559 91.3063C207.25 104.892 191.789 118.274 176.276 131.572C163.713 142.337 151.033 152.941 138.284 163.429C119.656 178.752 100.853 193.809 81.6462 208.236H81.6345ZM273.196 342.032C274.084 341.02 275.113 340.311 276.234 339.686C284.783 334.896 293.361 330.161 301.862 325.254C319.129 315.286 335.922 304.394 352.487 293.059C357.968 289.309 363.426 285.531 368.901 281.775C369.433 281.41 369.993 281.1 370.817 280.596C370.502 281.758 369.9 282.239 369.433 282.798C365.792 287.129 362.146 291.461 358.471 295.759C346.533 309.704 334.578 323.633 322.635 337.573C308.874 353.632 295.02 369.585 280.944 385.301C266.196 401.763 251.53 418.314 236.6 434.578C221.987 450.492 207.104 466.114 192.298 481.813C188.582 485.757 190.031 484.667 185.315 486.559C174.108 491.062 162.819 495.31 151.384 499.044C138.821 503.149 126.112 506.584 113.334 509.726C111.914 510.075 110.488 510.406 109.068 510.749C108.992 510.628 108.916 510.501 108.834 510.379C109.261 509.958 109.676 509.521 110.114 509.123C124.675 495.919 138.81 482.173 152.938 468.415C168.335 453.43 183.428 438.068 198.363 422.513C211.428 408.905 224.482 395.28 237.261 381.34C247.434 370.244 257.589 359.13 267.75 348.028C269.573 346.037 271.426 344.073 273.214 342.037L273.196 342.032ZM215.869 369.928C227 365.193 237.939 359.932 248.737 354.329C255.491 350.822 262.205 347.21 268.936 343.653C269.521 343.343 270.105 343.055 270.695 342.756C270.748 342.828 270.8 342.906 270.853 342.978C270.578 343.299 270.315 343.631 270.035 343.94C254.895 360.425 239.843 377.009 224.581 393.35C212.164 406.648 199.549 419.725 186.916 432.78C163.894 456.566 140.247 479.573 116.185 502.048C113.164 504.869 110.085 507.613 107.052 510.423C106.246 511.17 105.381 511.662 104.341 511.883C96.3008 513.598 88.284 515.435 80.2263 517.056C74.909 518.123 69.5509 518.986 64.1869 519.777C59.5533 520.463 54.8904 520.967 50.2335 521.459C45.5765 521.957 40.9136 522.355 36.2508 522.775C34.8835 522.903 33.5162 522.941 32.0554 522.93C32.2716 522.023 32.8793 521.824 33.3234 521.47C40.2884 515.955 47.3586 510.595 54.2126 504.913C64.7069 496.229 75.0843 487.372 85.4559 478.511C104.931 461.86 123.67 444.219 142.333 426.479C156.111 413.38 169.638 399.982 183.025 386.391C184.106 385.295 185.233 384.255 186.268 383.11C187.331 381.932 188.57 381.191 189.972 380.616C198.62 377.086 207.274 373.579 215.875 369.923L215.869 369.928ZM285.227 231.392C286.127 230.429 287.068 229.577 288.201 228.941C306.689 218.591 324.674 207.235 342.367 195.308C354.679 187.011 366.897 178.542 379.161 170.15C379.641 169.824 380.143 169.53 380.634 169.226C380.721 169.37 380.815 169.514 380.903 169.658C380.161 170.537 379.43 171.433 378.671 172.291C372.775 178.951 366.891 185.611 360.978 192.255C347.205 207.727 333.48 223.255 319.62 238.638C301.214 259.067 282.761 279.451 264.203 299.714C252.318 312.692 240.282 325.503 228.18 338.226C215.279 351.79 202.219 365.16 189.242 378.63C188.102 379.813 186.846 380.665 185.35 381.241C173.752 385.732 162.13 390.13 150.35 393.997C139.201 397.659 127.924 400.79 116.576 403.578C115.373 403.871 114.169 404.159 112.714 404.507C113.234 403.511 113.924 403.08 114.502 402.549C121.929 395.706 129.431 388.963 136.782 382.021C147.306 372.075 157.759 362.04 168.166 351.95C181.494 339.028 194.682 325.929 207.689 312.609C224.78 295.112 241.848 277.576 258.629 259.709C267.493 250.266 276.363 240.834 285.221 231.392H285.227ZM205.503 270.584C219.889 264.588 234 257.867 247.889 250.581C259.132 244.685 270.31 238.655 281.517 232.686C281.891 232.487 282.27 232.31 282.644 232.122C282.703 232.21 282.761 232.293 282.814 232.382C282.539 232.714 282.276 233.062 281.978 233.372C270.666 245.376 259.371 257.396 248.035 269.373C241.888 275.861 235.701 282.3 229.489 288.717C210.815 308.028 192.023 327.201 172.863 345.921C157.327 361.1 141.737 376.212 125.768 390.827C121.198 395.009 116.606 399.163 112.06 403.379C110.792 404.551 109.442 405.309 107.8 405.685C96.1255 408.352 84.445 410.946 72.6594 412.949C65.7178 414.127 58.7644 415.156 51.7702 415.847C49.5147 416.074 47.2651 416.378 45.0038 416.599C43.7709 416.721 42.5322 416.732 41.3051 416.793C41.1591 415.869 41.8076 415.759 42.1758 415.465C48.463 410.432 54.7736 405.431 61.0608 400.397C74.9441 389.284 88.5528 377.767 101.974 365.979C116.775 352.985 131.488 339.874 145.903 326.355C164.175 309.223 182.353 291.975 200.133 274.224C201.74 272.62 203.464 271.419 205.492 270.573L205.503 270.584ZM320.052 109.843C313.169 116.88 306.297 123.938 299.385 130.941C284.152 146.364 268.931 161.808 253.633 177.153C231.336 199.523 208.752 221.529 185.946 243.257C167.353 260.964 148.439 278.24 129.408 295.366C129.069 295.67 128.713 295.958 128.38 296.284C127.486 297.164 126.463 297.701 125.283 297.988C118.218 299.714 111.177 301.595 104.096 303.221C96.1489 305.041 88.1788 306.739 80.1912 308.31C73.8631 309.555 67.4882 310.545 61.1309 311.618C60.383 311.746 59.6292 312.122 58.5658 311.818C59.2728 311.215 59.7578 310.761 60.2836 310.357C88.021 288.789 115.075 266.208 141.626 242.876C170.065 217.878 197.919 192.1 225.481 165.929C228.256 163.291 231.044 160.658 233.79 157.98C234.847 156.951 236.004 156.155 237.284 155.508C252.26 147.951 267.154 140.19 281.815 131.898C294.588 124.674 307.121 116.957 319.52 108.986C320.116 108.599 320.672 108.056 321.764 107.94C321.051 108.748 320.572 109.329 320.058 109.86L320.052 109.843Z" fill="#C94938"></path><path d="M395.943 426.22C383.673 441.261 371.373 456.263 359.038 471.232C351.933 479.855 344.751 488.402 337.57 496.943C330.64 505.191 323.658 513.389 316.704 521.62C315.951 522.516 315.121 523.28 314.145 523.871C293.636 536.368 272.968 548.537 251.886 559.817C251.232 560.165 250.618 560.602 249.987 561H253.061C253.809 560.514 254.533 559.977 255.31 559.54C262.422 555.568 269.591 551.718 276.655 547.636C287.407 541.418 298.088 535.04 308.804 528.745C309.482 528.347 310.113 527.788 310.955 527.639C310.925 527.948 310.96 528.147 310.89 528.236C310.218 529.088 309.552 529.951 308.839 530.764C300.647 540.135 292.449 549.489 284.251 558.854C283.644 559.551 283.065 560.281 282.469 560.995H284.228C284.655 560.442 285.052 559.861 285.508 559.341C288.406 556.016 291.328 552.714 294.226 549.389C301.086 541.512 307.945 533.629 314.788 525.73C315.612 524.779 316.511 523.999 317.54 523.357C335.122 512.498 352.236 500.782 369.076 488.573C383.526 478.102 397.924 467.536 412.111 456.628C414.396 454.874 416.698 453.159 418.994 451.422V449.475C417.148 450.93 415.307 452.396 413.443 453.829C398.023 465.744 382.364 477.245 366.622 488.623C354.983 497.037 343.215 505.213 331.236 513.013C327.958 515.148 324.663 517.25 321.355 519.33C321.075 519.507 320.73 520.066 320.204 519.463C320.561 519.026 320.888 518.6 321.233 518.196C324.33 514.523 327.438 510.866 330.523 507.182C341.917 493.574 353.382 480.044 364.665 466.319C381.166 446.245 397.527 426.026 413.952 405.874C415.617 403.833 417.312 401.819 418.994 399.795V397.848C418.819 397.986 418.615 398.102 418.474 398.274C410.96 407.583 403.498 416.938 395.937 426.203L395.943 426.22Z" fill="#C94938"></path><path d="M416.441 464.106C407.717 474.816 399.058 485.586 390.305 496.262C378.449 510.717 366.541 525.116 354.621 539.498C349.327 545.882 343.934 552.171 338.605 558.522C337.968 559.28 337.167 559.916 336.91 561H338.225C341.269 557.393 344.343 553.809 347.358 550.174C359.091 536.052 370.847 521.957 382.516 507.774C393.104 494.907 403.58 481.93 414.11 469.007C415.722 467.027 417.364 465.08 418.995 463.116V461.169C417.89 461.877 417.259 463.1 416.435 464.106H416.441Z" fill="#C94938"></path></g><defs><clipPath id="clip0_403_8273"><rect width="419" height="561" fill="white"></rect></clipPath></defs></svg>