<svg xmlns="http://www.w3.org/2000/svg" viewBox="0 0 256 186" fill="none"><path d="M226.338 155.202C224.855 160.614 223.436 166.284 221.953 172.533C221.566 174.143 221.373 175.883 221.115 177.687C220.792 180.328 220.47 183.099 219.567 185.482L218.922 185.482C219.889 183.034 220.212 180.328 220.534 177.622C220.728 175.754 220.986 174.015 221.373 172.404C222.856 166.155 224.339 160.485 225.757 155.073C226.209 153.334 227.37 150.886 228.724 148.051C232.528 140.062 237.687 129.174 231.239 125.502C229.24 124.342 226.66 124.6 223.952 124.922C223.307 124.987 222.727 125.051 222.082 125.115C220.921 125.18 220.018 125.244 219.18 125.115C213.764 124.664 206.283 124.02 199.577 122.087C196.869 121.314 194.289 120.283 191.839 119.059C181.715 113.905 175.073 106.11 174.171 98.1854C173.913 95.8016 174.106 93.3534 174.299 91.0341C174.622 86.8464 175.009 82.9164 172.752 78.9865C170.237 74.5411 164.82 71.6419 159.984 69.3226C150.956 64.9416 139.349 58.8856 129.096 51.3478C126.324 49.2861 123.873 47.0312 121.487 44.8407C119.617 43.1657 117.683 41.3618 115.619 39.6867C113.749 38.1405 111.557 36.7875 109.429 35.499C107.623 34.4038 105.818 33.2441 104.141 32.02C102.594 30.8603 101.239 29.5718 99.9498 28.3477C97.2415 25.7707 94.7266 23.3869 90.5996 22.034C86.9241 20.8099 83.313 19.3281 79.186 17.4597C76.2842 16.1068 73.3825 14.625 70.2873 13.0788L68.5462 12.1768C62.6137 9.14879 57.6485 7.53815 53.0701 7.21602C48.4273 6.82947 43.6555 7.73143 39.1416 8.69782L38.1099 8.95551C33.9829 9.85747 30.1139 10.7594 26.1159 10.4373C23.6011 10.244 21.2152 9.53536 18.8293 8.82668C15.9275 7.98914 12.9612 7.1516 9.73706 7.1516C5.54562 7.21602 2.64385 8.50455 1.53029e-05 10.4373L1.53649e-05 9.72862C2.64385 7.86028 5.54562 6.63619 9.73706 6.57176C13.0257 6.50734 16.0565 7.40929 18.9582 8.24683C21.2796 8.89108 23.6655 9.59976 26.1159 9.85747C29.9849 10.1796 33.854 9.34207 37.9164 8.44011L38.9482 8.18242C43.462 7.21602 48.2983 6.31406 53.0701 6.70061C57.7774 7.08716 62.7427 8.69782 68.7397 11.7258L70.4807 12.6278C73.5759 14.174 76.4777 15.6558 79.3795 17.0088C83.4419 18.8771 87.053 20.2945 90.7286 21.5186C94.9845 22.9359 97.5639 25.3841 100.272 27.9612C101.562 29.1853 102.916 30.4738 104.399 31.569C106.011 32.7931 107.881 33.9528 109.622 35.048C111.75 36.3365 113.943 37.6895 115.877 39.3001C117.941 40.9752 119.875 42.7147 121.745 44.4542C124.131 46.6447 126.517 48.8351 129.29 50.8968C139.478 58.4346 151.15 64.4262 160.113 68.8072C165.014 71.1909 170.495 74.1545 173.139 78.7288C175.46 82.7876 175.073 86.9753 174.751 91.0985C174.557 93.4179 174.364 95.8016 174.622 98.1854C175.525 105.916 182.038 113.519 192.032 118.608C194.418 119.832 196.933 120.799 199.642 121.572C206.348 123.44 213.699 124.085 219.116 124.536C219.954 124.6 220.857 124.6 221.953 124.536C222.598 124.471 223.178 124.407 223.823 124.342C226.596 124.02 229.24 123.762 231.432 124.987C238.332 128.917 233.044 140.127 229.175 148.244C227.95 151.143 226.789 153.527 226.338 155.202Z" fill="#CA8C88"></path><path d="M205.316 154.494C204.155 158.23 202.93 162.225 201.447 167.443C201.06 168.667 200.802 169.956 200.544 171.309C199.9 174.401 199.255 177.622 197.32 180.2C195.708 182.39 193.645 183.679 191.839 184.709C191.194 185.031 190.549 185.289 189.969 185.482L188.228 185.482C188.615 185.354 188.937 185.225 189.324 185.096C190.098 184.838 190.807 184.58 191.581 184.194C193.322 183.228 195.386 181.939 196.869 179.877C198.674 177.365 199.319 174.272 199.964 171.18C200.222 169.891 200.544 168.474 200.867 167.25C202.35 162.031 203.575 158.037 204.736 154.3C205.187 152.754 206.219 150.757 207.38 148.438C210.217 142.768 213.763 135.746 211.249 132.138C210.152 130.592 208.669 130.012 206.541 129.367L206.477 129.367C205.896 129.174 205.252 128.981 204.671 128.788C202.285 128.015 199.513 127.435 196.546 126.79C194.483 126.339 192.355 125.888 190.356 125.373C188.099 124.793 186.164 124.149 184.423 123.44C176.685 120.283 170.817 116.225 167.916 112.101C167.013 110.877 166.368 109.589 165.788 108.365C164.627 106.174 163.595 104.048 161.209 101.986C158.565 99.6672 154.567 97.9277 150.634 96.3814C138.189 91.5495 128.452 85.6867 121.552 79.0509C119.166 76.7315 117.554 74.0901 115.942 71.513C114.717 69.5158 113.427 67.4542 111.815 65.5214C110.332 63.7819 108.333 62.429 106.334 61.0761C104.657 59.9808 102.98 58.8211 101.626 57.4038C100.272 56.0508 99.4339 54.5046 98.5311 52.9584C96.919 50.0592 95.3714 47.2889 90.8575 46.6446C86.6016 46.0648 82.9905 45.2273 79.4439 44.0032C76.1552 42.908 72.8021 41.2973 69.191 39.1712C64.0968 36.1432 59.7764 33.8883 55.198 32.6642C50.8776 31.5046 46.5572 31.3113 42.0434 32.02C39.9154 32.3421 37.7874 32.9219 35.724 33.4373C33.8539 33.9527 31.8549 34.4037 29.9849 34.7258C24.4393 35.6922 19.2806 35.3701 14.1219 34.9191C12.7678 34.7903 11.4781 34.6614 10.2529 34.5326C6.44835 34.0816 3.35314 33.7595 0.0644663 34.5326L0.0644664 33.9527C3.41762 33.1796 6.57732 33.5018 10.3174 33.9527C11.5426 34.0816 12.7678 34.2105 14.1864 34.3393C19.3451 34.7903 24.3748 35.1124 29.9204 34.146C31.7905 33.8239 33.6605 33.3729 35.6595 32.8575C37.723 32.3421 39.8509 31.7623 42.0434 31.4401C46.6862 30.667 51.0711 30.9247 55.456 32.0844C60.0988 33.3729 64.4837 35.6278 69.5779 38.6558C73.1245 40.7819 76.4132 42.3281 79.7019 43.4233C83.184 44.583 86.7306 45.4206 90.9865 46.0004C95.8228 46.6446 97.4349 49.5438 99.1114 52.5718C99.9497 54.0536 100.788 55.5998 102.078 56.8884C103.367 58.2413 104.979 59.3365 106.721 60.4962C108.72 61.8492 110.719 63.2665 112.266 65.0705C113.943 67.0032 115.232 69.0649 116.458 71.1265C118.005 73.6391 119.682 76.2806 122.003 78.5355C128.838 85.1713 138.511 90.9052 150.892 95.7372C154.89 97.2834 158.888 99.0229 161.661 101.471C164.111 103.662 165.272 105.916 166.368 108.043C167.013 109.267 167.593 110.491 168.496 111.715C171.269 115.709 177.201 119.768 184.746 122.86C186.422 123.569 188.357 124.149 190.549 124.729C192.548 125.244 194.676 125.695 196.74 126.146C199.706 126.79 202.479 127.37 204.929 128.143C205.574 128.337 206.154 128.53 206.735 128.723L206.799 128.723C208.992 129.432 210.668 130.012 211.829 131.687C214.537 135.552 210.926 142.768 208.024 148.502C206.799 151.015 205.832 153.012 205.316 154.494Z" fill="#CA8C88"></path><path d="M184.294 153.785C182.36 158.81 180.425 163.771 178.491 168.732C177.072 172.275 175.718 175.819 174.299 179.362C173.461 181.617 172.558 183.679 171.462 185.482L170.817 185.482C171.978 183.614 172.881 181.488 173.784 179.169C175.138 175.625 176.556 172.082 177.975 168.538C179.91 163.578 181.844 158.552 183.779 153.592C184.423 151.981 185.584 150.048 186.809 148.051C189.776 143.155 193.129 137.678 191.001 133.62C189.195 130.205 182.489 128.917 178.555 128.143C178.039 128.015 177.588 127.95 177.137 127.886C171.656 126.726 165.917 126.339 160.371 125.888C154.052 125.438 147.539 124.922 141.413 123.376C129.999 120.477 120.069 114.421 114.201 106.69C112.202 104.113 111.428 101.085 110.589 98.1209C109.945 95.8016 109.3 93.4178 108.139 91.2918C107.043 89.359 105.173 87.9417 103.367 86.5887C101.82 85.429 100.272 84.2694 99.1759 82.7232C98.0797 81.1769 97.6928 79.2442 97.3059 77.4402C96.661 74.0257 96.0807 71.1265 91.1154 71.2554C83.3129 71.5131 77.2514 71.2553 69.9003 66.2301C69.1265 65.6503 68.2882 65.1349 67.5144 64.5551C60.4856 59.6587 53.2635 54.569 45.0096 55.4066C41.076 55.7931 37.336 57.5971 33.6604 59.2721C28.8241 61.527 23.7944 63.9108 18.4423 62.88C15.5405 62.3001 12.7677 60.7539 10.1883 59.2721C6.83519 57.3394 3.61101 55.5354 0.193371 55.7287L0.193371 55.1489C3.80446 54.9556 7.2221 56.8884 10.5108 58.7567C13.0901 60.2385 15.7984 61.7847 18.6357 62.3001C23.7944 63.2665 28.5017 61.0761 33.467 58.7567C37.1425 57.0172 40.9471 55.2133 45.0096 54.8268C53.5214 53.9892 60.8726 59.1433 67.9658 64.1041C68.7396 64.6839 69.5779 65.1993 70.3517 65.7792C77.5738 70.7399 83.5708 70.9332 91.2444 70.7399C96.661 70.5467 97.3058 74.0257 98.0152 77.3758C98.3376 79.1797 98.7245 80.9837 99.7562 82.4655C100.788 83.8828 102.271 85.0425 103.819 86.2022C105.689 87.5551 107.559 89.0369 108.719 91.0985C109.945 93.289 110.589 95.6728 111.234 98.0565C112.008 100.956 112.846 103.919 114.716 106.432C120.52 114.099 130.322 120.09 141.606 122.925C147.668 124.471 154.18 124.922 160.5 125.373C166.11 125.76 171.849 126.211 177.33 127.37C177.782 127.435 178.233 127.564 178.749 127.628C183.069 128.466 189.647 129.754 191.646 133.426C193.967 137.743 190.485 143.412 187.454 148.373C186.1 150.306 184.939 152.239 184.294 153.785Z" fill="#CA8C88"></path><path d="M145.862 169.698C145.024 171.695 144.121 173.886 142.96 176.27C141.8 178.847 140.316 181.746 138.06 183.807C137.608 184.194 137.221 184.58 136.77 184.903C136.447 185.16 136.125 185.354 135.738 185.547L134.577 185.547C135.222 185.225 135.867 184.838 136.383 184.452C136.834 184.13 137.221 183.807 137.608 183.421C139.801 181.359 141.219 178.524 142.38 176.012C143.541 173.628 144.443 171.438 145.282 169.44L145.475 169.054C147.41 164.222 149.409 159.197 149.473 154.622C149.473 151.272 149.151 149.082 148.764 145.925C148.506 143.863 147.926 141.544 146.056 139.611C144.83 138.387 142.896 137.356 140.381 136.712C138.64 136.261 136.899 135.875 135.158 135.488C133.61 135.166 132.192 134.844 130.966 134.522C128.516 133.877 126.13 133.233 123.809 132.46C121.294 131.622 119.682 130.334 118.456 129.368C118.199 129.174 118.005 128.981 117.747 128.852C116.909 128.208 116.264 127.886 115.555 127.564C115.297 127.435 114.974 127.306 114.716 127.113C114.201 126.855 113.814 126.404 113.362 125.953C112.846 125.438 112.202 124.793 111.299 124.085C109.622 122.861 107.623 121.636 105.56 120.283C100.723 117.255 95.3068 113.776 91.2444 109.395C90.0192 108.043 89.1809 106.561 88.5361 105.337C88.2136 104.757 87.9557 104.177 87.6333 103.533C86.795 101.858 86.0212 100.247 84.8605 98.8296C83.8287 97.5411 82.2167 96.6392 80.669 95.8016C79.4439 95.0929 78.1542 94.3843 77.1869 93.4823C76.1552 92.5159 75.7038 91.3562 75.1879 90.1966C74.2852 88.0705 73.5114 86.2666 69.7068 86.5243C63.5164 86.9753 58.2932 87.0397 52.3607 83.8184C51.2 83.1742 49.9748 82.4655 48.7496 81.8212C46.1703 80.3394 43.4619 78.7932 40.7536 77.5691C37.465 76.0873 34.7566 75.3142 32.1128 75.2498C29.1466 75.1209 26.3093 75.8296 23.601 76.5383C19.8609 77.5047 15.9919 78.4711 11.8649 77.247C10.8977 76.9893 9.86593 76.5383 8.70522 75.9585C7.73796 75.443 6.77071 74.9276 5.86794 74.3478C3.93342 73.2526 2.12788 72.1573 0.193369 71.5775L0.193369 70.9977C2.25685 71.5775 4.19136 72.7372 6.12587 73.8324C7.02864 74.3478 7.9959 74.9276 8.96315 75.3786C10.1239 75.9585 11.0911 76.345 11.9939 76.6671C15.9919 77.8268 19.603 76.9248 23.4075 75.9585C26.1803 75.2498 29.0821 74.5411 32.1128 74.6699C34.8211 74.7988 37.5939 75.5075 40.9471 77.0537C43.7199 78.2778 46.4282 79.824 49.0075 81.3702C50.1682 82.0145 51.3934 82.7232 52.5541 83.3674C58.3577 86.5243 63.4519 86.4599 69.5778 86.0089C73.7048 85.6868 74.6721 87.8772 75.5748 90.0033C76.0262 91.0985 76.5421 92.1938 77.4449 93.0957C78.3476 93.9333 79.5728 94.642 80.798 95.3507C82.4101 96.2526 84.0222 97.1546 85.1829 98.5075C86.4081 99.9893 87.2464 101.664 88.0202 103.339C88.2781 103.919 88.6005 104.499 88.923 105.079C89.5678 106.303 90.3416 107.72 91.5668 109.009C95.5003 113.325 100.981 116.804 105.753 119.832C107.817 121.121 109.816 122.41 111.492 123.634C112.46 124.342 113.104 124.987 113.62 125.566C114.072 126.017 114.459 126.404 114.845 126.662C115.103 126.79 115.361 126.919 115.684 127.113C116.393 127.435 117.038 127.821 117.941 128.466C118.134 128.594 118.392 128.788 118.65 129.045C119.811 129.947 121.358 131.236 123.809 132.009C126.13 132.782 128.516 133.426 130.966 134.071C132.192 134.393 133.61 134.715 135.158 135.037C136.899 135.424 138.704 135.81 140.381 136.261C142.96 136.97 145.024 138.001 146.313 139.289C148.312 141.286 148.893 143.734 149.215 145.925C149.667 149.082 149.925 151.337 149.925 154.687C149.925 159.39 147.861 164.415 145.927 169.376L145.862 169.698Z" fill="#CA8C88"></path><path d="M111.557 173.177C110.59 174.788 109.106 177.107 107.043 179.04C106.721 179.362 106.334 179.684 106.011 179.942C105.366 180.457 104.657 180.908 103.948 181.359C103.109 181.875 102.271 182.454 101.497 183.099C100.595 183.872 99.8852 184.709 99.2404 185.547L98.5311 185.547C99.2404 184.516 100.079 183.55 101.11 182.648C101.884 182.003 102.787 181.424 103.625 180.844C104.27 180.393 104.979 179.942 105.624 179.426C105.947 179.169 106.334 178.847 106.656 178.589C108.655 176.721 110.138 174.466 111.041 172.855C112.137 170.987 113.04 169.312 113.685 167.701C115.168 164.157 116.587 159.132 115.103 155.653C114.072 153.334 112.266 152.561 110.332 151.788C109.3 151.337 108.204 150.95 107.236 150.241C106.527 149.726 105.882 149.211 105.108 148.631C103.883 147.664 102.529 146.569 100.981 145.667C99.1114 144.636 96.919 143.863 94.5976 143.477C91.1799 142.897 87.6333 142.317 84.7316 141.415C82.0233 140.578 79.6374 139.547 77.5094 138.387C74.4787 136.712 74.0918 133.362 74.9945 131.687C75.7039 130.398 76.8001 129.818 77.8963 129.303C78.1542 129.174 78.4122 129.045 78.6701 128.917C80.4112 127.95 81.185 126.662 81.185 124.922C78.8636 121.121 72.8021 115.967 68.4172 112.359C67.5789 111.65 66.8696 111.006 66.1603 110.362L65.5799 109.846C64.2902 108.687 63.1295 107.527 61.6464 106.69C60.5502 106.045 59.1315 105.659 57.7774 105.337C56.8101 105.079 55.9718 104.886 55.1335 104.564C54.2953 104.241 53.6504 103.79 53.0701 103.339C51.8449 102.502 50.8131 101.729 48.1693 102.115C43.5265 102.824 39.2706 103.275 34.7567 101.729C32.1129 100.827 29.2111 99.6672 25.4066 97.9277C23.2141 96.8969 21.1506 95.9305 19.1516 95.3506C17.2171 94.7708 15.3471 94.4487 13.5416 94.191C10.8977 93.8044 8.18941 93.3534 5.15867 91.9361C4.32039 91.5495 3.54658 91.0985 2.90174 90.712C2.57933 90.5187 2.25691 90.3254 1.93449 90.1321C1.28965 89.7456 0.709299 89.4234 0.0644616 89.0369L0.0644616 88.3926C0.773782 88.7792 1.4831 89.2302 2.19242 89.6167C2.51484 89.81 2.83726 90.0033 3.15968 90.1966C3.80452 90.5831 4.57832 91.0341 5.35213 91.4206C8.25389 92.838 10.8332 93.2246 13.5416 93.6111C15.3471 93.8688 17.2171 94.191 19.2161 94.7708C21.2796 95.4151 23.4076 96.3814 25.6 97.4123C29.4046 99.1518 32.2418 100.311 34.8857 101.213C39.335 102.695 43.333 102.244 48.0403 101.536C50.9421 101.085 52.1028 101.986 53.3925 102.888C53.9728 103.275 54.5532 103.726 55.327 104.048C56.1008 104.37 56.9391 104.564 57.8419 104.821C59.2605 105.208 60.6791 105.53 61.8399 106.239C63.3875 107.141 64.6127 108.3 65.9023 109.524L66.4827 110.04C67.192 110.684 67.8368 111.328 68.6751 112.037C73.1245 115.645 79.3149 120.928 81.6364 124.793L81.7008 124.858L81.7008 124.922C81.7653 126.919 80.8625 128.401 78.928 129.496C78.6701 129.625 78.4122 129.754 78.1542 129.883C77.1225 130.398 76.0908 130.914 75.5104 132.073C74.7366 133.555 75.059 136.519 77.7673 138.065C79.8308 139.225 82.1522 140.191 84.8605 141.029C87.7623 141.931 91.3089 142.51 94.6621 143.09C97.048 143.477 99.3049 144.25 101.239 145.345C102.851 146.247 104.206 147.342 105.431 148.309C106.14 148.889 106.785 149.404 107.494 149.855C108.397 150.499 109.493 150.95 110.461 151.337C112.46 152.174 114.459 153.012 115.555 155.524C117.167 159.197 115.684 164.286 114.136 167.959C113.556 169.569 112.718 171.309 111.557 173.177Z" fill="#CA8C88"></path><path d="M76.0907 174.208C71.3834 178.589 66.0957 183.614 59.196 185.418C59.067 185.482 58.8735 185.482 58.7446 185.547L55.8428 185.547C56.939 185.354 58.0352 185.16 59.067 184.903C65.7733 183.099 71.061 178.138 75.7038 173.821C78.0897 171.566 80.798 169.054 82.1522 165.961C83.3773 163.191 83.4418 159.132 80.8625 156.749C78.4121 154.494 74.93 154.558 71.1899 154.622C69.3844 154.687 67.5144 154.687 65.7733 154.429C63.0005 154.043 60.4856 153.205 58.0352 152.432C55.0045 151.466 52.1672 150.499 48.943 150.306C41.2695 149.791 35.8529 147.922 31.4035 144.379C30.3073 143.477 29.6624 142.124 29.6624 140.578C29.6624 138.452 30.8231 136.197 32.5642 134.844C34.9501 132.975 37.9808 132.331 40.9471 131.622C41.5919 131.494 42.1723 131.365 42.8171 131.171C47.3954 130.012 50.1682 128.272 51.3289 125.695C52.3607 123.376 51.6514 121.25 50.8776 119.897C49.33 117.191 46.2992 115.065 43.1395 114.55C38.2388 113.712 33.2735 115.387 28.5017 116.998C27.9858 117.191 27.4055 117.384 26.8896 117.513C21.9244 119.188 15.5405 120.734 10.3173 118.157C7.09312 116.611 4.90068 113.776 2.70823 111.071C1.93443 110.04 1.09614 109.009 0.193366 108.043L0.193366 107.205C1.22511 108.3 2.19236 109.524 3.15962 110.748C5.35206 113.519 7.41554 116.16 10.5108 117.706C15.605 120.155 21.7954 118.673 26.6317 117.062C27.1476 116.869 27.7279 116.676 28.2438 116.547C33.0801 114.936 38.1098 113.197 43.1395 114.034C46.4927 114.614 49.6524 116.804 51.2645 119.639C52.4252 121.765 52.6186 123.956 51.7803 125.953C50.5551 128.723 47.6534 130.592 42.8816 131.751C42.2367 131.88 41.6564 132.073 41.0116 132.202C38.1098 132.847 35.1435 133.555 32.8866 135.295C31.2745 136.519 30.2428 138.645 30.2428 140.578C30.2428 141.544 30.5007 142.961 31.7259 143.928C36.1108 147.407 41.4629 149.211 48.943 149.791C52.2962 150.048 55.2625 151.015 58.2287 151.981C60.6791 152.754 63.1939 153.592 65.9023 153.978C67.5788 154.236 69.4489 154.171 71.1899 154.171C74.8655 154.107 78.6055 154.043 81.2494 156.426C84.0222 159.003 83.9577 163.256 82.668 166.284C81.2494 169.376 78.5411 171.953 76.0907 174.208Z" fill="#CA8C88"></path><g opacity="0.4"><path d="M255.291 185.547C254.517 179.04 253.357 172.533 251.422 166.284C246.392 150.242 236.784 137.936 224.274 131.687C216.407 127.757 207.444 126.211 198.803 124.793C194.676 124.085 190.356 123.376 186.229 122.41C170.366 118.608 159.339 110.104 156.824 99.5383C155.857 95.6084 155.986 91.3562 156.18 87.233C156.373 80.5327 156.631 74.1545 152.375 69.3226C148.571 64.9416 142.122 63.2021 135.932 61.5271C127.936 59.3366 120.327 57.275 118.973 49.9304C118.199 45.8716 120.069 42.0704 121.874 38.3337C123.293 35.3702 124.776 32.3421 124.97 29.1853C125.614 18.3617 112.395 12.3057 100.853 10.4373L100.595 10.3729C91.1156 8.82669 79.702 6.95834 73.8985 0.0647736L74.6723 0.0647736C80.4758 6.50736 91.567 8.3113 100.724 9.79308L100.982 9.8575C112.718 11.7903 126.195 18.0396 125.55 29.1853C125.356 32.471 123.873 35.5634 122.39 38.527C120.585 42.3281 118.844 45.8716 119.553 49.7371C120.907 56.7595 128.258 58.7567 136.125 60.8828C142.445 62.6223 148.957 64.3618 152.827 68.8716C157.211 73.8968 156.953 80.3394 156.76 87.1686C156.631 91.2274 156.502 95.4795 157.405 99.3451C159.92 109.653 170.753 118.093 186.423 121.765C190.549 122.732 194.805 123.44 198.997 124.149C207.702 125.631 216.73 127.177 224.661 131.107C237.3 137.421 247.037 149.855 252.067 166.026C254.066 172.404 255.227 178.911 256 185.482L255.291 185.482L255.291 185.547Z" fill="#CA8C88"></path><path d="M211.506 185.547L210.926 185.547C210.99 184.581 211.055 183.679 211.119 182.777C211.248 181.166 211.441 179.491 211.441 177.816C211.441 171.502 210.152 165.575 207.701 160.228C202.607 149.211 195.45 140.191 187.002 134.199C186.164 133.62 185.326 133.04 184.423 132.524C178.877 129.045 173.009 126.79 167.399 124.664C164.175 123.44 160.822 122.152 157.662 120.67C155.534 119.639 153.471 118.544 151.536 117.32C143.992 112.488 139.284 106.367 137.866 99.5383C137.221 96.317 137.285 92.838 137.414 89.4879C137.543 84.0117 137.672 78.7932 134.835 74.6055C132.32 70.8688 128.064 68.8072 124.002 66.81C120.197 64.9416 116.586 63.2021 114.393 60.1741C113.362 58.8212 112.781 57.3394 112.459 55.6643C111.943 52.5718 112.975 49.6727 114.007 46.8379C114.974 44.0676 115.877 41.4906 115.49 38.7847C114.393 30.9892 104.914 28.9276 99.3688 28.4121C95.6932 28.09 91.6952 28.2189 87.9552 28.4766C85.3113 28.6698 81.3133 28.7987 77.2509 28.1544C68.4811 26.6726 61.3234 21.9051 57.1964 14.8183C55.7133 12.2412 54.7461 9.59978 53.8433 7.02274C53.0695 4.83226 52.2957 2.77063 51.2639 0.83786C51.135 0.580154 50.9415 0.258026 50.7481 0.000320435L51.3929 0.000320491C51.5219 0.193604 51.6508 0.386871 51.7153 0.580155C52.7471 2.51292 53.5209 4.63899 54.2947 6.82947C55.1974 9.34209 56.1647 11.9835 57.5833 14.4962C61.5813 21.4541 68.5456 26.0928 77.1864 27.5746C81.1844 28.2189 85.1179 28.09 87.7617 27.8967C91.5018 27.639 95.4998 27.4458 99.2398 27.8323C104.979 28.3477 114.716 30.4738 115.877 38.6559C116.264 41.4906 115.296 44.2609 114.329 46.9668C113.362 49.7371 112.33 52.6363 112.846 55.5354C113.104 57.1461 113.684 58.5635 114.651 59.7876C116.779 62.6867 120.326 64.4262 124.066 66.2301C128.257 68.2918 132.513 70.3534 135.157 74.2189C138.059 78.5355 137.93 84.0761 137.801 89.4235C137.737 92.7736 137.608 96.1882 138.252 99.345C139.607 105.981 144.185 112.037 151.665 116.74C153.535 117.964 155.599 119.059 157.727 120.026C160.886 121.508 164.046 122.732 167.464 123.956C173.138 126.082 179.006 128.337 184.616 131.88C185.455 132.396 186.357 132.975 187.196 133.62C195.707 139.676 202.93 148.76 208.088 159.841C210.603 165.253 211.893 171.244 211.893 177.687C211.893 179.426 211.764 181.102 211.57 182.712C211.635 183.743 211.57 184.645 211.506 185.547Z" fill="#CA8C88"></path><path d="M167.4 177.429C167.013 178.975 166.561 180.522 166.368 182.132C166.239 183.356 166.239 184.452 166.368 185.547L165.787 185.547C165.659 184.452 165.659 183.292 165.787 182.068C165.981 180.393 166.432 178.847 166.819 177.3C167.271 175.754 167.658 174.144 167.851 172.533C168.625 165.575 167.335 159.39 163.982 154.171C158.952 146.44 151.923 139.805 146.378 134.908C145.798 134.393 145.217 133.877 144.572 133.362C143.541 132.46 142.509 131.558 141.477 130.656C136.77 126.597 132.707 123.054 129.032 118.995C127.936 117.771 126.904 116.482 125.937 115.194C122.003 109.975 119.682 104.886 119.037 99.6672C118.714 97.1546 118.714 94.4487 118.779 91.8717C118.843 87.6196 118.843 83.5607 117.425 80.0173C116.135 76.8604 114.072 74.5411 112.073 72.2218C110.074 70.0313 108.268 67.9052 107.107 65.1349C106.591 63.9108 106.269 62.7512 106.14 61.5271C105.882 59.5299 106.14 57.5327 106.462 55.5999C106.849 53.0873 107.172 50.6391 106.269 48.3842C103.625 41.6839 94.1461 41.3618 86.795 43.1013C84.538 43.6167 82.2166 44.3898 79.9597 45.0985C78.4121 45.6139 76.8645 46.0649 75.3169 46.5158C71.1254 47.7399 67.5788 48.1265 64.1612 47.7399C56.5521 46.9024 49.9103 42.3926 43.3329 33.6306C42.4302 32.4066 41.5919 31.2469 40.7536 30.0228C38.4322 26.6727 36.1753 23.5158 33.2735 21.2609C32.4997 20.681 31.5969 20.1012 30.5652 19.5214C28.4372 18.3617 26.1803 17.5886 23.9878 16.9443C14.9601 14.174 7.02862 12.6278 0.257828 12.2413L0.257828 11.6614C7.0931 12.048 15.0891 13.5942 24.1168 16.3645C26.3092 17.0732 28.6951 17.8463 30.8231 19.006C31.9193 19.5858 32.8221 20.1657 33.5959 20.8099C36.5622 23.1292 38.8191 26.2861 41.205 29.7007C42.0433 30.8603 42.8816 32.0844 43.7843 33.2441C50.2327 41.8772 56.7456 46.2581 64.2257 47.0957C67.5788 47.4822 70.9964 47.0957 75.1234 45.8716C76.671 45.4206 78.2831 44.9052 79.7662 44.4542C82.0232 43.7455 84.3446 42.9724 86.6015 42.457C94.1461 40.6531 103.948 41.0396 106.72 48.0621C107.688 50.4458 107.301 52.894 106.978 55.5355C106.72 57.4038 106.462 59.3366 106.656 61.3338C106.785 62.5579 107.107 63.6531 107.623 64.8128C108.784 67.5187 110.589 69.5159 112.524 71.7064C114.587 74.0257 116.715 76.4094 118.005 79.6307C119.488 83.303 119.424 87.5551 119.424 91.6784C119.424 94.2554 119.359 96.8969 119.682 99.4095C120.391 104.499 122.583 109.524 126.517 114.678C127.484 115.967 128.516 117.255 129.612 118.415C133.223 122.474 137.286 126.017 141.993 130.076C143.025 130.914 144.056 131.816 145.088 132.782C145.669 133.297 146.249 133.813 146.894 134.328C152.439 139.225 159.533 145.925 164.627 153.721C168.109 159.003 169.399 165.317 168.625 172.404C168.302 174.272 167.851 175.883 167.4 177.429Z" fill="#CA8C88"></path><path d="M123.099 172.275C122.39 173.886 121.681 175.496 121.294 177.236C120.778 179.942 121.294 182.519 122.712 184.258C123.099 184.774 123.551 185.16 124.067 185.547L123.164 185.547C122.841 185.225 122.519 184.967 122.261 184.58C120.713 182.712 120.198 180.006 120.778 177.107C121.165 175.303 121.874 173.628 122.583 172.017C123.293 170.471 124.002 168.861 124.389 167.186C126.13 159.197 124.776 152.754 120.327 148.115C118.392 146.054 116.006 144.314 113.749 142.639C110.912 140.513 107.946 138.387 105.753 135.552C101.046 129.432 100.53 121.701 100.401 112.939L99.6918 70.0957C99.6273 65.3926 99.3694 61.2693 96.79 58.1125C91.7603 51.8632 81.4429 53.6671 73.9628 57.9192C72.4797 58.7567 70.9965 59.6587 69.5779 60.5607C63.7744 64.1685 57.7129 67.9696 50.8776 67.5831C42.4303 67.1321 36.8202 61.0116 30.8877 54.5046C26.2449 49.415 21.4086 44.1321 15.0247 41.8772C11.1557 40.5242 6.89974 40.3309 2.83727 40.2021C1.93449 40.2021 1.03172 40.1376 0.0644658 40.0732L0.0644659 39.4934C1.03172 39.5578 1.93449 39.6222 2.83727 39.6222C6.96422 39.7511 11.2201 39.9444 15.2181 41.2973C21.731 43.6167 26.5673 48.8996 31.2746 54.0536C37.1426 60.4318 42.6237 66.4234 50.8776 66.9388C57.5194 67.3254 63.5164 63.5887 69.2555 60.0453C70.6741 59.1433 72.1572 58.2413 73.6404 57.4038C81.3139 53.0228 92.0182 51.2189 97.2414 57.7259C100.079 61.2694 100.208 66.359 100.272 70.0957L100.981 112.939C101.11 121.636 101.626 129.303 106.205 135.23C108.333 138.001 111.234 140.127 114.072 142.253C116.393 143.928 118.714 145.667 120.713 147.793C125.292 152.625 126.646 159.197 124.905 167.379C124.582 169.054 123.809 170.665 123.099 172.275Z" fill="#CA8C88"></path><path d="M103.561 185.547C102.271 183.228 100.659 181.166 98.66 179.555C98.4666 179.426 98.2731 179.233 98.0797 179.104C97.1124 178.396 96.1452 177.623 95.5003 176.527C95.0489 175.819 94.791 175.045 94.5976 174.144C94.4041 173.113 94.4686 171.953 94.662 170.793C94.92 169.505 95.4358 168.216 95.8872 166.992C96.4031 165.704 96.8545 164.415 97.1124 163.062C98.1442 157.006 96.9834 152.11 93.5013 148.566C91.9537 146.956 90.0192 145.538 88.1492 144.25C86.0857 142.768 83.9577 141.286 82.2812 139.354C78.4121 134.908 77.4449 129.303 76.6711 123.376C76.5421 122.281 76.4131 121.185 76.2842 120.026C75.6393 114.421 75.2524 108.494 74.801 102.76C74.5431 99.1518 74.2852 95.3506 73.9628 91.7428C73.7048 88.9081 73.3824 85.4291 71.19 83.0453C66.5471 77.8912 57.7774 80.5971 54.2308 82.0145C53.5214 82.2722 52.8121 82.5943 52.1673 82.9164C51.4579 83.2386 50.8131 83.5607 50.1038 83.8828C46.0413 85.8156 41.8499 87.8128 37.8519 87.9417C36.3688 88.0061 35.0146 87.8772 33.6604 87.4907C31.9839 87.0397 30.3073 86.2666 28.5017 85.0425C25.9224 83.303 23.472 81.1125 20.8927 78.8576C17.475 75.8296 13.9284 72.6727 10.0594 70.6111C8.1249 69.5803 6.19039 68.8716 4.25587 68.4206C2.90172 68.1629 1.54756 68.0341 0.128917 67.9696L0.128917 67.3898C1.54756 67.4542 3.03068 67.5831 4.38484 67.8408C6.38384 68.2918 8.31835 69.0005 10.3173 70.0957C14.1864 72.1573 17.7975 75.3786 21.2796 78.4066C23.8589 80.6615 26.3093 82.852 28.8242 84.5915C30.5652 85.7512 32.1773 86.5243 33.7894 86.9753C35.0791 87.2974 36.3688 87.4263 37.7874 87.3618C41.6564 87.1686 45.7834 85.2358 49.7814 83.303C50.4907 82.9809 51.1355 82.6587 51.8449 82.3366C52.5542 82.0145 53.2635 81.6924 53.9728 81.4347C57.6484 80.0173 66.6761 77.247 71.5769 82.5943C73.8983 85.1069 74.2207 88.7148 74.4786 91.6139C74.801 95.2862 75.059 99.0229 75.3169 102.695C75.7038 108.365 76.1552 114.292 76.8 119.897C76.929 120.992 77.058 122.152 77.1869 123.247C77.8963 129.045 78.8635 134.586 82.6036 138.903C84.2157 140.771 86.3436 142.253 88.3426 143.67C90.2127 145.023 92.1472 146.376 93.7593 148.051C97.3059 151.723 98.5955 156.749 97.4993 163.062C97.2414 164.48 96.7255 165.833 96.2741 167.121C95.8227 168.281 95.3714 169.505 95.1134 170.793C94.92 171.889 94.8555 172.984 95.0489 173.95C95.1779 174.788 95.4358 175.496 95.8227 176.141C96.4676 177.107 97.3704 177.88 98.2731 178.589C98.4666 178.718 98.66 178.911 98.8535 179.04C100.981 180.779 102.723 182.905 104.077 185.418L103.561 185.418L103.561 185.547Z" fill="#CA8C88"></path><path d="M69.9647 170.149C70.0292 170.278 70.1581 170.471 70.2226 170.6C71.9637 173.628 72.4795 177.622 71.7057 182.132C71.5768 182.97 71.3833 183.807 71.1254 184.645C71.0609 184.967 70.9319 185.225 70.8674 185.482L70.2871 185.482C70.4161 185.16 70.545 184.838 70.6095 184.452C70.8674 183.614 71.0609 182.777 71.1899 182.003C71.9637 177.622 71.5123 173.757 69.7712 170.793C69.7067 170.664 69.5778 170.471 69.5133 170.342C69.1909 169.763 68.804 169.183 68.546 168.41C68.4171 167.894 68.2881 167.314 68.2881 166.734C68.2881 166.026 68.3526 165.188 68.4816 164.415C68.6105 163.642 68.8685 162.869 69.0619 162.16C69.3843 161.065 69.6423 160.034 69.7712 159.003C70.1581 154.816 69.0619 151.466 66.676 149.082C65.3863 147.793 63.8387 146.827 62.3556 145.861C61.1304 145.087 59.9052 144.25 58.809 143.348C55.7138 140.642 54.1662 137.292 53.0055 134.135C52.7475 133.426 52.4896 132.782 52.2961 132.073C51.1999 128.594 50.4906 124.793 49.7813 121.057C49.3299 118.608 48.814 116.096 48.2337 113.712C47.7178 111.65 47.1375 109.653 45.5898 108.3C42.0432 105.143 36.1752 106.432 32.0483 107.656C31.4679 107.849 30.8876 107.978 30.3717 108.171C26.5671 109.331 22.2467 110.426 19.0225 109.202C18.1843 108.88 17.346 108.429 16.5077 107.72C15.6049 107.012 14.8311 106.174 13.9928 105.272L13.5414 104.821C9.80138 100.891 4.83613 97.7344 0.322273 96.2526L0.322273 95.6728C5.02958 97.1545 10.1238 100.376 13.9928 104.435L14.4442 104.886C15.2825 105.788 16.0563 106.561 16.8946 107.269C17.7329 107.914 18.5067 108.365 19.2805 108.687C22.3757 109.846 26.5671 108.751 30.2427 107.656C30.8231 107.463 31.4034 107.334 31.9193 107.141C36.1752 105.852 42.2367 104.564 45.9767 107.914C47.6533 109.395 48.2337 111.457 48.7495 113.648C49.3299 116.031 49.8458 118.608 50.2972 121.057C51.0065 124.729 51.7158 128.594 52.812 132.009C53.0055 132.653 53.2634 133.362 53.5213 134.006C54.682 137.163 56.1652 140.384 59.1959 143.026C60.2276 143.928 61.4528 144.765 62.678 145.538C64.2256 146.505 65.7732 147.536 67.0629 148.889C69.6423 151.466 70.7385 154.945 70.3516 159.261C70.2226 160.421 69.9647 161.516 69.6423 162.547C69.4488 163.255 69.2554 164.029 69.0619 164.737C68.9329 165.51 68.8685 166.284 68.8685 166.928C68.8685 167.508 68.9974 168.023 69.1264 168.474C69.3198 168.989 69.6423 169.569 69.9647 170.149Z" fill="#CA8C88"></path><path d="M42.5592 159.519C41.4629 163.32 38.6901 166.477 36.4332 168.732C32.0483 173.177 28.0503 175.754 23.8589 176.914C19.345 178.138 13.1546 177.558 9.60798 173.435C9.28556 173.113 9.02763 172.726 8.70521 172.339C8.12486 171.566 7.5445 170.793 6.70622 170.213C4.83619 168.86 2.12787 169.311 0.19336 170.342L0.19336 169.698C2.25684 168.667 5.02964 168.345 7.09312 169.762C7.93141 170.342 8.57624 171.18 9.22108 172.017C9.47901 172.404 9.80143 172.726 10.0594 173.113C13.477 177.043 19.345 177.622 23.7299 176.398C27.8569 175.239 31.7904 172.726 36.0463 168.345C38.2388 166.09 40.9471 163.062 41.9788 159.325C43.075 155.589 42.1723 151.723 39.7219 149.468C38.1743 148.051 36.0463 147.342 33.9828 146.634C31.9838 145.925 29.8559 145.216 28.2438 143.863C26.6317 142.51 25.5999 140.578 24.5682 138.774C23.343 136.519 22.1178 134.328 19.9254 133.169C17.346 131.751 14.1863 132.267 11.1556 132.718C10.7042 132.782 10.2528 132.846 9.80144 132.911C7.60899 133.233 2.45029 133.555 0.193364 130.269L0.193364 129.11C0.257847 129.303 0.386815 129.496 0.515782 129.69C2.45029 132.975 7.60899 132.653 9.73695 132.331C10.1883 132.267 10.6397 132.202 11.0911 132.138C14.2508 131.687 17.475 131.171 20.2478 132.653C22.5692 133.877 23.8589 136.197 25.0841 138.451C26.0513 140.255 27.0831 142.059 28.6307 143.412C30.1783 144.701 32.2418 145.409 34.1763 146.118C36.3042 146.827 38.4322 147.6 40.1088 149.082C42.7526 151.466 43.7199 155.524 42.5592 159.519Z" fill="#CA8C88"></path></g></svg>