<svg xmlns="http://www.w3.org/2000/svg" viewBox="0 0 771 274" fill="none"><g clip-path="url(#clip0_244_833)"><path d="M31.9986 274C28.0453 270.416 24.0237 266.851 19.9488 263.29C14.1481 258.223 8.26384 253.175 2.39476 248.124C1.75616 247.577 1.32282 246.955 -1.19756e-06 246.603L-1.15998e-06 247.463C0.676615 247.956 1.42165 248.43 2.02224 248.938C11.8066 257.249 21.4312 265.586 30.691 274L31.9986 274Z" fill="#C94938"></path><path d="M78.6481 225.969C62.6374 214.135 45.9273 202.481 29.0119 190.88C26.9821 189.49 25.4312 188.045 24.2908 186.475C17.479 177.064 10.2947 167.71 2.16013 158.489C1.62036 157.874 1.35427 157.179 0.00103957 156.747L0.00103964 158.47C1.49872 160.113 3.08002 161.749 4.48647 163.407C10.2035 170.144 15.4036 176.957 20.482 183.789C20.8697 184.316 21.0826 184.866 21.3715 185.405C20.7785 185.084 20.1247 184.778 19.6153 184.438C13.9591 180.667 8.3333 176.888 2.66189 173.124C1.88644 172.612 0.890524 172.157 -0.0065622 171.68L-0.00656217 172.539C0.677656 172.914 1.4379 173.265 2.03089 173.663C8.77424 178.168 15.4796 182.684 22.2153 187.189C23.2493 187.881 24.0019 188.611 24.5721 189.394C32.8207 200.716 39.7085 212.183 44.7945 223.841C47.4554 229.943 49.9642 236.061 52.511 242.174C53.0584 243.489 53.4765 244.818 53.925 246.141C54.0163 246.419 54.0011 246.706 54.0391 246.996C52.8531 246.974 52.7847 246.557 52.4502 246.297C48.9607 243.577 45.5396 240.837 42.0577 238.112C29.4224 228.22 16.6047 218.373 3.24728 208.656C2.30458 207.972 1.71919 207.154 -0.0141631 206.703L-0.0141631 207.563C0.601633 207.896 1.32386 208.197 1.81042 208.56C9.33682 214.154 16.924 219.733 24.306 225.358C32.1745 231.361 39.853 237.413 47.5998 243.447C49.6449 245.04 51.5987 246.653 53.6286 248.25C54.442 248.888 55.0198 249.557 55.2099 250.279C55.742 252.323 56.3046 254.363 56.7455 256.412C57.3918 259.411 57.9847 262.414 58.5169 265.418C58.8514 267.279 59.0871 269.139 59.2772 271.004C59.376 272.005 59.4748 273.003 59.5584 274.004L61.2842 274.004C61.155 272.605 61.0181 271.203 60.8585 269.804C60.4099 265.842 59.6193 261.887 58.9198 257.928C58.6842 256.595 58.228 255.269 57.9011 253.939C57.7643 253.378 57.7111 252.816 57.5742 251.952C58.3116 252.304 58.6386 252.415 58.821 252.56C60.5392 253.955 62.2725 255.345 63.9222 256.759C70.6352 262.506 77.3861 268.245 84.0383 274.007L85.3459 274.007C76.5499 266.274 67.4346 258.609 58.1672 250.974C57.3309 250.286 56.7303 249.583 56.4567 248.815C54.8449 244.28 53.4157 239.729 51.5227 235.212C48.8998 228.957 46.0413 222.717 43.0612 216.489C39.3208 208.664 34.5161 200.949 29.1792 193.299C28.7762 192.718 28.4721 192.122 28.1224 191.534C28.8522 191.935 29.6733 192.31 30.2967 192.737C50.2531 206.451 69.7305 220.291 88.4705 234.318C105.918 247.356 122.59 260.573 138.342 274L139.703 274C136.632 271.382 133.522 268.773 130.383 266.17C113.977 252.571 96.5671 239.213 78.6557 225.973L78.6481 225.969ZM21.4931 185.55C21.4931 185.55 21.4627 185.512 21.4551 185.489C21.5159 185.527 21.5843 185.569 21.6451 185.607C21.5919 185.588 21.5159 185.573 21.4855 185.546L21.4931 185.55Z" fill="#C94938"></path><path d="M767.814 12.8272C768.833 13.4462 769.935 14.0385 771 14.6422L771 12.9189C770.202 12.5292 769.327 12.1624 768.628 11.742C763.017 8.35277 757.445 4.95203 751.834 1.56276C750.937 1.02017 749.888 0.519606 748.915 0.00376502L746.908 0.00376511C747.736 0.557817 748.519 1.12717 749.409 1.66594C755.529 5.39146 761.672 9.11315 767.822 12.831L767.814 12.8272Z" fill="#C94938"></path><path d="M721.227 0.221552C728.913 3.19433 736.622 6.15565 744.3 9.13225C752.306 12.2388 760.281 15.3567 768.286 18.4671C769.092 18.7804 769.761 19.1969 771 19.2351L771 18.3754C760.38 14.2486 749.766 10.1181 739.131 5.99898C733.938 3.98911 728.7 1.99833 723.477 -7.64109e-05L720.801 -7.62939e-05C720.938 0.072525 721.06 0.156593 721.227 0.221552Z" fill="#C94938"></path><path d="M47.9716 17.1068C70.0414 27.309 92.1188 37.5036 114.189 47.7058C122.46 51.5269 130.739 55.3402 138.957 59.1804C140.227 59.7727 141.383 60.4337 142.333 61.1253C158.085 72.577 173.206 84.1815 186.784 96.1376C194.402 102.844 201.723 109.607 209.158 116.347C209.523 116.68 209.797 117.031 210.101 117.375C209.227 117.031 208.276 116.718 207.501 116.336C186.024 105.839 164.631 95.3123 143.093 84.8388C126.125 76.5891 109.004 68.3968 91.9288 60.193C77.5982 53.3074 63.2372 46.4296 48.8763 39.5555C36.3019 33.5373 23.7046 27.523 11.1226 21.5087C8.29451 20.156 5.48922 18.7919 2.63831 17.4469C1.81725 17.061 0.874546 16.7247 -0.00733548 16.3655L-0.00733544 17.2253C1.0418 17.6494 2.15936 18.043 3.11726 18.5015C14.4449 23.9121 25.7421 29.3304 37.0469 34.7486C55.498 43.5867 73.9643 52.4171 92.3925 61.2629C107.704 68.6108 123.046 75.9434 138.228 83.3371C162.335 95.0754 186.313 106.859 210.367 118.613C212.23 119.522 213.628 120.524 214.807 121.624C231.388 137.118 245.11 153.083 257.373 169.288C257.616 169.605 257.806 169.93 258.011 170.251C258.034 170.285 257.935 170.335 257.852 170.419C256.932 170.304 256.582 169.934 256.073 169.658C243.833 163.079 231.646 156.48 219.376 149.907C196.926 137.886 174.027 126.018 150.901 114.238C126.406 101.762 101.774 89.3361 77.0813 76.933C58.0372 67.3651 38.803 57.8698 19.6449 48.3439C13.9659 45.5202 8.28691 42.6926 2.58509 39.8765C1.78684 39.4829 0.866944 39.1313 0.000267923 38.7607L0.000267961 39.6204C0.950571 40.0178 1.9769 40.3885 2.84358 40.8203C21.4999 50.0901 40.1867 59.3524 58.767 68.6528C84.2351 81.4075 109.756 94.1392 134.989 106.978C157.279 118.315 179.364 129.728 201.244 141.211C219.665 150.878 237.66 160.694 255.845 170.446C256.468 170.782 257.053 171.133 257.715 171.458C259.281 172.23 260.247 173.117 260.984 174.087C270.365 186.471 277.953 199.054 283.73 211.839C284.962 214.556 286.201 217.269 287.516 220.15C286.33 219.917 286.004 219.561 285.547 219.282C277.063 214.063 268.7 208.805 260.094 203.628C237.363 189.956 214.115 176.448 190.319 163.109C160.358 146.316 129.743 129.74 98.7558 113.294C80.738 103.734 62.515 94.2386 44.4136 84.705C43.2961 84.1166 42.285 83.4747 41.4183 82.8136C28.8363 73.1158 15.8893 63.5097 2.64591 53.9723C1.92368 53.4527 1.45233 52.8222 0.000268525 52.5394L0.000268588 53.9761C0.494426 54.2283 1.07981 54.4576 1.45993 54.7403C12.4606 62.8639 23.4309 70.9951 34.4088 79.1263C34.5609 79.2371 34.6521 79.3632 34.7586 79.4817C33.9147 79.1225 33.01 78.7901 32.2574 78.4003C22.4502 73.3298 12.6659 68.2478 2.85878 63.1772C2.02251 62.7416 1.3535 62.2182 0.000268939 62.0118L0.000268965 62.585C5.49682 65.4126 11.001 68.2363 16.4823 71.0677C23.1725 74.5296 29.7942 78.0106 36.5223 81.4572C38.689 82.5653 40.4756 83.7574 42.0873 85.0222C53.0424 93.6234 63.3741 102.362 73.0824 111.238C84.7749 121.926 96.2014 132.671 106.609 143.603C107.179 144.203 107.909 144.787 107.757 145.525C107.141 145.208 106.495 144.898 105.91 144.569C93.6545 137.695 81.5059 130.783 69.1443 123.947C49.264 112.954 29.2468 102.007 9.28283 91.0403C7.01731 89.7985 4.75179 88.5528 2.44825 87.3225C1.77164 86.9633 1.26227 86.4933 0.000270006 86.4131L0.000270031 86.9862C0.81373 87.376 1.68041 87.7504 2.43305 88.1631C22.6403 99.2403 42.9236 110.291 63.0092 121.41C78.5865 130.03 93.8978 138.739 109.338 147.405C110.57 148.096 111.49 148.845 112.22 149.655C120.537 158.944 127.903 168.375 134.974 177.851C140.478 185.229 145.693 192.646 150.087 200.162C150.65 201.125 151.182 202.092 151.844 203.268C150.475 202.86 150.027 202.42 149.434 202.042C142.204 197.441 135.012 192.829 127.774 188.229C112.547 178.554 96.8248 169.028 81.0725 159.51C55.6348 144.138 29.5433 128.972 3.27692 113.863C2.2886 113.294 1.10262 112.786 0.00787356 112.251L0.0078736 113.111C0.958177 113.573 2.00731 114.005 2.85878 114.498C18.3069 123.458 33.7778 132.407 49.1347 141.394C69.3724 153.236 89.2223 165.195 108.692 177.27C123.023 186.158 136.988 195.153 151.152 204.09C152.429 204.896 153.265 205.752 153.767 206.7C157.287 213.367 160.389 220.07 163.156 226.802C164.958 231.177 166.661 235.564 168.242 239.954C169.177 242.553 169.861 245.166 170.553 247.776C171.23 250.336 171.785 252.904 172.4 255.51C171.397 255.563 171.344 255.197 171.093 255.009C166.904 251.849 162.814 248.666 158.587 245.518C145.442 235.74 131.978 226.046 118.074 216.466C107.704 209.325 97.1137 202.237 86.5387 195.149C70.6192 184.473 54.1523 173.953 37.4802 163.487C25.9702 156.262 14.3232 149.078 2.70674 141.883C1.9693 141.429 1.47514 140.844 0.0154772 140.672L0.0154773 141.245C2.55469 142.758 5.15472 144.256 7.6179 145.792C19.6906 153.32 31.748 160.851 43.7598 168.398C68.2853 183.808 92.0124 199.447 114.964 215.297C134.32 228.667 153.189 242.167 170.926 255.949C171.975 256.763 172.758 257.573 172.826 258.509C172.872 259.083 173.077 259.652 173.138 260.225C173.465 263.186 173.853 266.148 174.058 269.113C174.172 270.741 174.293 272.372 174.408 274L176.43 274C176.331 272.64 176.217 271.279 176.072 269.919C175.768 267.103 175.35 264.287 175.008 261.467C174.932 260.871 174.704 260.263 175.137 259.449C175.761 259.843 176.148 260.053 176.445 260.286C182.268 264.833 187.985 269.403 193.581 274L194.866 274C189.255 269.449 183.546 264.917 177.905 260.37C177.38 259.95 176.886 259.518 176.293 259.113C174.833 258.116 174.293 257.038 174.111 255.858C173.723 253.236 173.069 250.619 172.4 248.009C171.762 245.541 171.055 243.072 170.219 240.612C169.078 237.253 167.961 233.894 166.539 230.555C163.833 224.208 160.928 217.876 158.085 211.541C157.523 210.284 156.838 209.034 156.572 207.708C157.196 208.083 157.865 208.45 158.442 208.836C169.223 216.096 180.033 223.348 190.76 230.623C209.47 243.321 226.933 256.335 243.955 269.457C245.908 270.966 247.839 272.483 249.755 274L251.086 274C232.034 258.922 212.047 244.07 190.677 229.569C179.357 221.888 167.892 214.242 156.473 206.589C155.63 206.02 154.945 205.443 154.58 204.774C148.035 192.696 139.444 180.877 130.26 169.131C126.079 163.782 121.609 158.474 117.275 153.148C116.888 152.67 116.287 152.212 116.219 151.409C117.062 151.868 117.549 152.112 117.998 152.372C136.852 163.231 155.637 174.106 173.86 185.164C192.661 196.57 211.317 208.018 229.198 219.695C248.121 232.049 266.762 244.478 284.187 257.237C288.862 260.661 293.507 264.096 298.228 267.512C299.293 268.28 299.764 269.059 299.787 269.953C299.825 271.306 299.916 272.655 300.007 274.008L301.566 274.008C301.566 273.748 301.551 273.488 301.543 273.228C301.52 272.292 301.436 271.36 301.893 270.378C302.288 270.645 302.714 270.905 303.071 271.184C304.272 272.124 305.481 273.068 306.69 274.008L308.187 274.008C306.401 272.636 304.607 271.268 302.774 269.908C301.733 269.136 301.322 268.345 301.239 267.462C300.843 263.305 300.456 259.147 299.832 254.998C299.072 249.943 298.122 244.887 296.51 239.866C294.997 235.132 293.157 230.417 291.47 225.694C291.272 225.152 291.128 224.605 290.96 224.059C291.097 224.04 291.234 224.017 291.371 223.998C291.819 224.254 292.298 224.498 292.724 224.762C308.598 234.765 323.947 244.914 338.696 255.231C347.583 261.452 356.455 267.672 364.894 274.008L366.3 274.008C359.435 268.872 352.388 263.779 345.181 258.727C328.189 246.809 310.696 235.029 292.222 223.524C290.664 222.553 289.751 221.529 289.265 220.375C283.039 205.637 275.413 191.041 264.732 176.766C264.299 176.185 263.934 175.593 263.888 174.916C264.223 175.081 264.58 175.237 264.892 175.409C289.774 189.287 314.49 203.223 338.012 217.536C351.628 225.824 365.289 234.104 378.221 242.595C393.897 252.889 409.459 263.209 423.942 273.82C424.026 273.881 424.109 273.946 424.193 274.008L425.516 274.008C420.126 270.087 414.751 266.167 409.148 262.304C389.822 248.98 369.744 235.87 348.663 223.042C328.874 210.998 308.689 199.081 287.843 187.369C280.058 182.998 272.281 178.626 264.428 174.274C262.694 173.315 261.402 172.306 260.528 171.141C254.431 163.04 248.098 154.974 241.18 146.996C234.451 139.239 227.085 131.597 219.216 124.039C218.775 123.615 218.388 123.179 218.312 122.644C218.889 122.904 219.49 123.152 220.03 123.42C244.768 135.686 269.058 148.108 293.066 160.637C322.252 175.86 350.837 191.289 378.358 207.074C394.657 216.42 410.775 225.824 426.322 235.403C428.275 236.611 429.674 237.815 429.887 239.324C430.26 241.945 431.027 244.559 431.56 247.176C431.985 249.27 432.297 251.372 432.654 253.469C432.723 253.852 432.784 254.234 432.814 254.616C433.126 257.864 433.331 261.115 433.764 264.363C434.198 267.577 434.274 270.794 434.312 274.008L435.916 274.008C435.901 272.514 435.855 271.016 435.771 269.522C435.551 265.697 435.079 261.876 434.677 258.055C434.448 255.903 434.228 253.756 433.871 251.609C433.323 248.368 432.654 245.128 432.031 241.888C431.848 240.94 431.628 239.996 431.43 239.049C431.598 239.026 431.765 239.003 431.932 238.976C432.32 239.202 432.715 239.427 433.088 239.656C448.498 249.392 463.855 259.147 478.124 269.201C480.398 270.802 482.655 272.403 484.913 274.008L486.457 274.008C469.929 262.2 452.223 250.718 434.152 239.335C433.65 239.018 433.179 238.693 432.639 238.392C431.309 237.65 430.731 236.821 430.465 235.881C429.621 232.939 428.655 230.004 427.576 227.077C424.619 219.099 420.985 211.17 417.123 203.265C415.572 200.085 413.831 196.918 412.181 193.746C412.067 193.521 411.976 193.295 411.869 193.07C412.059 193.028 412.249 192.99 412.439 192.948C412.949 193.188 413.489 193.418 413.952 193.67C437.527 206.528 460.882 219.458 483.043 232.775C499.176 242.469 515.103 252.224 530.133 262.239C535.986 266.14 541.757 270.06 547.436 274.008L549.002 274.008C539.043 267.049 528.795 260.172 518.128 253.401C494.143 238.181 469.237 223.245 442.963 208.733C432.768 203.104 422.551 197.487 412.295 191.878C411.17 191.263 410.349 190.613 409.915 189.857C403.712 179.127 395.775 168.623 387.435 158.169C384.006 153.87 380.41 149.598 376.89 145.315C376.526 144.871 376.176 144.424 375.819 143.977C376.83 143.736 377.103 144.111 377.468 144.283C381.87 146.381 386.264 148.482 390.605 150.599C415.648 162.811 440.371 175.142 464.44 187.705C490.425 201.266 515.969 214.98 540.191 229.137C550.347 235.075 560.307 241.078 570.349 247.05C570.935 247.398 571.475 247.765 572.083 248.105C572.995 248.617 573.383 249.186 573.451 249.832C573.915 254.276 574.394 258.716 574.957 263.156C575.413 266.77 575.565 270.385 575.58 274L577.062 274C577.062 271.81 577.04 269.621 576.956 267.435C576.827 263.993 576.287 260.554 575.899 257.115C575.679 255.109 575.397 253.103 575.147 251.097C575.124 250.909 575.147 250.718 575.147 250.508C576.31 250.432 576.5 250.833 576.88 251.07C582.992 254.956 589.196 258.819 595.156 262.747C600.828 266.484 606.461 270.229 612.011 273.996L613.6 273.996C610.718 272.04 607.814 270.087 604.91 268.135C595.719 261.967 586.406 255.838 576.561 249.858C575.268 249.075 574.706 248.246 574.538 247.325C574.295 245.992 574.052 244.658 573.816 243.321C572.949 238.456 571.573 233.619 569.954 228.789C567.263 220.742 563.644 212.764 559.782 204.808C559.607 204.441 559.493 204.067 559.333 203.658C560.398 203.685 560.664 204.044 561.112 204.277C577.579 212.901 593.324 221.766 609.008 230.654C633.586 244.585 656.599 258.979 678.638 273.664C678.806 273.774 678.965 273.885 679.133 273.996L680.858 273.996C660.651 260.496 639.737 247.203 617.302 234.353C600.318 224.628 583.243 214.934 565.385 205.496C563.629 204.568 561.918 203.624 560.086 202.718C558.801 202.08 558.102 201.362 557.676 200.552C555.601 196.585 553.54 192.619 551.313 188.668C545.961 179.181 539.294 169.857 531.957 160.618C530.3 158.535 528.604 156.461 526.932 154.382C526.689 154.076 526.499 153.767 526.278 153.453C527.327 153.331 527.609 153.656 528.004 153.839C534.763 157.022 541.513 160.209 548.234 163.407C573.542 175.459 598.06 187.805 622.282 200.257C639.075 208.893 655.177 217.762 671.188 226.661C686.659 235.262 701.681 243.997 716.02 252.95C719.859 255.349 719.083 254.547 719.38 257.294C719.737 260.638 720.231 263.981 720.482 267.325C720.649 269.545 720.642 271.765 720.68 273.988L722.398 273.988C722.352 271.474 722.253 268.964 722.139 266.449C722.01 263.538 721.47 260.626 721.128 257.715C721.083 257.336 721.128 256.958 721.128 256.526C722.231 256.626 722.542 257.015 722.999 257.31C731.232 262.594 739.625 267.837 747.615 273.19C748.01 273.453 748.391 273.721 748.778 273.985L750.649 273.985C742.081 268.196 733.209 262.495 724.139 256.843C723.949 256.725 723.759 256.606 723.569 256.488C721.714 255.321 720.672 254.045 720.444 252.659C719.92 249.419 719.593 246.167 718.848 242.939C717.798 238.376 716.559 233.822 715.183 229.274C712.902 221.739 709.504 214.285 705.802 206.853C705.756 206.768 705.855 206.673 705.901 206.528C706.843 206.646 707.224 207.005 707.733 207.281C718.224 212.924 728.738 218.56 739.154 224.227C749.227 229.71 758.95 235.304 768.476 240.963C769.252 241.425 770.172 241.838 771.031 242.274L771.031 241.124C770.445 240.841 769.791 240.577 769.274 240.271C749.455 228.464 728.267 217.108 706.957 205.798C705.445 204.996 704.456 204.151 703.954 203.135C700.556 196.257 696.846 189.413 692.657 182.616C686.758 173.04 679.634 163.625 671.842 154.302C671.317 153.671 670.823 153.041 670.321 152.406C670.298 152.376 670.39 152.322 670.527 152.181C670.968 152.334 671.401 152.448 671.728 152.601C682.766 157.802 693.858 162.979 704.806 168.214C716.27 173.697 727.704 179.2 738.948 184.767C748.877 189.685 758.54 194.702 768.324 199.673C769.183 200.108 770.126 200.513 771.031 200.934L771.031 199.784C770.255 199.447 769.404 199.134 768.704 198.767C749.835 188.943 730.388 179.333 710.493 169.892C697.029 163.503 683.496 157.141 669.949 150.79C668.542 150.129 667.698 149.388 666.984 148.578C661.13 141.96 655.367 135.326 649.323 128.743C641.767 120.504 633.305 112.434 624.281 104.475C619.796 100.517 615.211 96.5847 610.68 92.6337C610.209 92.2248 609.57 91.8389 609.357 91.2161C610.825 91.4988 611.562 91.923 612.398 92.2783C623.452 96.94 634.59 101.567 645.515 106.286C665.091 114.738 684.614 123.21 704.008 131.735C723.325 140.225 742.149 148.922 760.821 157.676C763.383 158.875 765.922 160.083 768.522 161.267C769.267 161.607 770.187 161.875 771.031 162.173L771.031 161.313C767.762 159.812 764.477 158.31 761.216 156.804C749.98 151.619 738.85 146.388 727.484 141.257C714.043 135.189 700.526 129.148 686.811 123.191C664.635 113.558 642.268 104.005 619.97 94.4258C616.428 92.9012 612.824 91.4033 609.145 89.936C606.818 89.0113 605.077 87.9453 603.618 86.7378C596.593 80.9184 589.553 75.1065 582.331 69.3329C570.942 60.2273 558.733 51.3205 545.908 42.5703C534.93 35.081 523.762 27.6376 512.685 20.1751C512.16 19.8197 511.644 19.4644 511.096 19.0899C511.948 18.9638 512.221 19.2275 512.579 19.3688C531.683 26.8543 550.857 34.3053 569.84 41.8443C591.028 50.262 612.064 58.7562 633.123 67.2352C661.016 78.4652 688.537 89.8596 715.609 101.453C727.051 106.355 738.553 111.231 749.972 116.141C756.115 118.781 762.143 121.471 768.256 124.131C769.1 124.501 770.096 124.807 771.015 125.143L771.015 124.283C748.581 114.628 726.222 104.937 703.681 95.3275C681.687 85.9545 659.283 76.761 636.703 67.6478C617.781 60.0096 598.912 52.3483 579.837 44.7788C558.148 36.17 536.253 27.6567 514.441 19.1014C512.138 18.1958 509.789 17.3131 507.531 16.3884C506.573 15.9949 505.66 15.5631 504.915 15.0969C497.381 10.3512 489.893 5.59779 482.397 0.840586C481.964 0.56547 481.614 0.26359 481.226 -0.0230008L479.219 -0.0230007C479.66 0.35148 480.017 0.752695 480.565 1.09657C486.206 4.65779 491.877 8.20756 497.533 11.7611C498.02 12.0668 498.461 12.3878 498.932 12.7087C498.697 12.7584 498.605 12.7928 498.514 12.7928C498.415 12.7928 498.286 12.7775 498.21 12.747C487.194 8.49034 476.178 4.23365 465.17 -0.0230001L462.494 -0.023C475.828 5.12779 489.178 10.2748 502.49 15.4408C503.714 15.9146 504.824 16.4763 505.714 17.0724C517.725 25.0737 529.76 33.0635 541.643 41.0992C552.21 48.2483 562.306 55.5198 572.007 62.8906C581.654 70.2194 590.846 77.6552 599.771 85.1483C600.105 85.4272 600.752 85.6756 600.349 86.157C599.467 85.8208 598.63 85.5304 597.855 85.2094C587.242 80.8343 576.697 76.4324 566.024 72.0879C546.371 64.0904 526.704 56.0968 506.938 48.1528C487.331 40.2738 467.633 32.433 447.874 24.6228C427.872 16.7171 407.741 8.86479 387.663 0.993422C386.758 0.638075 385.793 0.317091 384.85 -0.0229966L382.843 -0.0229965C385.428 1.02397 387.99 2.08241 390.613 3.11412C411.489 11.3217 432.449 19.4949 453.249 27.737C476.262 36.8578 499.168 46.0245 522.051 55.2065C535.082 60.4337 548.006 65.7105 560.907 70.9951C574.379 76.5088 587.751 82.0685 601.208 87.5899C603.253 88.4305 604.849 89.3667 606.119 90.4519C616.937 99.6797 627.656 108.927 637.312 118.395C645.309 126.24 652.669 134.191 659.655 142.212C660.94 143.691 662.225 145.169 663.494 146.648C663.791 146.996 664.042 147.351 664.338 147.726C663.129 147.844 662.803 147.47 662.324 147.256C658.621 145.597 654.987 143.912 651.277 142.258C636.285 135.571 621.286 128.884 606.263 122.209C581.168 111.059 555.418 100.188 529.684 89.3132C514.358 82.8327 498.917 76.4019 483.393 70.0093C461.346 60.9381 439.192 51.9127 417.039 42.8874C405.879 38.3442 394.642 33.8354 383.398 29.3265C381.505 28.5661 379.916 27.7293 378.51 26.8008C368.961 20.5075 359.397 14.2219 349.757 7.95537C346.2 5.63982 342.436 3.38158 338.742 1.10423C338.111 0.714493 337.365 0.351487 336.674 -0.0229945L335.336 -0.0229944C335.336 0.504319 336.263 0.829117 336.887 1.20741C348.404 8.24962 359.534 15.4064 370.398 22.6358C371.485 23.358 372.565 24.084 373.637 24.81C373.903 24.9934 374.116 25.1922 374.002 25.4978C373.523 25.3182 373.036 25.1463 372.572 24.9629C361.746 20.6222 350.928 16.2776 340.095 11.9407C330.888 8.25725 321.659 4.58138 312.437 0.905534C311.624 0.580736 310.749 0.282701 309.906 -0.026808L307.898 -0.0268079C310.727 1.12334 313.532 2.28493 316.375 3.4236C336.674 11.5548 356.972 19.686 377.286 27.8057C378.601 28.333 379.757 28.8986 380.699 29.5596C392.992 38.1646 405.422 46.7352 417.571 55.3823C429.15 63.6166 439.861 72.065 450.109 80.6203C454.131 83.9828 458.084 87.3607 462.053 90.7308C462.547 91.1473 462.973 91.5829 463.429 92.007C462.6 92.2057 462.304 91.9459 461.954 91.8007C458.913 90.5321 455.895 89.2559 452.877 87.9835C430.754 78.6639 408.729 69.3024 386.492 60.0325C362.256 49.9296 337.867 39.8955 313.486 29.8577C294.495 22.0398 275.406 14.2639 256.346 6.47664C251.017 4.29863 245.65 2.13973 240.298 -0.0268049L238.291 -0.0268048C242.54 1.73089 246.775 3.50005 251.048 5.24627C265.006 10.9587 279.002 16.6559 292.952 22.3798C309.715 29.2577 326.486 36.1356 343.174 43.0479C365 52.0885 386.804 61.1368 408.517 70.2271C427.112 78.0144 445.556 85.8666 464.106 93.6768C465.968 94.4602 467.405 95.3275 468.553 96.3325C478.603 105.194 488.54 114.074 497.541 123.145C505.584 131.245 512.89 139.465 519.816 147.752C520.105 148.1 520.31 148.463 520.538 148.807C519.694 149.032 519.383 148.769 519.056 148.616C515.863 147.145 512.723 145.655 509.522 144.187C496.568 138.249 483.697 132.273 470.606 126.393C450.429 117.325 430.229 108.266 409.779 99.3129C386.758 89.2291 363.51 79.2409 340.247 69.2565C319.819 60.4948 299.27 51.7828 278.713 43.0785C262.276 36.1203 245.756 29.2042 229.244 22.2805C227.313 21.4704 225.663 20.5878 224.188 19.6211C214.062 12.9724 203.555 6.43459 192.79 -0.0268029L190.783 -0.0268028C196.181 3.30132 201.601 6.618 206.969 9.9576C210.504 12.1547 213.955 14.3786 217.445 16.5948C217.817 16.8317 218.152 17.0762 218.517 17.3208C217.764 17.5882 217.46 17.2864 217.148 17.1565C213.461 15.6357 209.789 14.1073 206.14 12.5712C197.169 8.79601 188.206 5.01699 179.235 1.24178C178.201 0.81002 177.129 0.397331 176.072 -0.0268021L174.065 -0.026802C190.145 6.73647 206.216 13.4997 222.318 20.2553C223.922 20.9278 225.306 21.6615 226.53 22.4715C244.722 34.5117 262.048 46.7811 279.04 59.1384C289.409 66.6773 299.3 74.3271 308.72 82.0914C309.442 82.6837 310.134 83.2798 310.833 83.8682C310.21 84.1089 310.004 83.8491 309.723 83.7498C309.373 83.6313 309.092 83.4823 308.78 83.3447C296.487 77.9341 284.255 72.4968 271.886 67.1129C240.26 53.3533 208.596 39.6166 176.916 25.88C157.469 17.4469 137.984 9.03292 118.514 0.611323C118.043 0.408808 117.617 0.18719 117.176 -0.0229849L115.169 -0.0229848C115.595 0.194819 115.998 0.424098 116.462 0.622798C139.011 10.3703 161.582 20.1063 184.116 29.8615C203.198 38.1188 222.28 46.376 241.294 54.6639C262.101 63.7351 282.826 72.8445 303.573 81.9386C306.462 83.2034 309.275 84.4987 312.179 85.7558C313.532 86.3404 314.604 86.99 315.448 87.7313C322.077 93.5813 328.881 99.397 335.351 105.281C342.201 111.51 348.906 117.769 355.368 124.073C360.127 128.712 364.392 133.443 368.87 138.135C369.235 138.521 369.547 138.918 369.904 139.327C368.832 139.384 368.604 139.067 368.193 138.876C349.431 130.027 330.797 121.131 311.89 112.339C291.933 103.054 271.749 93.8526 251.603 84.6439C239.697 79.2027 227.701 73.7959 215.681 68.3968C195.269 59.2262 174.826 50.071 154.368 40.9196C138.007 33.5985 121.601 26.2926 105.225 18.9753C91.6323 12.8998 78.0544 6.82052 64.4764 0.737424C63.9367 0.496701 63.4653 0.233029 62.9559 -0.0229825L60.9489 -0.0229824C63.7086 1.2265 66.4531 2.47982 69.2356 3.72165C87.7779 11.998 106.343 20.2706 124.878 28.5509C146.195 38.0729 167.52 47.595 188.806 57.1323C201.533 62.8333 214.221 68.5496 226.864 74.285C245.331 82.6608 263.82 91.025 282.149 99.4581C300.935 108.098 319.591 116.79 338.202 125.499C348.754 130.435 359.101 135.449 369.569 140.416C371.166 141.173 372.367 142.002 373.181 142.965C383.383 155.012 393.198 167.114 401.621 179.414C403.537 182.211 405.27 185.031 407.057 187.847C407.247 188.149 407.285 188.469 407.422 188.859C406.091 188.691 405.658 188.275 405.05 187.957C396.923 183.701 388.819 179.437 380.699 175.184C362.682 165.746 344.352 156.419 325.688 147.214C309.297 139.128 292.884 131.051 276.364 123.015C264.116 117.062 251.762 111.147 239.302 105.274C212.876 92.8209 186.359 80.4102 159.872 67.9841C155.204 65.7947 150.521 63.6128 145.792 61.4501C144.104 60.6782 142.683 59.8376 141.436 58.9206C123.334 45.673 104.792 32.54 84.6533 19.8389C74.8081 13.6297 64.7121 7.49304 54.7149 1.32971C53.9547 0.859708 53.0652 0.43173 52.2365 -0.0191368L50.2295 -0.0191367C58.3717 4.94439 66.5899 9.89267 74.6561 14.8791C96.0721 28.1267 115.899 41.8061 134.974 55.6918C135.399 56.0051 135.78 56.3261 135.802 56.7693C135.278 56.5515 134.73 56.3414 134.236 56.1121C120.21 49.6278 106.191 43.1396 92.1645 36.6591C71.6911 27.1982 51.2102 17.7411 30.7293 8.28018C24.7386 5.51376 18.7402 2.74728 12.7495 -0.0191351L11.4115 -0.019135C11.784 0.210113 12.1033 0.46231 12.5443 0.66864C24.3584 6.14419 36.1726 11.6198 48.002 17.0877L47.9716 17.1068ZM286.186 220.616C287.668 221.556 288.588 222.527 288.991 223.638C290.679 228.266 292.542 232.885 294.123 237.52C295.088 240.356 295.689 243.218 296.404 246.068C297.43 250.157 298.107 254.26 298.548 258.368C298.829 260.997 299.209 263.622 299.543 266.247C299.574 266.484 299.543 266.721 299.543 266.962C298.532 267.038 298.57 266.641 298.198 266.453C297.84 266.274 297.612 266.048 297.331 265.842C291.622 261.677 285.943 257.504 280.203 253.347C267.355 244.043 253.792 234.933 240.062 225.866C209.979 206 178.262 186.624 145.617 167.519C135.597 161.653 125.471 155.819 115.375 149.98C114.166 149.285 113.178 148.555 112.44 147.741C103.621 138.02 93.7002 128.502 83.5965 119.018C74.3216 110.318 64.7197 101.682 54.4032 93.1992C52.0845 91.2925 49.7277 89.3935 47.3862 87.4906C47.5078 87.4409 47.6295 87.3912 47.7587 87.3377C49.1804 88.0676 50.6172 88.7936 52.0085 89.531C76.5187 102.5 101.166 115.426 125.486 128.46C144.157 138.471 162.548 148.582 180.824 158.726C195.618 166.942 210.192 175.233 224.606 183.571C245.665 195.752 266.359 208.049 286.186 220.608L286.186 220.616ZM470.066 95.3467C468.675 94.7658 467.701 94.0933 466.842 93.3597C460.259 87.7695 453.751 82.1602 447.008 76.6006C433.308 65.3094 418.339 54.3276 402.762 43.495C397.607 39.9108 392.415 36.342 387.253 32.7616C386.751 32.4139 386.325 32.0471 385.633 31.5083C387.23 31.7147 387.891 32.1082 388.659 32.4139C394.612 34.7944 400.564 37.1788 406.472 39.5822C425.637 47.3886 444.78 55.2065 463.938 63.0167C486.008 72.0153 507.934 81.075 529.532 90.2799C552.157 99.9243 574.903 109.515 597.254 119.278C619.127 128.834 640.596 138.567 662.172 148.249C667.592 150.679 666.094 149.732 668.694 152.815C674.883 160.144 680.721 167.526 685.853 175.004C691.494 183.219 696.215 191.53 700.533 199.887C701.012 200.815 701.468 201.748 701.94 202.676C701.773 202.726 701.598 202.775 701.43 202.829C700.853 202.55 700.252 202.279 699.705 201.992C681.558 192.47 662.666 183.227 643.758 173.988C623.164 163.919 602.052 154.049 580.674 144.283C561.972 135.739 543.247 127.203 524.089 118.846C508.838 112.194 493.565 105.553 478.307 98.9079C475.57 97.7157 472.871 96.5044 470.073 95.3352L470.066 95.3467ZM508.405 132.835C501.897 125.556 494.667 118.403 486.966 111.342C482.146 106.924 477.182 102.534 472.293 98.1322C471.868 97.7501 471.472 97.368 471.062 96.9821C471.161 96.9477 471.267 96.9133 471.366 96.8789C471.807 97.0585 472.263 97.2304 472.689 97.4138C495.344 107.314 518.136 117.157 540.594 127.138C558.87 135.258 576.842 143.507 594.784 151.768C627.474 166.823 659.093 182.287 689.981 198.022C693.858 199.998 697.629 202.011 701.491 203.994C702.518 204.522 703.194 205.087 703.498 205.767C705.855 211.025 708.379 216.268 710.607 221.537C712.074 225.014 713.26 228.518 714.347 232.026C715.29 235.056 715.981 238.105 716.658 241.15C717.342 244.196 717.89 247.245 718.467 250.294C718.642 251.188 718.696 252.082 718.68 253.038C717.434 252.896 717.16 252.499 716.673 252.208C709.094 247.654 701.727 243.03 693.919 238.548C681.983 231.686 669.812 224.899 657.633 218.117C634.75 205.381 610.505 193.127 586.124 180.923C568.122 171.913 549.709 163.067 531.03 154.313C529.524 153.606 528.095 152.869 526.521 152.192C524.902 151.497 523.883 150.687 523.093 149.77C518.242 144.115 513.422 138.456 508.397 132.831L508.405 132.835ZM318.01 87.4791C316.687 86.8907 315.516 86.2755 314.642 85.5342C300.418 73.4444 284.81 61.6832 268.419 50.113C257.015 42.0621 245.376 34.0723 233.843 26.0519C233.395 25.7385 232.992 25.4099 232.574 25.089C232.771 25.0317 232.969 24.9705 233.167 24.9132C234.375 25.3985 235.607 25.8761 236.785 26.3729C245.939 30.2283 255.092 34.0761 264.223 37.943C285.487 46.9492 306.827 55.9249 327.969 64.9884C356.045 77.0247 384.06 89.0916 411.907 101.227C429.743 108.999 447.35 116.871 464.835 124.784C483.476 133.221 501.852 141.761 520.363 150.248C521.99 150.993 523.161 151.814 523.952 152.792C530.125 160.377 536.169 167.977 541.483 175.68C546.516 182.971 550.819 190.346 554.65 197.766C555.053 198.553 555.449 199.34 555.928 200.292C554.559 199.952 553.966 199.501 553.236 199.123C543.832 194.266 534.565 189.36 525.024 184.553C511.355 177.671 497.564 170.835 483.697 164.03C465.938 155.314 447.935 146.69 429.629 138.184C405.582 127.008 381.482 115.847 356.927 104.873C343.949 99.076 330.987 93.2757 318.01 87.4829L318.01 87.4791ZM371.873 139.614C363.632 130.206 354.395 120.978 344.383 111.896C336.278 104.544 327.992 97.2343 319.789 89.9055C319.515 89.6609 319.272 89.4126 319.013 89.168C319.135 89.1298 319.249 89.0916 319.371 89.0572C319.827 89.2368 320.306 89.4088 320.731 89.6036C337.229 97.0012 353.749 104.387 370.208 111.8C379.126 115.82 387.975 119.866 396.794 123.928C423.334 136.14 449.684 148.429 475.41 160.958C496.271 171.118 517.041 181.313 537.127 191.756C542.874 194.744 548.584 197.747 554.377 200.72C555.988 201.549 557.03 202.432 557.547 203.505C561.211 211.14 564.777 218.778 567.529 226.485C569.148 231.025 570.562 235.572 571.513 240.145C571.824 241.62 572.242 243.091 572.547 244.57C572.714 245.376 572.729 246.186 572.813 246.989C571.543 247.084 571.391 246.66 570.988 246.42C564.07 242.308 557.197 238.181 550.279 234.07C535.006 224.991 519.177 216.092 502.977 207.315C485.119 197.636 467.101 188.015 448.521 178.588C424.976 166.64 401.272 154.753 376.875 143.125C374.671 142.074 373.021 140.947 371.858 139.621L371.873 139.614ZM150.962 64.7057C160.632 69.2068 170.333 73.7004 179.957 78.2207C201.153 88.1822 222.379 98.136 243.468 108.14C274.212 122.721 304.455 137.489 334.317 152.403C358.652 164.561 382.395 176.93 405.932 189.375C406.35 189.597 406.745 189.83 407.194 190.048C408.403 190.632 409.14 191.301 409.535 192.073C411.907 196.692 414.492 201.297 416.727 205.928C419.228 211.125 421.562 216.336 423.721 221.56C425.432 225.698 426.793 229.867 428.268 234.024C428.443 234.513 428.96 235.006 428.541 235.702C427.713 235.239 427.089 234.922 426.534 234.578C396.892 216.44 365.859 198.748 333.792 181.385C299.437 162.788 264.01 144.573 228.043 126.549C224.416 124.734 220.798 122.912 217.118 121.116C215.704 120.424 214.609 119.668 213.72 118.831C203.335 109.037 192.669 99.2976 181.272 89.7106C171.344 81.3578 160.738 73.1616 149.783 65.0534C149.251 64.6636 148.506 64.3006 148.346 63.5861C149.456 64.0523 150.255 64.3656 150.984 64.7018L150.962 64.7057Z" fill="#C94938"></path><path d="M585.767 15.0779C606.438 23.1021 627.056 31.1454 647.628 39.2116C659.48 43.858 671.226 48.5541 682.964 53.2502C694.299 57.782 705.566 62.3481 716.878 66.8951C718.11 67.3881 719.159 67.9307 719.972 68.5688C737.146 81.9807 753.872 95.4957 769.373 109.282C769.852 109.71 770.452 110.111 771 110.524L771 108.514C770.331 108.025 769.593 107.551 768.993 107.043C763.534 102.393 758.243 97.7043 752.632 93.0846C744.087 86.0539 735.322 79.069 726.67 72.0612C726.123 71.618 725.355 71.2053 725.15 70.6551C725.575 70.6742 725.849 70.6512 725.971 70.6971C727.141 71.1365 728.327 71.5721 729.445 72.0383C742.323 77.3954 755.179 82.7563 768.05 88.1173C769.008 88.5147 770.012 88.8929 770.992 89.2827L770.992 88.1326C770.232 87.8536 769.434 87.5938 768.719 87.2957C764.15 85.4005 759.611 83.49 755.042 81.5947C744.216 77.1088 733.383 72.6229 722.527 68.1485C721.219 67.6097 720.147 67.0212 719.265 66.3487C704.342 54.8512 688.24 43.6593 671.461 32.6471C657.07 23.1976 642.549 13.7825 627.557 4.50503C625.147 3.011 622.791 1.5055 620.403 0.00382674L617.727 0.00382685C619.727 1.21128 621.741 2.41491 623.71 3.63382C640.086 13.7176 655.892 23.958 671.53 34.2519C683.093 41.8634 694.329 49.559 705.049 57.3922C707.983 59.5358 710.872 61.6909 713.731 63.8536C713.974 64.037 714.742 64.2624 713.913 64.6063C713.313 64.3733 712.727 64.1593 712.172 63.9338C707.124 61.9087 702.099 59.8759 697.036 57.8584C678.334 50.4073 659.738 42.9104 640.877 35.5319C613.288 24.7413 585.501 14.0424 557.805 3.3014C555 2.21239 552.232 1.10429 549.45 0.00382984L546.774 0.00382996C546.964 0.118462 547.124 0.252197 547.359 0.343903C560.154 5.25777 573.01 10.1373 585.744 15.0817L585.767 15.0779Z" fill="#C94938"></path><path d="M637.836 1.67356C652.554 7.37839 667.356 13.0412 682.029 18.7651C701.894 26.518 721.683 34.3053 741.449 42.1003C750.222 45.5621 758.866 49.089 767.594 52.5738C768.635 52.9903 769.51 53.5138 771 53.6819L771 52.8221C766.043 50.8314 761.117 48.8215 756.122 46.8499C736.713 39.1772 717.342 31.4892 697.849 23.8586C680.166 16.9348 662.331 10.0837 644.571 3.19815C641.85 2.14354 639.174 1.06984 636.475 0.00376117L633.799 0.00376129C634.772 0.725941 636.452 1.13861 637.836 1.67738L637.836 1.67356Z" fill="#C94938"></path></g><defs><clipPath id="clip0_244_833"><rect width="274" height="771" fill="white" transform="translate(0 274) rotate(-90)"></rect></clipPath></defs></svg>