<svg xmlns="http://www.w3.org/2000/svg" viewBox="0 0 358 357" fill="none"><g opacity="0.9"><g style="mix-blend-mode:multiply" opacity="0.1"><path d="M182.558 357L182.037 312.616L181.742 268.254L181.493 179.485L181.742 90.717L182.037 46.3327L182.558 1.97107L183.079 46.3327L183.374 90.717L183.623 179.485L183.374 268.254L183.079 312.616L182.558 357Z" fill="#A4A4A4"></path><path d="M190.92 352.808L188.291 310.554L185.889 268.322L181.402 183.79L177.414 99.2358L175.601 56.9586L174.015 14.6814L176.643 56.9133L179.045 99.1679L183.51 183.677L187.498 268.231L189.311 310.509L190.92 352.808Z" fill="#A4A4A4"></path><path d="M199.259 348.594L194.523 308.515L190.013 268.39L181.311 188.095L173.108 107.777L169.165 67.5846L165.449 27.3691L170.185 67.4713L174.717 107.596L183.396 187.891L191.6 268.209L195.543 308.402L199.259 348.594Z" fill="#A4A4A4"></path><path d="M207.621 344.403L200.777 306.453L194.16 268.458L181.243 192.422L168.78 116.296L162.729 78.2105L156.905 40.0795L163.749 78.0519L170.366 116.047L183.283 192.083L195.724 268.186L201.774 306.294L207.621 344.403Z" fill="#A4A4A4"></path><path d="M215.983 340.211L207.032 304.391L198.307 268.526L181.153 196.75L164.474 124.838L156.316 88.8364L148.339 52.7898L157.29 88.6099L166.038 124.475L183.169 196.274L199.848 268.163L208.006 304.165L215.983 340.211Z" fill="#A4A4A4"></path><path d="M224.322 336.02L213.286 302.352L202.454 268.616L181.085 201.055L160.169 133.357L149.881 99.4624L139.796 65.5001L150.832 99.1678L161.687 132.903L183.034 200.443L203.95 268.141L214.238 302.058L224.322 336.02Z" fill="#A4A4A4"></path><path d="M232.684 331.806L219.541 300.29L206.601 268.707L181.017 205.382L155.863 141.898L143.467 110.088L131.253 78.2106L144.396 109.726L157.336 141.332L182.92 204.634L208.051 268.118L220.47 299.928L232.684 331.806Z" fill="#A4A4A4"></path><path d="M241.046 327.614L225.795 298.251L210.748 268.798L180.949 209.709L151.58 150.44L137.031 120.737L122.687 90.9209L137.938 120.284L152.985 149.737L182.762 208.803L212.153 268.095L226.679 297.798L241.046 327.614Z" fill="#A4A4A4"></path><path d="M249.385 323.423L232.072 296.19L214.918 268.866L180.904 214.059L147.297 158.981L130.619 131.363L114.144 103.631L131.457 130.842L148.612 158.166L182.626 212.995L216.232 268.073L232.911 295.691L249.385 323.423Z" fill="#A4A4A4"></path><path d="M257.747 319.209L238.349 294.151L219.088 268.956L180.858 218.387L143.014 167.523L124.206 141.989L105.578 116.342L124.999 141.4L144.238 166.594L182.467 217.186L220.311 268.027L239.12 293.561L257.747 319.209Z" fill="#A4A4A4"></path><path d="M266.109 315.017L244.604 292.089L223.28 269.047L180.835 222.692L138.731 176.064L117.815 152.615L97.0347 129.052L118.517 151.958L139.864 175.022L182.308 221.355L224.39 268.005L245.329 291.454L266.109 315.017Z" fill="#A4A4A4"></path><path d="M274.448 310.826L250.881 290.05L227.449 269.115L180.813 227.019L134.471 184.583L111.402 163.241L88.4688 141.762L112.059 162.538L135.491 183.45L182.127 225.546L228.469 267.982L251.538 289.325L274.448 310.826Z" fill="#A4A4A4"></path><path d="M282.811 306.612L257.158 287.988L231.642 269.183L180.79 231.324L130.188 193.102L104.989 173.867L79.9258 154.45L105.578 173.096L131.095 191.901L181.969 229.76L232.548 267.982L257.747 287.218L282.811 306.612Z" fill="#A4A4A4"></path><path d="M291.172 302.42L263.435 285.926L235.834 269.251L180.767 235.629L125.928 201.621L98.5983 184.493L71.3823 167.16L99.0968 183.677L126.721 200.352L181.787 233.975L236.604 267.982L263.934 285.111L291.172 302.42Z" fill="#A4A4A4"></path><path d="M299.512 298.229L269.712 283.842L240.004 269.296L180.745 239.911L121.667 210.14L92.1852 195.096L62.8164 179.871L92.6157 194.235L122.324 208.803L181.606 238.189L240.683 267.982L270.143 283.003L299.512 298.229Z" fill="#A4A4A4"></path><path d="M307.873 294.015L276.012 281.78L244.196 269.342L180.722 244.193L117.384 218.636L85.7945 205.699L54.2729 192.581L86.1344 204.838L117.951 217.254L181.424 242.403L244.739 267.982L276.352 280.919L307.873 294.015Z" fill="#A4A4A4"></path><path d="M316.236 289.823L282.267 279.696L248.388 269.387L180.677 248.475L113.124 227.132L79.3819 216.302L45.7075 205.291L79.6765 215.419L113.555 225.728L181.266 246.64L248.819 267.982L282.561 278.812L316.236 289.823Z" fill="#A4A4A4"></path><path d="M324.575 285.632L288.544 277.634L252.558 269.432L180.654 252.734L108.841 235.629L72.9913 226.906L37.1641 218.002L73.1952 225.999L109.181 234.201L181.085 250.899L252.898 268.005L288.77 276.728L324.575 285.632Z" fill="#A4A4A4"></path><path d="M332.936 281.44L294.82 275.549L256.75 269.455L180.609 256.994L104.581 244.102L66.5779 237.509L28.6206 230.712L66.7366 236.603L104.807 242.675L180.926 255.136L256.976 268.027L294.979 274.643L332.936 281.44Z" fill="#A4A4A4"></path><path d="M341.298 277.226L301.098 273.465L260.919 269.5L180.586 261.253L100.298 252.598L60.1648 248.112L20.0547 243.422L60.2555 247.183L100.434 251.148L180.767 259.395L261.055 268.073L301.188 272.559L341.298 277.226Z" fill="#A4A4A4"></path><path d="M349.661 273.035L307.352 271.381L265.067 269.523L180.541 265.513L96.015 261.072L53.752 258.693L11.5117 256.133L53.7973 257.787L96.0829 259.645L180.631 263.655L265.157 268.095L307.398 270.474L349.661 273.035Z" fill="#A4A4A4"></path><path d="M358 268.843L313.629 269.296L269.236 269.545L180.473 269.749L91.7093 269.545L47.3389 269.296L2.9458 268.843L47.3389 268.39L91.7093 268.118L180.473 267.914L269.236 268.118L313.629 268.39L358 268.843Z" fill="#A4A4A4"></path></g><path d="M179.612 355.029L179.091 310.667L178.796 266.283L178.547 177.514L178.796 88.7685L179.091 44.3843L179.612 0L180.133 44.3843L180.428 88.7685L180.654 177.514L180.428 266.283L180.11 310.667L179.612 355.029Z" fill="#A4A4A4"></path><path d="M187.951 350.837L185.345 308.605L182.92 266.351L178.456 181.819L174.468 97.2874L172.655 55.0102L171.046 12.7103L173.675 54.9422L176.099 97.1968L180.564 181.729L184.529 266.26L186.365 308.538L187.951 350.837Z" fill="#A4A4A4"></path><path d="M196.313 346.646L191.577 306.544L187.068 266.419L178.366 186.147L170.162 105.806L166.219 65.6134L162.503 25.4207L167.239 65.5228L171.749 105.648L180.451 185.92L188.654 266.26L192.597 306.43L196.313 346.646Z" fill="#A4A4A4"></path><path d="M204.675 342.432L197.832 304.482L191.192 266.487L178.275 190.451L165.834 114.325L159.784 76.2395L153.937 38.1311L160.781 76.0809L167.42 114.076L180.337 190.112L192.778 266.238L198.829 304.323L204.675 342.432Z" fill="#A4A4A4"></path><path d="M213.014 338.24L204.086 302.443L195.339 266.578L178.207 194.779L161.528 122.867L153.348 86.8654L145.394 50.8414L154.345 86.6389L163.069 122.504L180.224 194.303L196.88 266.215L205.06 302.194L213.014 338.24Z" fill="#A4A4A4"></path><path d="M221.376 334.049L210.341 300.381L199.486 266.645L178.139 199.106L157.223 131.408L146.935 97.514L136.851 63.5518L147.887 97.1968L158.741 130.932L180.088 198.494L201.004 266.192L211.292 300.087L221.376 334.049Z" fill="#A4A4A4"></path><path d="M229.738 329.857L216.595 298.342L203.655 266.736L178.071 203.434L152.917 139.95L140.499 108.14L128.285 76.2395L141.428 107.755L154.39 139.361L179.952 202.663L205.106 266.147L217.524 297.957L229.738 329.857Z" fill="#A4A4A4"></path><path d="M238.077 325.643L222.849 296.28L207.802 266.827L178.003 207.761L148.634 148.469L134.086 118.766L119.741 88.9498L134.969 118.313L150.016 147.789L179.816 206.855L209.185 266.124L223.733 295.85L238.077 325.643Z" fill="#A4A4A4"></path><path d="M246.439 321.452L229.126 294.241L211.972 266.917L177.958 212.088L144.328 157.01L127.673 129.392L111.175 101.66L128.511 128.871L145.665 156.195L179.68 211.024L213.286 266.102L229.942 293.72L246.439 321.452Z" fill="#A4A4A4"></path><path d="M254.802 317.26L235.381 292.179L216.142 266.985L177.912 216.416L140.046 165.552L121.26 140.018L102.632 114.37L122.053 139.429L141.292 164.623L179.521 215.215L217.365 266.079L236.174 291.59L254.802 317.26Z" fill="#A4A4A4"></path><path d="M263.141 313.046L241.658 290.14L220.311 267.076L177.867 220.743L135.785 174.093L114.846 150.666L94.0889 127.081L115.572 150.009L136.918 173.051L179.363 219.406L221.444 266.056L242.383 289.483L263.141 313.046Z" fill="#A4A4A4"></path><path d="M271.503 308.855L247.935 288.079L224.503 267.144L177.844 225.048L131.502 182.612L108.456 161.27L85.5229 139.791L109.09 160.567L132.545 181.502L179.181 223.598L225.523 266.034L248.592 287.376L271.503 308.855Z" fill="#A4A4A4"></path><path d="M279.865 304.663L254.212 286.017L228.696 267.212L177.822 229.353L127.242 191.131L102.043 171.896L76.98 152.502L102.632 171.125L128.149 189.93L179 227.789L229.58 266.011L254.779 285.247L279.865 304.663Z" fill="#A4A4A4"></path><path d="M288.204 300.449L260.49 283.955L232.866 267.28L177.799 233.657L122.982 199.65L95.6527 182.522L68.4141 165.212L96.1512 181.706L123.752 198.381L178.819 232.004L233.659 266.011L260.988 283.14L288.204 300.449Z" fill="#A4A4A4"></path><path d="M296.566 296.258L266.766 281.893L237.058 267.348L177.776 237.962L118.699 208.169L89.2394 193.125L59.8706 177.922L89.6699 192.287L119.379 206.832L178.66 236.218L237.738 266.011L267.197 281.055L296.566 296.258Z" fill="#A4A4A4"></path><path d="M304.928 292.066L273.044 279.809L241.25 267.393L177.754 242.244L114.439 216.665L82.8489 203.751L51.3047 190.633L83.1889 202.867L114.982 215.283L178.479 240.454L241.794 266.011L273.406 278.948L304.928 292.066Z" fill="#A4A4A4"></path><path d="M313.29 287.852L279.321 277.747L245.42 267.438L177.731 246.504L110.178 225.161L76.4361 214.354L42.7617 203.32L76.708 213.448L110.609 223.757L178.298 244.691L245.873 266.034L279.593 276.841L313.29 287.852Z" fill="#A4A4A4"></path><path d="M321.629 283.661L285.598 275.663L249.612 267.461L177.708 250.786L105.895 233.657L70.0228 224.935L34.2183 216.031L70.2494 224.028L106.235 232.23L178.139 248.928L249.952 266.056L285.802 274.757L321.629 283.661Z" fill="#A4A4A4"></path><path d="M329.991 279.469L291.875 273.578L253.782 267.506L177.663 255.045L101.612 242.154L63.6323 235.538L25.6523 228.741L63.7683 234.632L101.862 240.704L177.98 253.165L254.031 266.079L292.011 272.672L329.991 279.469Z" fill="#A4A4A4"></path><path d="M338.353 275.278L298.129 271.494L257.951 267.529L177.617 259.305L97.3292 250.627L57.219 246.141L17.1089 241.451L57.3097 245.212L97.4878 249.177L177.821 257.424L258.11 266.102L298.242 270.588L338.353 275.278Z" fill="#A4A4A4"></path><path d="M346.692 271.063L304.407 269.41L262.121 267.552L177.573 263.541L93.0467 259.101L50.8064 256.722L8.54346 254.162L50.8517 255.816L93.1147 257.673L177.663 261.684L262.189 266.124L304.452 268.503L346.692 271.063Z" fill="#A4A4A4"></path><path d="M355.054 266.872L310.661 267.325L266.291 267.574L177.527 267.801L88.7635 267.574L44.3704 267.325L0 266.872L44.3704 266.419L88.7635 266.147L177.527 265.943L266.291 266.17L310.661 266.419L355.054 266.872Z" fill="#A4A4A4"></path></g></svg>