<svg xmlns="http://www.w3.org/2000/svg" viewBox="0 0 374 271" fill="none"><path d="M43.3231 226.68C45.4893 234.584 47.5613 242.864 49.7275 251.992C50.2926 254.344 50.5752 256.885 50.9519 259.52C51.4228 263.378 51.8937 267.424 53.2122 270.905L54.1541 270.905C52.7413 267.33 52.2704 263.378 51.7995 259.425C51.517 256.697 51.1403 254.156 50.5752 251.804C48.409 242.676 46.2428 234.396 44.1708 226.491C43.5115 223.951 41.8163 220.375 39.8384 216.235C34.2817 204.567 26.7472 188.664 36.1654 183.301C39.085 181.607 42.8523 181.983 46.8079 182.454C47.7497 182.548 48.5973 182.642 49.5391 182.736C51.2344 182.83 52.553 182.924 53.7773 182.736C61.6886 182.078 72.6137 181.137 82.4086 178.314C86.3642 177.184 90.1315 175.679 93.7103 173.891C108.497 166.363 118.198 154.978 119.516 143.404C119.893 139.922 119.61 136.346 119.328 132.959C118.857 126.842 118.292 121.103 121.588 115.363C125.261 108.87 133.172 104.636 140.236 101.248C153.422 94.8494 170.374 86.0042 185.349 74.9949C189.399 71.9838 192.978 68.6904 196.463 65.4911C199.194 63.0445 202.019 60.4098 205.033 57.9633C207.764 55.7049 210.967 53.7289 214.075 51.847C216.712 50.2473 219.349 48.5535 221.797 46.7657C224.058 45.0719 226.036 43.19 227.919 41.4022C231.875 37.6383 235.548 34.1567 241.576 32.1806C246.944 30.3928 252.218 28.2285 258.246 25.4997C262.484 23.5237 266.722 21.3594 271.243 19.1011L273.786 17.7837C282.45 13.3612 289.702 11.0088 296.389 10.5383C303.17 9.9737 310.14 11.291 316.733 12.7025L318.239 13.0789C324.267 14.3962 329.918 15.7136 335.757 15.2431C339.43 14.9608 342.915 13.9258 346.4 12.8907C350.638 11.6674 354.97 10.4442 359.679 10.4442C365.801 10.5383 370.039 12.4202 373.901 15.2431L373.901 14.208C370.039 11.4792 365.801 9.69138 359.679 9.59729C354.876 9.50321 350.45 10.8205 346.211 12.0438C342.821 12.9848 339.336 14.0198 335.757 14.3962C330.106 14.8667 324.455 13.6435 318.522 12.3261L317.015 11.9497C310.422 10.5383 303.359 9.22089 296.389 9.78547C289.514 10.3501 282.262 12.7025 273.503 17.1251L270.96 18.4424C266.44 20.7008 262.201 22.865 257.963 24.841C252.03 27.5699 246.756 29.64 241.387 31.4278C235.171 33.498 231.404 37.0737 227.448 40.8376C225.565 42.6254 223.587 44.5074 221.421 46.107C219.066 47.8949 216.335 49.5886 213.792 51.1883C210.684 53.0702 207.482 55.0462 204.656 57.3987C201.643 59.8452 198.817 62.3858 196.086 64.9265C192.601 68.1258 189.116 71.3251 185.067 74.3362C170.186 85.3456 153.139 94.0966 140.048 100.495C132.89 103.977 124.884 108.305 121.023 114.986C117.632 120.914 118.198 127.031 118.668 133.053C118.951 136.44 119.234 139.922 118.857 143.404C117.538 154.695 108.026 165.799 93.4278 173.232C89.9431 175.02 86.27 176.432 82.3144 177.561C72.5195 180.29 61.7828 181.231 53.8715 181.889C52.6471 181.983 51.3286 181.983 49.7275 181.889C48.7857 181.795 47.9381 181.701 46.9963 181.607C42.9464 181.137 39.085 180.76 35.8828 182.548C25.8054 188.288 33.5283 204.661 39.1792 216.517C40.9686 220.751 42.6639 224.233 43.3231 226.68Z" fill="#C94938"></path><path d="M74.0268 225.645C75.722 231.102 77.5115 236.936 79.6777 244.558C80.2428 246.346 80.6195 248.228 80.9962 250.204C81.938 254.721 82.8799 259.425 85.7053 263.189C88.0598 266.389 91.0737 268.271 93.7108 269.776C94.6526 270.247 95.5944 270.623 96.442 270.905L98.9849 270.905C98.4198 270.717 97.9489 270.529 97.3839 270.341C96.2537 269.964 95.2177 269.588 94.0875 269.023C91.5446 267.612 88.5308 265.73 86.3646 262.719C83.7275 259.049 82.7857 254.532 81.8439 250.016C81.4672 248.134 80.9962 246.064 80.5253 244.276C78.3591 236.654 76.5697 230.82 74.8744 225.362C74.2151 223.104 72.7082 220.187 71.013 216.799C66.869 208.519 61.689 198.262 65.3621 192.993C66.9632 190.734 69.1293 189.888 72.2373 188.947L72.3315 188.947C73.1792 188.664 74.121 188.382 74.9686 188.1C78.4533 186.971 82.5031 186.124 86.8355 185.183C89.8493 184.524 92.9573 183.865 95.8769 183.113C99.1733 182.266 101.999 181.325 104.542 180.29C115.843 175.679 124.414 169.751 128.652 163.729C129.971 161.941 130.913 160.059 131.76 158.271C133.455 155.072 134.962 151.966 138.447 148.955C142.309 145.568 148.148 143.027 153.893 140.769C172.07 133.712 186.291 125.149 196.369 115.457C199.854 112.069 202.208 108.211 204.563 104.447C206.352 101.53 208.236 98.5192 210.59 95.6963C212.756 93.1557 215.676 91.1796 218.596 89.2036C221.044 87.6039 223.493 85.9102 225.471 83.84C227.449 81.864 228.673 79.6056 229.992 77.3473C232.346 73.1129 234.607 69.0668 241.199 68.1258C247.415 67.2789 252.689 66.0557 257.869 64.2678C262.673 62.6682 267.57 60.3157 272.844 57.2105C280.285 52.7879 286.595 49.4945 293.282 47.7067C299.592 46.0129 305.902 45.7306 312.495 46.7657C315.603 47.2362 318.711 48.0831 321.725 48.8359C324.456 49.5886 327.376 50.2473 330.107 50.7178C338.206 52.1292 345.741 51.6588 353.275 51.0001C355.253 50.8119 357.137 50.6237 358.926 50.4355C364.483 49.7768 369.004 49.3064 373.807 50.4355L373.807 49.5886C368.91 48.4595 364.295 48.9299 358.832 49.5886C357.043 49.7768 355.253 49.965 353.181 50.1532C345.647 50.8119 338.301 51.2824 330.201 49.8709C327.47 49.4004 324.738 48.7418 321.819 47.989C318.805 47.2362 315.697 46.3893 312.495 45.9188C305.714 44.7897 299.309 45.1661 292.905 46.8598C286.124 48.7418 279.72 52.0352 272.279 56.4577C267.099 59.5629 262.296 61.8213 257.493 63.4209C252.407 65.1147 247.227 66.3379 241.011 67.1848C233.947 68.1258 231.593 72.3602 229.144 76.7827C227.92 78.947 226.695 81.2053 224.812 83.0872C222.928 85.0633 220.574 86.6629 218.031 88.3567C215.111 90.3327 212.191 92.4029 209.931 95.0376C207.482 97.8605 205.599 100.872 203.809 103.883C201.549 107.553 199.1 111.411 195.71 114.704C185.726 124.396 171.599 132.771 153.516 139.828C147.677 142.086 141.838 144.627 137.788 148.203C134.209 151.402 132.514 154.695 130.913 157.8C129.971 159.588 129.123 161.376 127.805 163.164C123.755 168.998 115.09 174.926 104.071 179.443C101.622 180.478 98.7966 181.325 95.5944 182.172C92.6747 182.924 89.5668 183.583 86.553 184.242C82.2206 185.183 78.1708 186.03 74.5919 187.159C73.65 187.441 72.8024 187.723 71.9548 188.006L71.8606 188.006C68.6584 189.041 66.2097 189.888 64.5144 192.334C60.5588 197.98 65.833 208.519 70.0712 216.893C71.8606 220.563 73.2733 223.48 74.0268 225.645Z" fill="#C94938"></path><path d="M104.73 224.609C107.555 231.949 110.381 239.195 113.206 246.44C115.278 251.615 117.256 256.791 119.328 261.966C120.552 265.259 121.871 268.271 123.472 270.905L124.414 270.905C122.719 268.176 121.4 265.071 120.082 261.684C118.104 256.508 116.032 251.333 113.96 246.158C111.134 238.912 108.309 231.573 105.483 224.327C104.542 221.975 102.846 219.152 101.057 216.235C96.7245 209.083 91.827 201.085 94.935 195.157C97.5721 190.17 107.367 188.288 113.112 187.159C113.866 186.971 114.525 186.876 115.184 186.782C123.19 185.089 131.572 184.524 139.671 183.865C148.901 183.207 158.413 182.454 167.361 180.196C184.031 175.961 198.535 167.116 207.105 155.824C210.025 152.06 211.155 147.638 212.38 143.309C213.321 139.922 214.263 136.44 215.958 133.335C217.56 130.512 220.291 128.442 222.928 126.466C225.188 124.772 227.449 123.079 229.05 120.82C230.651 118.562 231.216 115.739 231.781 113.104C232.723 108.117 233.57 103.883 240.822 104.071C252.218 104.447 261.072 104.071 271.808 96.7313C272.938 95.8845 274.163 95.1317 275.293 94.2848C285.559 87.1334 296.107 79.6997 308.162 80.923C313.907 81.4876 319.37 84.1223 324.738 86.5688C331.802 89.8622 339.148 93.3438 346.965 91.8383C351.203 90.9914 355.253 88.7331 359.02 86.5688C363.918 83.7459 368.627 81.1112 373.619 81.3935L373.619 80.5466C368.344 80.2643 363.353 83.0872 358.55 85.816C354.782 87.9803 350.827 90.2386 346.683 90.9914C339.148 92.4029 332.273 89.2035 325.021 85.816C319.653 83.2754 314.096 80.6407 308.162 80.0761C295.73 78.8529 284.994 86.3806 274.634 93.6261C273.503 94.473 272.279 95.2258 271.149 96.0727C260.601 103.318 251.842 103.6 240.634 103.318C232.723 103.036 231.781 108.117 230.745 113.01C230.274 115.645 229.709 118.28 228.202 120.444C226.695 122.514 224.529 124.208 222.269 125.901C219.537 127.878 216.806 130.042 215.111 133.053C213.321 136.252 212.38 139.734 211.438 143.215C210.308 147.45 209.083 151.778 206.352 155.448C197.876 166.646 183.56 175.397 167.078 179.537C158.225 181.795 148.713 182.454 139.483 183.113C131.289 183.677 122.907 184.336 114.902 186.03C114.242 186.124 113.583 186.312 112.83 186.406C106.519 187.629 96.9128 189.511 93.9932 194.875C90.6027 201.179 95.6885 209.46 100.115 216.705C102.093 219.528 103.788 222.351 104.73 224.609Z" fill="#C94938"></path><path d="M160.862 247.852C162.087 250.769 163.405 253.968 165.1 257.45C166.796 261.214 168.962 265.448 172.258 268.459C172.917 269.024 173.483 269.589 174.142 270.059C174.613 270.435 175.084 270.718 175.649 271L177.344 271C176.402 270.53 175.46 269.965 174.707 269.4C174.048 268.93 173.483 268.459 172.917 267.895C169.715 264.884 167.643 260.743 165.948 257.074C164.253 253.592 162.934 250.393 161.71 247.476L161.427 246.911C158.602 239.854 155.682 232.514 155.588 225.833C155.588 220.94 156.059 217.741 156.624 213.13C157.001 210.119 157.848 206.732 160.58 203.909C162.369 202.121 165.195 200.615 168.868 199.674C171.411 199.016 173.953 198.451 176.496 197.886C178.757 197.416 180.829 196.946 182.618 196.475C186.197 195.534 189.682 194.593 193.072 193.464C196.745 192.241 199.1 190.359 200.889 188.947C201.266 188.665 201.549 188.383 201.925 188.194C203.15 187.253 204.092 186.783 205.128 186.313C205.504 186.124 205.975 185.936 206.352 185.654C207.105 185.277 207.67 184.619 208.33 183.96C209.083 183.207 210.025 182.266 211.344 181.231C213.792 179.443 216.712 177.656 219.726 175.68C226.789 171.257 234.701 166.176 240.634 159.777C242.424 157.801 243.648 155.637 244.59 153.849C245.061 153.002 245.437 152.155 245.908 151.214C247.133 148.768 248.263 146.415 249.958 144.345C251.465 142.463 253.82 141.146 256.08 139.923C257.869 138.888 259.753 137.852 261.166 136.535C262.673 135.124 263.332 133.43 264.085 131.736C265.404 128.631 266.534 125.996 272.091 126.373C281.132 127.031 288.761 127.125 297.426 122.42C299.121 121.48 300.91 120.444 302.7 119.503C306.467 117.339 310.423 115.081 314.378 113.293C319.182 111.129 323.137 110 326.999 109.906C331.331 109.717 335.475 110.752 339.431 111.787C344.893 113.199 350.544 114.61 356.572 112.823C357.984 112.446 359.491 111.787 361.187 110.941C362.599 110.188 364.012 109.435 365.331 108.588C368.156 106.989 370.793 105.389 373.619 104.542L373.619 103.695C370.605 104.542 367.779 106.236 364.954 107.835C363.635 108.588 362.223 109.435 360.81 110.094C359.115 110.941 357.702 111.505 356.383 111.976C350.544 113.669 345.27 112.352 339.713 110.941C335.663 109.906 331.425 108.87 326.999 109.059C323.043 109.247 318.993 110.282 314.096 112.54C310.046 114.328 306.09 116.586 302.323 118.845C300.628 119.786 298.838 120.821 297.143 121.762C288.667 126.373 281.226 126.278 272.279 125.62C266.252 125.149 264.839 128.349 263.52 131.454C262.861 133.053 262.108 134.653 260.789 135.97C259.47 137.194 257.681 138.229 255.892 139.264C253.537 140.581 251.182 141.899 249.487 143.875C247.698 146.039 246.473 148.485 245.343 150.932C244.966 151.779 244.496 152.626 244.025 153.473C243.083 155.26 241.953 157.331 240.163 159.213C234.418 165.517 226.413 170.598 219.443 175.021C216.429 176.903 213.51 178.785 211.061 180.573C209.648 181.608 208.706 182.549 207.953 183.395C207.294 184.054 206.729 184.619 206.164 184.995C205.787 185.183 205.41 185.372 204.939 185.654C203.903 186.124 202.961 186.689 201.643 187.63C201.36 187.818 200.984 188.1 200.607 188.477C198.912 189.794 196.651 191.676 193.072 192.805C189.682 193.934 186.197 194.875 182.618 195.816C180.829 196.287 178.757 196.757 176.496 197.228C173.953 197.792 171.316 198.357 168.868 199.016C165.1 200.051 162.087 201.556 160.203 203.438C157.283 206.355 156.436 209.931 155.965 213.13C155.305 217.741 154.929 221.034 154.929 225.927C154.929 232.797 157.943 240.136 160.768 247.382L160.862 247.852Z" fill="#C94938"></path><path d="M210.967 252.933C212.38 255.286 214.546 258.673 217.56 261.496C218.031 261.967 218.596 262.437 219.067 262.814C220.008 263.566 221.044 264.225 222.08 264.884C223.305 265.636 224.529 266.483 225.659 267.424C226.978 268.553 228.014 269.777 228.956 271L229.992 271C228.956 269.494 227.731 268.083 226.224 266.766C225.094 265.825 223.776 264.978 222.551 264.131C221.61 263.472 220.574 262.814 219.632 262.061C219.161 261.684 218.596 261.214 218.125 260.838C215.205 258.109 213.039 254.815 211.72 252.463C210.119 249.734 208.801 247.288 207.859 244.935C205.693 239.76 203.621 232.42 205.787 227.339C207.294 223.951 209.931 222.822 212.756 221.693C214.263 221.034 215.864 220.47 217.277 219.435C218.313 218.682 219.255 217.929 220.385 217.082C222.175 215.671 224.152 214.071 226.413 212.754C229.144 211.248 232.346 210.119 235.737 209.555C240.728 208.708 245.908 207.861 250.147 206.543C254.102 205.32 257.587 203.815 260.695 202.121C265.121 199.674 265.687 194.781 264.368 192.335C263.332 190.453 261.731 189.606 260.13 188.853C259.753 188.665 259.376 188.477 259 188.289C256.457 186.877 255.327 184.995 255.327 182.455C258.717 176.903 267.57 169.375 273.975 164.106C275.199 163.07 276.235 162.13 277.271 161.189L278.119 160.436C280.002 158.742 281.697 157.048 283.864 155.825C285.465 154.884 287.537 154.319 289.515 153.849C290.927 153.473 292.152 153.19 293.376 152.72C294.6 152.249 295.542 151.591 296.39 150.932C298.179 149.709 299.686 148.58 303.548 149.144C310.329 150.179 316.545 150.838 323.137 148.58C326.999 147.262 331.237 145.568 336.794 143.028C339.996 141.522 343.01 140.111 345.929 139.264C348.755 138.417 351.486 137.947 354.123 137.57C357.985 137.006 361.94 136.347 366.367 134.277C367.591 133.712 368.721 133.053 369.663 132.489C370.134 132.207 370.605 131.924 371.076 131.642C372.018 131.077 372.865 130.607 373.807 130.042L373.807 129.101C372.771 129.666 371.735 130.325 370.699 130.889C370.228 131.172 369.757 131.454 369.286 131.736C368.345 132.301 367.214 132.959 366.084 133.524C361.846 135.594 358.079 136.159 354.123 136.723C351.486 137.1 348.755 137.57 345.835 138.417C342.821 139.358 339.713 140.769 336.511 142.275C330.954 144.816 326.81 146.509 322.949 147.827C316.45 149.991 310.611 149.332 303.736 148.297C299.498 147.639 297.802 148.956 295.919 150.273C295.071 150.838 294.224 151.497 293.093 151.967C291.963 152.437 290.739 152.72 289.42 153.096C287.348 153.661 285.276 154.131 283.581 155.166C281.321 156.484 279.531 158.177 277.648 159.965L276.8 160.718C275.764 161.659 274.822 162.6 273.598 163.635C267.099 168.905 258.058 176.62 254.667 182.266L254.573 182.36L254.573 182.455C254.479 185.372 255.797 187.536 258.623 189.135C259 189.324 259.376 189.512 259.753 189.7C261.26 190.453 262.767 191.206 263.615 192.899C264.745 195.064 264.274 199.392 260.318 201.65C257.304 203.344 253.914 204.756 249.958 205.979C245.72 207.296 240.54 208.143 235.643 208.99C232.158 209.555 228.862 210.684 226.036 212.283C223.682 213.601 221.704 215.2 219.914 216.612C218.878 217.459 217.936 218.211 216.9 218.87C215.582 219.811 213.981 220.47 212.568 221.034C209.648 222.258 206.729 223.481 205.128 227.151C202.773 232.514 204.939 239.948 207.2 245.311C208.047 247.664 209.272 250.205 210.967 252.933Z" fill="#C94938"></path><path d="M262.767 254.439C269.642 260.838 277.365 268.177 287.442 270.812C287.631 270.906 287.913 270.906 288.102 271L292.34 271C290.739 270.718 289.138 270.435 287.631 270.059C277.836 267.424 270.113 260.179 263.332 253.874C259.847 250.581 255.892 246.911 253.914 242.394C252.124 238.348 252.03 232.42 255.797 228.939C259.376 225.645 264.462 225.739 269.925 225.833C272.562 225.927 275.293 225.927 277.836 225.551C281.886 224.986 285.559 223.763 289.138 222.634C293.564 221.223 297.708 219.811 302.417 219.529C313.625 218.776 321.536 216.047 328.035 210.872C329.636 209.555 330.578 207.578 330.578 205.32C330.578 202.215 328.882 198.922 326.339 196.945C322.855 194.217 318.428 193.276 314.096 192.241C313.154 192.052 312.306 191.864 311.365 191.582C304.678 189.888 300.628 187.348 298.933 183.584C297.426 180.196 298.462 177.091 299.592 175.115C301.852 171.163 306.279 168.058 310.894 167.305C318.051 166.082 325.303 168.528 332.273 170.881C333.026 171.163 333.874 171.445 334.627 171.633C341.879 174.08 351.203 176.338 358.832 172.574C363.541 170.316 366.743 166.176 369.946 162.224C371.076 160.718 372.3 159.212 373.619 157.801L373.619 156.578C372.112 158.177 370.699 159.965 369.286 161.753C366.084 165.799 363.07 169.657 358.55 171.916C351.109 175.491 342.068 173.327 335.004 170.975C334.251 170.692 333.403 170.41 332.65 170.222C325.586 167.869 318.24 165.329 310.894 166.552C305.996 167.399 301.381 170.598 299.027 174.739C297.331 177.844 297.049 181.043 298.273 183.96C300.063 188.006 304.301 190.735 311.27 192.429C312.212 192.617 313.06 192.899 314.002 193.087C318.24 194.028 322.572 195.064 325.869 197.604C328.223 199.392 329.73 202.497 329.73 205.32C329.73 206.732 329.353 208.802 327.564 210.213C321.159 215.294 313.342 217.929 302.417 218.776C297.52 219.152 293.187 220.564 288.855 221.975C285.276 223.105 281.603 224.328 277.648 224.892C275.199 225.269 272.468 225.175 269.925 225.175C264.556 225.081 259.094 224.986 255.232 228.468C251.182 232.232 251.277 238.442 253.16 242.865C255.232 247.382 259.188 251.145 262.767 254.439Z" fill="#C94938"></path><g opacity="0.4"><path d="M1.03619 271C2.16635 261.496 3.86163 251.992 6.68707 242.865C14.0332 219.435 28.0663 201.462 46.3375 192.335C57.8277 186.595 70.919 184.336 83.5393 182.266C89.5669 181.231 95.8771 180.196 101.905 178.785C125.073 173.233 141.179 160.812 144.852 145.38C146.264 139.64 146.076 133.43 145.793 127.408C145.511 117.622 145.134 108.306 151.35 101.249C156.907 94.85 166.325 92.3094 175.366 89.8629C187.045 86.6636 198.158 83.6525 200.136 72.9254C201.266 66.9972 198.535 61.4455 195.898 55.9879C193.826 51.6594 191.66 47.2368 191.377 42.6261C190.436 26.8177 209.743 17.9726 226.601 15.2438L226.978 15.1497C240.823 12.8914 257.493 10.1625 265.969 0.0941162L264.839 0.0941163C256.363 9.50385 240.163 12.1386 226.79 14.3028L226.413 14.3969C209.272 17.2198 189.588 26.3473 190.53 42.6261C190.812 47.425 192.978 51.9417 195.145 56.2702C197.782 61.8219 200.325 66.9972 199.289 72.6431C197.311 82.8997 186.574 85.8167 175.084 88.9219C165.854 91.4625 156.342 94.0031 150.691 100.59C144.287 107.93 144.663 117.339 144.946 127.314C145.134 133.242 145.322 139.452 144.004 145.098C140.331 160.153 124.508 172.48 101.622 177.844C95.5946 179.255 89.3786 180.29 83.2568 181.325C70.5423 183.49 57.3568 185.748 45.7725 191.488C27.3128 200.709 13.0914 218.87 5.74527 242.489C2.82562 251.804 1.13034 261.308 0.00015258 270.906L1.03619 270.906L1.03619 271Z" fill="#C94938"></path><path d="M64.9853 271L65.833 271C65.7388 269.589 65.6446 268.271 65.5504 266.954C65.362 264.601 65.0795 262.155 65.0795 259.708C65.0795 250.487 66.9631 241.83 70.542 234.02C77.9824 217.929 88.4365 204.756 100.774 196.005C101.999 195.158 103.223 194.311 104.542 193.558C112.641 188.477 121.212 185.183 129.406 182.078C134.115 180.29 139.012 178.408 143.627 176.244C146.735 174.739 149.749 173.139 152.574 171.351C163.594 164.294 170.469 155.355 172.541 145.38C173.483 140.675 173.388 135.594 173.2 130.701C173.012 122.703 172.823 115.081 176.967 108.965C180.64 103.507 186.856 100.496 192.79 97.5788C198.347 94.85 203.621 92.3094 206.823 87.8868C208.33 85.9108 209.177 83.7465 209.648 81.3C210.402 76.7833 208.895 72.549 207.388 68.4087C205.975 64.3625 204.657 60.5986 205.222 56.6465C206.823 45.2608 220.668 42.2497 228.767 41.4969C234.136 41.0264 239.975 41.2146 245.437 41.591C249.299 41.8733 255.138 42.0615 261.072 41.1205C273.88 38.9563 284.334 31.9931 290.362 21.6424C292.528 17.8785 293.941 14.0205 295.26 10.2566C296.39 7.05728 297.52 4.04617 299.027 1.22327C299.215 0.846863 299.498 0.376404 299.78 0L298.838 8.23363e-08C298.65 0.282288 298.462 0.564575 298.368 0.846863C296.861 3.6698 295.73 6.77502 294.6 9.9743C293.282 13.6441 291.869 17.5021 289.797 21.1719C283.958 31.3344 273.786 38.1094 261.166 40.2736C255.326 41.2146 249.581 41.0264 245.72 40.7441C240.257 40.3677 234.418 40.0854 228.956 40.65C220.573 41.4028 206.352 44.508 204.657 56.4584C204.092 60.5986 205.504 64.6448 206.917 68.5969C208.33 72.6431 209.837 76.8774 209.083 81.1118C208.707 83.4642 207.859 85.5344 206.446 87.3222C203.338 91.5566 198.158 94.0972 192.696 96.732C186.574 99.7431 180.358 102.754 176.496 108.4C172.258 114.705 172.447 122.797 172.635 130.607C172.729 135.5 172.918 140.487 171.976 145.098C169.998 154.79 163.311 163.635 152.386 170.504C149.655 172.292 146.641 173.892 143.533 175.303C138.918 177.467 134.303 179.255 129.311 181.043C121.023 184.148 112.453 187.442 104.259 192.617C103.035 193.37 101.716 194.217 100.492 195.158C88.0598 204.003 77.5115 217.271 69.9769 233.455C66.3039 241.359 64.4202 250.11 64.4202 259.52C64.4202 262.061 64.6086 264.507 64.8911 266.86C64.797 268.365 64.8911 269.683 64.9853 271Z" fill="#C94938"></path><path d="M129.406 259.144C129.971 261.402 130.63 263.66 130.913 266.013C131.101 267.801 131.101 269.4 130.913 271L131.761 271C131.949 269.4 131.949 267.707 131.761 265.919C131.478 263.472 130.819 261.214 130.254 258.956C129.594 256.697 129.029 254.345 128.747 251.992C127.617 241.83 129.5 232.797 134.398 225.175C141.744 213.883 152.01 204.191 160.109 197.04C160.957 196.287 161.804 195.534 162.746 194.781C164.253 193.464 165.76 192.147 167.267 190.829C174.142 184.901 180.076 179.726 185.444 173.798C187.045 172.01 188.552 170.128 189.965 168.246C195.71 160.624 199.1 153.19 200.042 145.568C200.513 141.899 200.513 137.947 200.419 134.183C200.325 127.972 200.325 122.044 202.397 116.869C204.28 112.258 207.294 108.871 210.214 105.483C213.133 102.284 215.771 99.1785 217.466 95.1323C218.219 93.3445 218.69 91.6507 218.879 89.8629C219.255 86.9458 218.879 84.0288 218.408 81.2059C217.843 77.5361 217.372 73.9604 218.69 70.667C222.552 60.8809 236.396 60.4104 247.133 62.951C250.429 63.7038 253.82 64.833 257.116 65.8681C259.377 66.6208 261.637 67.2795 263.897 67.9382C270.019 69.7261 275.199 70.2906 280.191 69.7261C291.304 68.5028 301.005 61.916 310.612 49.1187C311.93 47.3309 313.154 45.6372 314.379 43.8493C317.769 38.9563 321.066 34.3455 325.304 31.0521C326.434 30.2052 327.753 29.3583 329.259 28.5114C332.367 26.8177 335.664 25.6885 338.866 24.7476C352.051 20.7014 363.636 18.4431 373.525 17.8785L373.525 17.0316C363.542 17.5962 351.863 19.8545 338.678 23.9007C335.475 24.9358 331.991 26.0649 328.883 27.7587C327.282 28.6056 325.963 29.4524 324.833 30.3934C320.501 33.7809 317.204 38.3917 313.72 43.3788C312.495 45.0726 311.271 46.8604 309.952 48.5542C300.534 61.1632 291.022 67.5618 280.097 68.7851C275.199 69.3497 270.208 68.7851 264.18 66.9972C261.92 66.3386 259.565 65.5858 257.399 64.9271C254.103 63.892 250.712 62.7629 247.416 62.0101C236.396 59.3754 222.081 59.94 218.031 70.1965C216.618 73.6781 217.183 77.2538 217.654 81.1118C218.031 83.8406 218.408 86.6636 218.125 89.5806C217.937 91.3684 217.466 92.9681 216.712 94.6618C215.017 98.6139 212.38 101.531 209.555 104.73C206.541 108.118 203.433 111.599 201.549 116.304C199.383 121.668 199.477 127.878 199.477 133.9C199.477 137.664 199.571 141.522 199.1 145.192C198.064 152.626 194.862 159.965 189.117 167.493C187.704 169.375 186.198 171.257 184.596 172.951C179.322 178.879 173.389 184.054 166.514 189.982C165.007 191.206 163.5 192.523 161.993 193.934C161.145 194.687 160.298 195.44 159.356 196.193C151.256 203.344 140.896 213.13 133.456 224.516C128.37 232.232 126.486 241.453 127.617 251.804C128.087 254.533 128.747 256.885 129.406 259.144Z" fill="#C94938"></path><path d="M194.108 251.616C195.144 253.968 196.18 256.321 196.746 258.861C197.499 262.814 196.746 266.577 194.674 269.118C194.108 269.871 193.449 270.435 192.696 271L194.014 271C194.485 270.53 194.956 270.153 195.333 269.589C197.593 266.86 198.347 262.908 197.499 258.673C196.934 256.039 195.898 253.592 194.862 251.24C193.826 248.981 192.79 246.629 192.225 244.182C189.682 232.514 191.66 223.105 198.158 216.33C200.984 213.318 204.468 210.778 207.765 208.331C211.909 205.226 216.241 202.121 219.443 197.981C226.319 189.041 227.072 177.75 227.26 164.952L228.296 102.378C228.391 95.5087 228.767 89.4865 232.535 84.8757C239.881 75.7483 254.95 78.383 265.875 84.5934C268.041 85.8167 270.207 87.134 272.279 88.4514C280.756 93.7208 289.609 99.2726 299.592 98.708C311.93 98.0493 320.124 89.1101 328.788 79.6063C335.569 72.1726 342.633 64.4566 351.957 61.1632C357.608 59.1872 363.824 58.9048 369.757 58.7166C371.076 58.7166 372.394 58.6226 373.807 58.5285L373.807 57.6816C372.394 57.7757 371.076 57.8698 369.757 57.8698C363.73 58.058 357.514 58.3403 351.674 60.3163C342.162 63.7038 335.098 71.4198 328.223 78.9476C319.653 88.2632 311.647 97.0142 299.592 97.767C289.891 98.3316 281.132 92.874 272.75 87.6986C270.678 86.3812 268.512 85.0639 266.346 83.8406C255.138 77.442 239.504 74.8073 231.875 84.3111C227.731 89.4865 227.543 96.9201 227.449 102.378L226.413 164.952C226.224 177.656 225.471 188.853 218.784 197.51C215.676 201.556 211.438 204.661 207.294 207.767C203.903 210.213 200.513 212.754 197.593 215.859C190.906 222.916 188.928 232.514 191.471 244.465C191.942 246.911 193.072 249.264 194.108 251.616Z" fill="#C94938"></path><path d="M222.646 271C224.53 267.613 226.884 264.601 229.804 262.249C230.086 262.061 230.369 261.778 230.651 261.59C232.064 260.555 233.477 259.426 234.419 257.826C235.078 256.791 235.455 255.662 235.737 254.345C236.02 252.839 235.926 251.145 235.643 249.452C235.266 247.57 234.513 245.688 233.854 243.9C233.1 242.018 232.441 240.136 232.064 238.16C230.557 229.315 232.252 222.164 237.338 216.988C239.599 214.636 242.424 212.566 245.155 210.684C248.169 208.519 251.277 206.355 253.726 203.532C259.377 197.04 260.79 188.853 261.92 180.196C262.108 178.597 262.296 176.997 262.485 175.303C263.427 167.117 263.992 158.46 264.651 150.085C265.028 144.816 265.404 139.264 265.875 133.994C266.252 129.854 266.723 124.773 269.925 121.291C276.706 113.764 289.515 117.716 294.695 119.786C295.731 120.162 296.767 120.633 297.709 121.103C298.745 121.574 299.687 122.044 300.723 122.515C306.656 125.337 312.778 128.255 318.617 128.443C320.783 128.537 322.761 128.349 324.739 127.784C327.188 127.125 329.636 125.996 332.273 124.208C336.041 121.668 339.62 118.468 343.387 115.175C348.378 110.752 353.558 106.142 359.209 103.131C362.035 101.625 364.86 100.59 367.686 99.9312C369.664 99.5549 371.641 99.3667 373.713 99.2726L373.713 98.4257C371.641 98.5198 369.475 98.708 367.497 99.0844C364.578 99.7431 361.752 100.778 358.833 102.378C353.182 105.389 347.908 110.094 342.822 114.516C339.055 117.81 335.476 121.009 331.803 123.55C329.26 125.243 326.905 126.373 324.551 127.031C322.667 127.502 320.783 127.69 318.711 127.596C313.06 127.314 307.033 124.491 301.193 121.668C300.157 121.197 299.216 120.727 298.18 120.256C297.144 119.786 296.108 119.315 295.072 118.939C289.703 116.869 276.518 112.823 269.36 120.633C265.97 124.302 265.499 129.572 265.122 133.806C264.651 139.17 264.274 144.627 263.898 149.991C263.332 158.272 262.673 166.928 261.731 175.115C261.543 176.715 261.355 178.408 261.166 180.008C260.13 188.477 258.718 196.569 253.255 202.874C250.9 205.602 247.792 207.767 244.873 209.837C242.142 211.813 239.316 213.789 236.962 216.235C231.782 221.599 229.898 228.939 231.499 238.16C231.876 240.23 232.629 242.206 233.288 244.088C233.948 245.782 234.607 247.57 234.984 249.452C235.266 251.051 235.36 252.651 235.078 254.063C234.89 255.286 234.513 256.321 233.948 257.262C233.006 258.673 231.687 259.802 230.369 260.838C230.086 261.026 229.804 261.308 229.521 261.496C226.413 264.037 223.87 267.142 221.892 270.812L222.646 270.812L222.646 271Z" fill="#C94938"></path><path d="M271.714 248.51C271.62 248.698 271.431 248.981 271.337 249.169C268.794 253.591 268.041 259.425 269.171 266.012C269.359 267.235 269.642 268.459 270.019 269.682C270.113 270.153 270.301 270.529 270.395 270.905L271.243 270.905C271.055 270.435 270.866 269.964 270.772 269.4C270.395 268.176 270.113 266.953 269.924 265.824C268.794 259.425 269.454 253.78 271.996 249.451C272.091 249.263 272.279 248.981 272.373 248.792C272.844 247.946 273.409 247.099 273.786 245.97C273.974 245.217 274.163 244.37 274.163 243.523C274.163 242.488 274.068 241.265 273.88 240.135C273.692 239.006 273.315 237.877 273.032 236.842C272.562 235.242 272.185 233.737 271.996 232.231C271.431 226.115 273.032 221.222 276.517 217.74C278.401 215.858 280.661 214.447 282.827 213.035C284.617 211.906 286.406 210.683 288.007 209.366C292.528 205.414 294.788 200.521 296.484 195.91C296.86 194.875 297.237 193.934 297.52 192.899C299.121 187.817 300.157 182.266 301.193 176.808C301.852 173.232 302.606 169.563 303.453 166.081C304.207 163.07 305.054 160.153 307.315 158.177C312.495 153.566 321.065 155.448 327.093 157.236C327.94 157.518 328.788 157.706 329.542 157.989C335.098 159.682 341.408 161.282 346.117 159.494C347.342 159.024 348.566 158.365 349.791 157.33C351.109 156.295 352.239 155.072 353.464 153.754L354.123 153.096C359.585 147.356 366.837 142.745 373.43 140.581L373.43 139.734C366.555 141.898 359.115 146.603 353.464 152.531L352.804 153.19C351.58 154.507 350.45 155.636 349.225 156.671C348.001 157.612 346.871 158.271 345.741 158.741C341.22 160.435 335.098 158.835 329.73 157.236C328.882 156.954 328.035 156.765 327.281 156.483C321.065 154.601 312.212 152.719 306.75 157.612C304.301 159.776 303.453 162.788 302.7 165.987C301.852 169.468 301.099 173.232 300.439 176.808C299.403 182.172 298.367 187.817 296.766 192.805C296.484 193.746 296.107 194.781 295.73 195.722C294.035 200.332 291.869 205.037 287.442 208.895C285.935 210.213 284.146 211.436 282.356 212.565C280.096 213.976 277.836 215.482 275.952 217.458C272.185 221.222 270.584 226.303 271.149 232.608C271.337 234.301 271.714 235.901 272.185 237.407C272.467 238.442 272.75 239.571 273.032 240.606C273.221 241.735 273.315 242.864 273.315 243.805C273.315 244.652 273.127 245.405 272.938 246.064C272.656 246.816 272.185 247.663 271.714 248.51Z" fill="#C94938"></path><path d="M311.741 232.985C313.342 238.536 317.392 243.147 320.689 246.44C327.093 252.933 332.932 256.697 339.054 258.391C345.647 260.179 354.688 259.332 359.868 253.31C360.339 252.839 360.716 252.274 361.187 251.71C362.034 250.581 362.882 249.452 364.106 248.605C366.838 246.629 370.793 247.287 373.619 248.793L373.619 247.852C370.605 246.346 366.555 245.876 363.541 247.946C362.317 248.793 361.375 250.016 360.433 251.239C360.056 251.804 359.586 252.274 359.209 252.839C354.217 258.579 345.647 259.426 339.242 257.638C333.215 255.944 327.47 252.274 321.254 245.876C318.051 242.582 314.096 238.16 312.589 232.702C310.988 227.245 312.306 221.599 315.885 218.305C318.146 216.235 321.254 215.2 324.267 214.165C327.187 213.13 330.295 212.095 332.65 210.119C335.004 208.143 336.511 205.32 338.018 202.685C339.807 199.392 341.597 196.193 344.799 194.499C348.566 192.429 353.181 193.181 357.608 193.84C358.267 193.934 358.926 194.028 359.586 194.122C362.788 194.593 370.322 195.063 373.619 190.264L373.619 188.571C373.524 188.853 373.336 189.135 373.148 189.418C370.322 194.216 362.788 193.746 359.68 193.276C359.02 193.181 358.361 193.087 357.702 192.993C353.087 192.335 348.378 191.582 344.328 193.746C340.938 195.534 339.054 198.921 337.265 202.215C335.852 204.849 334.345 207.484 332.085 209.46C329.824 211.342 326.81 212.377 323.985 213.412C320.877 214.447 317.769 215.577 315.32 217.741C311.459 221.222 310.046 227.151 311.741 232.985Z" fill="#C94938"></path></g></svg>