<svg xmlns="http://www.w3.org/2000/svg" viewBox="0 0 402 531" fill="none"><g><path d="M392.39 363.709C397.274 295.632 282.18 231.793 135.319 221.121C-11.5413 210.449 -134.555 256.985 -139.439 325.061C-144.324 393.138 -29.2292 456.976 117.631 467.648C264.492 478.321 387.505 431.785 392.39 363.709Z" stroke="url(#paint0_linear_323_446)" stroke-width="0.8" stroke-miterlimit="10"></path><path d="M382.615 349.495C384.532 282.937 269.666 225.586 126.055 221.398C-17.556 217.209 -135.53 267.769 -137.446 334.327C-139.363 400.885 -24.4967 458.236 119.114 462.425C262.725 466.613 380.699 416.053 382.615 349.495Z" stroke="url(#paint1_linear_323_446)" stroke-width="0.8" stroke-miterlimit="10"></path><path d="M120.699 457.27C261.037 454.978 373.952 400.387 372.903 335.339C371.854 270.291 257.237 219.418 116.899 221.711C-23.4384 224.003 -136.354 278.594 -135.305 343.642C-134.256 408.69 -19.6388 459.563 120.699 457.27Z" stroke="url(#paint2_linear_323_446)" stroke-width="0.8" stroke-miterlimit="10"></path><path d="M122.216 452.072C259.296 443.296 367.165 384.674 363.149 321.136C359.132 257.598 244.751 213.204 107.671 221.981C-29.4085 230.757 -137.278 289.379 -133.261 352.917C-129.245 416.455 -14.8641 460.849 122.216 452.072Z" stroke="url(#paint3_linear_323_446)" stroke-width="0.8" stroke-miterlimit="10"></path><path d="M123.703 446.893C257.54 431.642 360.381 369.002 353.403 306.983C346.425 244.964 232.272 207.051 98.434 222.302C-35.4038 237.553 -138.244 300.193 -131.267 362.213C-124.289 424.232 -10.1353 462.145 123.703 446.893Z" stroke="url(#paint4_linear_323_446)" stroke-width="0.8" stroke-miterlimit="10"></path><path d="M125.16 441.757C255.732 420.026 353.519 353.348 343.574 292.827C333.629 232.306 219.718 200.86 89.1469 222.59C-41.4247 244.321 -139.212 310.999 -129.267 371.52C-119.323 432.042 -5.41158 463.487 125.16 441.757Z" stroke="url(#paint5_linear_323_446)" stroke-width="0.8" stroke-miterlimit="10"></path><path d="M126.693 436.552C254.014 408.333 346.762 337.631 333.852 278.635C320.942 219.639 207.262 194.69 79.9416 222.909C-47.379 251.128 -140.127 321.83 -127.217 380.826C-114.307 439.822 -0.627276 464.772 126.693 436.552Z" stroke="url(#paint6_linear_323_446)" stroke-width="0.8" stroke-miterlimit="10"></path><path d="M128.186 431.396C252.239 396.703 339.934 321.969 324.058 264.472C308.182 206.976 194.747 188.491 70.6943 223.184C-53.3586 257.877 -141.053 332.612 -125.177 390.108C-109.301 447.604 4.13352 466.09 128.186 431.396Z" stroke="url(#paint7_linear_323_446)" stroke-width="0.8" stroke-miterlimit="10"></path><path d="M129.722 426.16C250.506 384.968 333.142 306.201 314.295 250.228C295.448 194.256 182.255 182.273 61.4711 223.465C-59.3125 264.657 -141.949 343.424 -123.102 399.397C-104.255 455.37 8.93824 467.352 129.722 426.16Z" stroke="url(#paint8_linear_323_446)" stroke-width="0.8" stroke-miterlimit="10"></path><path d="M131.24 420.996C248.776 373.326 326.376 290.528 304.565 236.063C282.755 181.598 169.793 176.09 52.2573 223.761C-65.2779 271.432 -142.878 354.23 -121.068 408.695C-99.2571 463.16 13.705 468.667 131.24 420.996Z" stroke="url(#paint9_linear_323_446)" stroke-width="0.8" stroke-miterlimit="10"></path><path d="M132.746 415.861C247.022 361.718 319.576 274.889 294.799 221.922C270.022 168.955 157.296 169.908 43.0198 224.051C-71.2566 278.194 -143.81 365.023 -119.033 417.99C-94.2557 470.957 18.4695 470.004 132.746 415.861Z" stroke="url(#paint10_linear_323_446)" stroke-width="0.8" stroke-miterlimit="10"></path><path d="M134.277 410.644C245.288 350.01 312.786 259.145 285.038 207.691C257.29 156.238 144.804 163.68 33.793 224.315C-77.2181 284.949 -144.716 375.814 -116.968 427.268C-89.2206 478.721 23.2658 471.278 134.277 410.644Z" stroke="url(#paint11_linear_323_446)" stroke-width="0.8" stroke-miterlimit="10"></path><path d="M135.763 405.473C243.521 338.364 305.985 243.482 275.282 193.548C244.578 143.613 132.333 157.536 24.5749 224.645C-83.1828 291.754 -145.647 386.636 -114.943 436.571C-84.2395 486.505 28.0057 472.582 135.763 405.473Z" stroke="url(#paint12_linear_323_446)" stroke-width="0.8" stroke-miterlimit="10"></path><path d="M137.301 400.246C241.796 326.636 299.209 227.715 265.535 179.298C231.861 130.881 119.852 151.303 15.3564 224.912C-89.1392 298.521 -146.551 397.443 -112.877 445.86C-79.2034 494.277 32.8052 473.855 137.301 400.246Z" stroke="url(#paint13_linear_323_446)" stroke-width="0.8" stroke-miterlimit="10"></path><path d="M138.77 395.029C240.009 314.938 292.373 211.98 255.728 165.064C219.084 118.149 107.307 145.043 6.06793 225.133C-95.1712 305.224 -147.535 408.182 -110.891 455.098C-74.2463 502.013 37.5305 475.119 138.77 395.029Z" stroke="url(#paint14_linear_323_446)" stroke-width="0.8" stroke-miterlimit="10"></path><path d="M140.235 389.884C238.223 303.309 285.555 196.325 245.954 150.927C206.353 105.53 94.8141 138.91 -3.17437 225.485C-101.163 312.059 -148.495 419.044 -108.893 464.441C-69.2921 509.839 42.2466 476.458 140.235 389.884Z" stroke="url(#paint15_linear_323_446)" stroke-width="0.8" stroke-miterlimit="10"></path><path d="M141.748 384.685C236.464 291.632 278.742 180.624 236.177 136.743C193.613 92.8623 82.3247 132.724 -12.3916 225.778C-107.108 318.831 -149.385 429.838 -106.821 473.719C-64.2562 517.6 47.0318 477.738 141.748 384.685Z" stroke="url(#paint16_linear_323_446)" stroke-width="0.8" stroke-miterlimit="10"></path><path d="M143.266 379.507C234.727 279.968 271.957 164.923 226.423 122.548C180.888 80.1722 69.8318 126.512 -21.6287 226.052C-113.089 325.591 -150.319 440.636 -104.785 483.011C-59.2505 525.387 51.8058 479.047 143.266 379.507Z" stroke="url(#paint17_linear_323_446)" stroke-width="0.8" stroke-miterlimit="10"></path><path d="M144.753 374.315C232.959 268.297 265.157 149.229 216.668 108.369C168.179 67.5086 57.3656 120.329 -30.8408 226.347C-119.047 332.365 -151.245 451.433 -102.756 492.294C-54.267 533.154 56.5465 480.333 144.753 374.315Z" stroke="url(#paint18_linear_323_446)" stroke-width="0.8" stroke-miterlimit="10"></path><path d="M146.261 369.103C231.202 256.603 258.349 133.505 206.895 94.1572C155.441 54.8089 44.8707 114.11 -40.071 226.61C-125.013 339.11 -152.16 462.207 -100.706 501.555C-49.2517 540.904 61.3189 481.602 146.261 369.103Z" stroke="url(#paint19_linear_323_446)" stroke-width="0.8" stroke-miterlimit="10"></path><path d="M147.769 363.917C229.446 244.94 251.543 117.818 197.125 79.9806C142.706 42.1433 32.3797 107.92 -49.297 226.896C-130.974 345.872 -153.071 472.995 -98.6524 510.832C-44.234 548.669 66.0928 482.893 147.769 363.917Z" stroke="url(#paint20_linear_323_446)" stroke-width="0.8" stroke-miterlimit="10"></path><path d="M149.288 358.821C227.728 233.367 244.796 102.207 187.412 65.8671C130.027 29.5269 19.9191 101.768 -58.5206 227.222C-136.96 352.676 -154.029 483.836 -96.6439 520.176C-39.2591 556.516 70.8485 484.275 149.288 358.821Z" stroke="url(#paint21_linear_323_446)" stroke-width="0.8" stroke-miterlimit="10"></path></g><defs><linearGradient id="paint0_linear_323_446" x1="-13.3401" y1="243.339" x2="-14.1527" y2="474.118" gradientUnits="userSpaceOnUse"><stop stop-color="#E24C4A"></stop><stop offset="1" stop-color="#386BB7"></stop></linearGradient><linearGradient id="paint1_linear_323_446" x1="-17.9352" y1="249.341" x2="-8.96554" y2="474.301" gradientUnits="userSpaceOnUse"><stop stop-color="#E24C4A"></stop><stop offset="1" stop-color="#386BB7"></stop></linearGradient><linearGradient id="paint2_linear_323_446" x1="304.141" y1="271.645" x2="-124.658" y2="417.292" gradientUnits="userSpaceOnUse"><stop stop-color="#E24C4A"></stop><stop offset="1" stop-color="#386BB7"></stop></linearGradient><linearGradient id="paint3_linear_323_446" x1="293.002" y1="262.074" x2="-119.543" y2="424.227" gradientUnits="userSpaceOnUse"><stop stop-color="#E24C4A"></stop><stop offset="1" stop-color="#386BB7"></stop></linearGradient><linearGradient id="paint4_linear_323_446" x1="281.871" y1="252.559" x2="-114.465" y2="431.257" gradientUnits="userSpaceOnUse"><stop stop-color="#E24C4A"></stop><stop offset="1" stop-color="#386BB7"></stop></linearGradient><linearGradient id="paint5_linear_323_446" x1="270.662" y1="243.021" x2="-109.44" y2="438.23" gradientUnits="userSpaceOnUse"><stop stop-color="#E24C4A"></stop><stop offset="1" stop-color="#386BB7"></stop></linearGradient><linearGradient id="paint6_linear_323_446" x1="259.555" y1="233.48" x2="-104.304" y2="445.323" gradientUnits="userSpaceOnUse"><stop stop-color="#E24C4A"></stop><stop offset="1" stop-color="#386BB7"></stop></linearGradient><linearGradient id="paint7_linear_323_446" x1="248.383" y1="223.935" x2="-99.2475" y2="452.333" gradientUnits="userSpaceOnUse"><stop stop-color="#E24C4A"></stop><stop offset="1" stop-color="#386BB7"></stop></linearGradient><linearGradient id="paint8_linear_323_446" x1="237.238" y1="214.345" x2="-94.0919" y2="459.435" gradientUnits="userSpaceOnUse"><stop stop-color="#E24C4A"></stop><stop offset="1" stop-color="#386BB7"></stop></linearGradient><linearGradient id="paint9_linear_323_446" x1="226.123" y1="204.808" x2="-88.9872" y2="466.574" gradientUnits="userSpaceOnUse"><stop stop-color="#E24C4A"></stop><stop offset="1" stop-color="#386BB7"></stop></linearGradient><linearGradient id="paint10_linear_323_446" x1="214.974" y1="195.281" x2="-83.9056" y2="473.703" gradientUnits="userSpaceOnUse"><stop stop-color="#E24C4A"></stop><stop offset="1" stop-color="#386BB7"></stop></linearGradient><linearGradient id="paint11_linear_323_446" x1="203.83" y1="185.691" x2="-78.7342" y2="480.864" gradientUnits="userSpaceOnUse"><stop stop-color="#E24C4A"></stop><stop offset="1" stop-color="#386BB7"></stop></linearGradient><linearGradient id="paint12_linear_323_446" x1="192.698" y1="176.185" x2="-73.5512" y2="488.102" gradientUnits="userSpaceOnUse"><stop stop-color="#E24C4A"></stop><stop offset="1" stop-color="#386BB7"></stop></linearGradient><linearGradient id="paint13_linear_323_446" x1="181.566" y1="166.583" x2="-68.3004" y2="495.325" gradientUnits="userSpaceOnUse"><stop stop-color="#E24C4A"></stop><stop offset="1" stop-color="#386BB7"></stop></linearGradient><linearGradient id="paint14_linear_323_446" x1="170.372" y1="156.973" x2="-63.1488" y2="502.488" gradientUnits="userSpaceOnUse"><stop stop-color="#E24C4A"></stop><stop offset="1" stop-color="#386BB7"></stop></linearGradient><linearGradient id="paint15_linear_323_446" x1="159.221" y1="147.477" x2="-57.8885" y2="509.799" gradientUnits="userSpaceOnUse"><stop stop-color="#E24C4A"></stop><stop offset="1" stop-color="#386BB7"></stop></linearGradient><linearGradient id="paint16_linear_323_446" x1="148.071" y1="137.93" x2="-52.5637" y2="517.015" gradientUnits="userSpaceOnUse"><stop stop-color="#E24C4A"></stop><stop offset="1" stop-color="#386BB7"></stop></linearGradient><linearGradient id="paint17_linear_323_446" x1="136.929" y1="128.364" x2="-47.2562" y2="524.246" gradientUnits="userSpaceOnUse"><stop stop-color="#E24C4A"></stop><stop offset="1" stop-color="#386BB7"></stop></linearGradient><linearGradient id="paint18_linear_323_446" x1="125.801" y1="118.821" x2="-41.8845" y2="531.475" gradientUnits="userSpaceOnUse"><stop stop-color="#E24C4A"></stop><stop offset="1" stop-color="#386BB7"></stop></linearGradient><linearGradient id="paint19_linear_323_446" x1="114.65" y1="109.243" x2="-36.5026" y2="538.655" gradientUnits="userSpaceOnUse"><stop stop-color="#E24C4A"></stop><stop offset="1" stop-color="#386BB7"></stop></linearGradient><linearGradient id="paint20_linear_323_446" x1="103.502" y1="99.6969" x2="-31.1048" y2="545.837" gradientUnits="userSpaceOnUse"><stop stop-color="#E24C4A"></stop><stop offset="1" stop-color="#386BB7"></stop></linearGradient><linearGradient id="paint21_linear_323_446" x1="92.3952" y1="90.2004" x2="-25.7381" y2="553.085" gradientUnits="userSpaceOnUse"><stop stop-color="#E24C4A"></stop><stop offset="1" stop-color="#386BB7"></stop></linearGradient></defs></svg>