<svg xmlns="http://www.w3.org/2000/svg" viewBox="0 0 904 655" fill="none"><path d="M104.957 547.879C110.193 566.983 115.201 586.997 120.436 609.058C121.802 614.743 122.485 620.884 123.395 627.252C124.534 636.577 125.672 646.356 128.859 654.771L131.135 654.771C127.72 646.129 126.582 636.577 125.444 627.025C124.761 620.429 123.851 614.288 122.485 608.603C117.249 586.542 112.014 566.528 107.006 547.424C105.412 541.283 101.315 532.641 96.5346 522.634C83.1041 494.433 64.8933 455.997 87.6568 443.033C94.7135 438.94 103.819 439.849 113.38 440.986C115.656 441.214 117.705 441.441 119.981 441.669C124.078 441.896 127.265 442.124 130.224 441.669C149.346 440.077 175.751 437.802 199.425 430.979C208.986 428.25 218.091 424.611 226.742 420.29C262.48 402.096 285.927 374.577 289.114 346.603C290.024 338.188 289.341 329.545 288.658 321.358C287.52 306.575 286.154 292.702 294.121 278.828C302.999 263.136 322.121 252.901 339.193 244.714C371.062 229.249 412.036 207.87 448.23 181.261C458.018 173.983 466.669 166.023 475.091 158.29C481.692 152.377 488.522 146.009 495.806 140.096C502.407 134.637 510.147 129.861 517.659 125.313C524.033 121.446 530.406 117.353 536.325 113.032C541.788 108.938 546.568 104.389 551.121 100.068C560.682 90.9708 569.559 82.5558 584.128 77.7798C597.103 73.4586 609.851 68.2277 624.419 61.6323C634.663 56.8562 644.907 51.6252 655.833 46.1669L661.979 42.9829C682.922 32.2937 700.449 26.608 716.612 25.4708C733.001 24.1062 749.846 27.2902 765.781 30.7017L769.423 31.6114C783.991 34.7954 797.649 37.9795 811.763 36.8424C820.641 36.16 829.063 33.6583 837.486 31.1566C847.729 28.2 858.2 25.2434 869.582 25.2434C884.378 25.4708 894.622 30.0194 903.955 36.8424L903.955 34.3406C894.622 27.7451 884.378 23.424 869.582 23.1965C857.973 22.9691 847.274 26.153 837.03 29.1096C828.835 31.3839 820.413 33.8857 811.763 34.7954C798.105 35.9326 784.447 32.976 770.106 29.792L766.464 28.8823C750.529 25.4708 733.456 22.2868 716.612 23.6513C699.994 25.0159 682.466 30.7017 661.296 41.3909L655.15 44.575C644.224 50.0333 633.98 55.2642 623.737 60.0402C609.396 66.6357 596.648 71.6392 583.673 75.9603C568.649 80.9638 559.544 89.6062 549.983 98.7034C545.43 103.025 540.65 107.573 535.414 111.44C529.723 115.761 523.122 119.854 516.976 123.721C509.464 128.269 501.724 133.045 494.895 138.731C487.611 144.644 480.782 150.785 474.181 156.926C465.758 164.658 457.336 172.391 447.547 179.669C411.581 206.278 370.379 227.429 338.738 242.894C321.438 251.309 302.089 261.771 292.756 277.919C284.561 292.247 285.927 307.03 287.065 321.585C287.748 329.773 288.431 338.188 287.52 346.603C284.333 373.894 261.342 400.731 226.059 418.698C217.636 423.019 208.759 426.431 199.198 429.16C175.524 435.755 149.573 438.03 130.452 439.622C127.493 439.849 124.306 439.849 120.436 439.622C118.16 439.394 116.111 439.167 113.835 438.94C104.047 437.802 94.7135 436.893 86.9739 441.214C62.617 455.087 81.283 494.66 94.9411 523.316C99.2661 533.551 103.364 541.966 104.957 547.879Z" fill="#2D2D2D"></path><path d="M179.167 545.377C183.264 558.568 187.589 572.669 192.825 591.091C194.191 595.412 195.101 599.96 196.012 604.736C198.288 615.653 200.564 627.025 207.393 636.122C213.084 643.854 220.369 648.403 226.742 652.042C229.019 653.179 231.295 654.089 233.344 654.771L239.49 654.771C238.124 654.316 236.986 653.861 235.62 653.407C232.888 652.497 230.385 651.587 227.653 650.223C221.507 646.811 214.222 642.262 208.987 634.985C202.613 626.115 200.337 615.198 198.06 604.282C197.15 599.733 196.012 594.729 194.873 590.408C189.638 571.986 185.313 557.886 181.215 544.695C179.622 539.236 175.98 532.186 171.882 523.999C161.867 503.985 149.347 479.195 158.224 466.459C162.094 461 167.33 458.953 174.842 456.679L175.069 456.679C177.118 455.997 179.394 455.315 181.443 454.632C189.866 451.903 199.654 449.856 210.125 447.582C217.409 445.99 224.921 444.398 231.978 442.578C239.945 440.532 246.774 438.257 252.92 435.756C280.237 424.611 300.951 410.283 311.195 395.728C314.382 391.407 316.658 386.858 318.707 382.537C322.804 374.804 326.446 367.299 334.869 360.021C344.202 351.834 358.315 345.693 372.201 340.235C416.134 323.177 450.507 302.481 474.864 279.056C483.287 270.868 488.978 261.544 494.668 252.447C498.994 245.396 503.546 238.118 509.237 231.295C514.473 225.155 521.529 220.379 528.586 215.603C534.505 211.736 540.423 207.643 545.203 202.639C549.984 197.863 552.943 192.405 556.13 186.947C561.821 176.712 567.284 166.933 583.218 164.658C598.242 162.611 610.99 159.655 623.51 155.334C635.119 151.467 646.956 145.782 659.704 138.276C677.687 127.587 692.938 119.627 709.1 115.306C724.352 111.212 739.603 110.53 755.538 113.032C763.05 114.169 770.562 116.216 777.846 118.035C784.447 119.855 791.504 121.447 798.106 122.584C817.682 125.995 835.893 124.858 854.104 123.266C858.884 122.811 863.437 122.356 867.762 121.901C881.192 120.309 892.119 119.172 903.728 121.901L903.728 119.855C891.891 117.125 880.737 118.263 867.534 119.855C863.209 120.309 858.884 120.764 853.876 121.219C835.665 122.811 817.91 123.948 798.333 120.537C791.732 119.4 785.13 117.808 778.074 115.988C770.789 114.169 763.277 112.122 755.538 110.985C739.148 108.256 723.669 109.165 708.19 113.259C691.8 117.808 676.321 125.768 658.338 136.457C645.818 143.962 634.209 149.42 622.599 153.287C610.307 157.381 597.787 160.337 582.763 162.384C565.691 164.658 560 174.893 554.081 185.582C551.122 190.813 548.163 196.271 543.61 200.82C539.057 205.596 533.366 209.462 527.22 213.556C520.164 218.332 513.107 223.335 507.644 229.703C501.725 236.526 497.172 243.804 492.847 251.082C487.384 259.952 481.466 269.276 473.271 277.236C449.142 300.662 414.996 320.903 371.29 337.96C357.177 343.419 343.064 349.559 333.275 358.202C324.625 365.934 320.528 373.894 316.658 381.4C314.382 385.721 312.333 390.042 309.146 394.363C299.358 408.464 278.415 422.792 251.782 433.709C245.864 436.21 239.035 438.257 231.295 440.304C224.238 442.124 216.726 443.716 209.442 445.308C198.971 447.582 189.183 449.629 180.533 452.358C178.256 453.04 176.207 453.723 174.159 454.405L173.931 454.405C166.192 456.907 160.273 458.953 156.176 464.867C146.615 478.512 159.363 503.985 169.606 524.226C173.931 533.096 177.346 540.146 179.167 545.377Z" fill="#2D2D2D"></path><path d="M253.375 542.875C260.204 560.615 267.033 578.127 273.862 595.639C278.87 608.148 283.651 620.657 288.659 633.165C291.618 641.125 294.805 648.403 298.675 654.771L300.951 654.771C296.854 648.176 293.667 640.67 290.48 632.483C285.699 619.974 280.691 607.466 275.683 594.957C268.854 577.445 262.025 559.705 255.196 542.193C252.92 536.507 248.823 529.684 244.498 522.634C234.026 505.349 222.189 486.018 229.701 471.69C236.075 459.636 259.749 455.087 273.635 452.358C275.456 451.903 277.049 451.676 278.643 451.448C297.992 447.354 318.251 445.99 337.828 444.398C360.136 442.806 383.127 440.986 404.752 435.528C445.044 425.294 480.099 403.915 500.814 376.624C507.871 367.526 510.603 356.837 513.562 346.375C515.838 338.188 518.115 329.773 522.212 322.268C526.082 315.445 532.683 310.441 539.057 305.665C544.52 301.572 549.983 297.478 553.853 292.019C557.723 286.561 559.089 279.738 560.455 273.37C562.731 261.316 564.78 251.082 582.307 251.537C609.851 252.447 631.249 251.537 657.199 233.797C659.931 231.75 662.89 229.931 665.622 227.884C690.434 210.599 715.929 192.632 745.066 195.589C758.952 196.954 772.155 203.322 785.13 209.235C802.203 217.195 819.958 225.61 838.852 221.971C849.095 219.924 858.884 214.466 867.989 209.235C879.826 202.412 891.208 196.044 903.273 196.726L903.273 194.679C890.525 193.997 878.46 200.82 866.851 207.415C857.746 212.646 848.185 218.105 838.169 219.924C819.958 223.335 803.341 215.603 785.813 207.415C772.838 201.275 759.407 194.907 745.066 193.542C715.019 190.585 689.068 208.78 664.028 226.292C661.297 228.339 658.338 230.158 655.606 232.205C630.111 249.717 608.941 250.4 581.852 249.717C562.731 249.035 560.455 261.316 557.951 273.143C556.812 279.511 555.447 285.879 551.804 291.11C548.162 296.113 542.927 300.207 537.463 304.301C530.862 309.077 524.261 314.308 520.163 321.585C515.838 329.318 513.562 337.733 511.285 346.148C508.554 356.382 505.595 366.844 498.993 375.714C478.506 402.778 443.906 423.929 404.069 433.936C382.672 439.394 359.681 440.986 337.373 442.578C317.568 443.943 297.309 445.535 277.96 449.629C276.366 449.856 274.773 450.311 272.952 450.538C257.7 453.495 234.482 458.044 227.425 471.007C219.23 486.245 231.522 506.259 242.221 523.771C247.002 530.594 251.099 537.417 253.375 542.875Z" fill="#2D2D2D"></path><path d="M389.046 599.052C392.005 606.103 395.192 613.835 399.289 622.25C403.387 631.347 408.622 641.582 416.589 648.859C418.183 650.224 419.549 651.589 421.142 652.726C422.28 653.635 423.418 654.318 424.784 655L428.882 655C426.605 653.863 424.329 652.498 422.508 651.134C420.914 649.997 419.549 648.859 418.183 647.495C410.443 640.217 405.435 630.21 401.338 621.34C397.24 612.925 394.054 605.193 391.094 598.142L390.411 596.778C383.582 579.721 376.526 561.981 376.298 545.833C376.298 534.007 377.436 526.274 378.802 515.13C379.713 507.853 381.761 499.665 388.363 492.842C392.688 488.521 399.517 484.882 408.395 482.608C414.541 481.016 420.687 479.651 426.833 478.287C432.296 477.149 437.304 476.012 441.629 474.875C450.279 472.601 458.702 470.326 466.897 467.597C475.774 464.641 481.465 460.092 485.79 456.681C486.701 455.998 487.384 455.316 488.294 454.861C491.254 452.587 493.53 451.45 496.034 450.313C496.945 449.858 498.083 449.403 498.993 448.721C500.814 447.811 502.18 446.219 503.774 444.627C505.595 442.807 507.871 440.533 511.058 438.031C516.976 433.71 524.033 429.389 531.317 424.613C548.39 413.924 567.511 401.642 581.852 386.177C586.177 381.401 589.137 376.17 591.413 371.849C592.551 369.802 593.462 367.755 594.6 365.481C597.559 359.568 600.291 353.882 604.388 348.879C608.03 344.33 613.721 341.146 619.184 338.189C623.509 335.688 628.062 333.186 631.477 330.002C635.119 326.59 636.712 322.497 638.533 318.403C641.72 310.898 644.452 304.53 657.882 305.439C679.735 307.031 698.174 307.259 719.116 295.887C723.213 293.613 727.538 291.111 731.864 288.837C740.969 283.606 750.53 278.148 760.09 273.826C771.7 268.596 781.26 265.866 790.593 265.639C801.065 265.184 811.08 267.686 820.641 270.188C833.844 273.599 847.502 277.011 862.071 272.689C865.485 271.78 869.127 270.188 873.225 268.141C876.639 266.321 880.054 264.502 883.241 262.455C890.07 258.589 896.443 254.722 903.272 252.675L903.272 250.629C895.988 252.675 889.159 256.769 882.33 260.636C879.143 262.455 875.729 264.502 872.314 266.094C868.217 268.141 864.802 269.505 861.615 270.642C847.502 274.736 834.754 271.552 821.324 268.141C811.536 265.639 801.292 263.137 790.593 263.592C781.033 264.047 771.244 266.549 759.407 272.007C749.619 276.328 740.058 281.787 730.953 287.245C726.856 289.519 722.531 292.021 718.433 294.295C697.946 305.439 679.963 305.212 658.338 303.62C643.769 302.483 640.354 310.215 637.168 317.721C635.574 321.587 633.753 325.453 630.566 328.637C627.379 331.594 623.054 334.096 618.729 336.597C613.038 339.781 607.347 342.965 603.25 347.741C598.925 352.972 595.966 358.886 593.234 364.799C592.323 366.846 591.185 368.892 590.047 370.939C587.771 375.261 585.039 380.264 580.714 384.813C566.828 400.05 547.479 412.332 530.634 423.021C523.35 427.57 516.293 432.118 510.375 436.439C506.96 438.941 504.684 441.215 502.863 443.262C501.27 444.854 499.904 446.219 498.538 447.129C497.627 447.583 496.717 448.038 495.579 448.721C493.075 449.858 490.798 451.222 487.611 453.497C486.929 453.951 486.018 454.634 485.108 455.543C481.01 458.728 475.547 463.276 466.897 466.005C458.702 468.734 450.279 471.009 441.629 473.283C437.304 474.42 432.296 475.557 426.833 476.695C420.687 478.059 414.313 479.424 408.395 481.016C399.289 483.517 392.005 487.156 387.452 491.705C380.396 498.755 378.347 507.398 377.209 515.13C375.615 526.274 374.705 534.234 374.705 546.061C374.705 562.663 381.989 580.403 388.818 597.915L389.046 599.052Z" fill="#2D2D2D"></path><path d="M510.148 611.333C513.562 617.019 518.798 625.207 526.082 632.03C527.22 633.167 528.586 634.304 529.724 635.214C532.001 637.033 534.505 638.625 537.009 640.217C539.968 642.037 542.927 644.083 545.659 646.358C548.845 649.087 551.349 652.043 553.626 655L556.13 655C553.626 651.361 550.667 647.95 547.024 644.766C544.293 642.491 541.106 640.445 538.147 638.398C535.87 636.806 533.366 635.214 531.09 633.394C529.952 632.484 528.586 631.347 527.448 630.438C520.391 623.842 515.156 615.882 511.969 610.196C508.099 603.601 504.912 597.688 502.636 592.002C497.4 579.493 492.392 561.754 497.628 549.472C501.27 541.285 507.644 538.556 514.473 535.826C518.115 534.234 521.985 532.87 525.399 530.368C527.903 528.549 530.179 526.729 532.911 524.682C537.236 521.271 542.016 517.405 547.48 514.221C554.081 510.582 561.821 507.852 570.016 506.488C582.08 504.441 594.6 502.394 604.844 499.21C614.404 496.254 622.827 492.615 630.339 488.521C641.038 482.608 642.403 470.781 639.217 464.868C636.713 460.32 632.843 458.273 628.973 456.453C628.062 455.998 627.152 455.543 626.241 455.089C620.095 451.677 617.364 447.129 617.364 440.988C625.558 427.57 646.956 409.375 662.435 396.639C665.395 394.137 667.898 391.863 670.402 389.589L672.451 387.769C677.004 383.675 681.101 379.582 686.337 376.625C690.207 374.351 695.215 372.986 699.995 371.849C703.41 370.939 706.369 370.257 709.328 369.12C712.287 367.983 714.564 366.391 716.612 364.799C720.937 361.842 724.58 359.113 733.913 360.477C750.302 362.979 765.326 364.571 781.261 359.113C790.594 355.929 800.837 351.835 814.268 345.695C822.007 342.056 829.292 338.644 836.348 336.597C843.177 334.55 849.779 333.413 856.152 332.504C865.485 331.139 875.046 329.547 885.745 324.543C888.704 323.179 891.436 321.587 893.712 320.222C894.85 319.54 895.988 318.858 897.127 318.175C899.403 316.811 901.452 315.674 903.728 314.309L903.728 312.035C901.224 313.399 898.72 314.991 896.216 316.356C895.078 317.038 893.94 317.721 892.802 318.403C890.525 319.767 887.794 321.359 885.062 322.724C874.818 327.728 865.713 329.092 856.152 330.457C849.779 331.366 843.177 332.504 836.121 334.55C828.836 336.825 821.324 340.236 813.585 343.875C800.154 350.016 790.138 354.109 780.805 357.294C765.099 362.524 750.985 360.932 734.368 358.431C724.124 356.839 720.027 360.023 715.474 363.207C713.425 364.571 711.377 366.163 708.645 367.3C705.913 368.438 702.954 369.12 699.767 370.03C694.759 371.394 689.751 372.531 685.654 375.033C680.191 378.217 675.866 382.311 671.313 386.632L669.264 388.451C666.76 390.726 664.484 393 661.525 395.502C645.818 408.238 623.965 426.887 615.77 440.533L615.542 440.76L615.542 440.988C615.315 448.038 618.502 453.269 625.331 457.135C626.241 457.59 627.152 458.045 628.062 458.5C631.705 460.32 635.347 462.139 637.395 466.233C640.127 471.464 638.989 481.925 629.428 487.384C622.144 491.478 613.949 494.889 604.388 497.846C594.145 501.03 581.625 503.076 569.788 505.123C561.365 506.488 553.398 509.217 546.569 513.083C540.878 516.267 536.098 520.134 531.773 523.545C529.269 525.592 526.993 527.412 524.489 529.004C521.302 531.278 517.432 532.87 514.017 534.234C506.961 537.191 499.904 540.148 496.034 549.017C490.343 561.981 495.579 579.948 501.042 592.912C503.091 598.597 506.05 604.738 510.148 611.333Z" fill="#2D2D2D"></path><path d="M635.346 614.972C651.964 630.438 670.63 648.177 694.987 654.545C695.442 654.773 696.125 654.773 696.58 655L706.824 655C702.954 654.318 699.084 653.636 695.442 652.726C671.768 646.358 653.102 628.846 636.712 613.608C628.29 605.648 618.729 596.778 613.949 585.861C609.624 576.082 609.396 561.754 618.501 553.339C627.152 545.379 639.444 545.606 652.647 545.833C659.02 546.061 665.622 546.061 671.768 545.151C681.556 543.787 690.434 540.83 699.084 538.101C709.783 534.689 719.799 531.278 731.181 530.596C758.269 528.776 777.39 522.181 793.097 509.672C796.967 506.488 799.243 501.712 799.243 496.254C799.243 488.748 795.146 480.788 789 476.012C780.577 469.417 769.879 467.142 759.407 464.641C757.131 464.186 755.082 463.731 752.806 463.049C736.644 458.955 726.856 452.814 722.758 443.717C719.116 435.53 721.62 428.024 724.352 423.248C729.815 413.696 740.514 406.191 751.668 404.372C768.968 401.415 786.496 407.328 803.341 413.014C805.162 413.696 807.211 414.379 809.032 414.833C826.56 420.747 849.095 426.205 867.534 417.108C878.916 411.649 886.655 401.642 894.395 392.09C897.126 388.451 900.086 384.813 903.272 381.401L903.272 378.445C899.63 382.311 896.216 386.632 892.801 390.953C885.062 400.733 877.777 410.057 866.851 415.516C848.868 424.158 827.015 418.927 809.942 413.241C808.121 412.559 806.072 411.877 804.251 411.422C787.179 405.736 769.423 399.596 751.668 402.552C739.831 404.599 728.677 412.332 722.986 422.339C718.888 429.844 718.205 437.576 721.165 444.627C725.49 454.406 735.733 461.002 752.578 465.096C754.855 465.55 756.903 466.233 759.18 466.688C769.423 468.962 779.894 471.464 787.862 477.604C793.553 481.925 797.195 489.431 797.195 496.254C797.195 499.665 796.284 504.669 791.959 508.08C776.48 520.361 757.586 526.729 731.181 528.776C719.344 529.686 708.872 533.097 698.401 536.509C689.751 539.238 680.873 542.195 671.313 543.559C665.394 544.469 658.793 544.241 652.647 544.241C639.671 544.014 626.469 543.787 617.136 552.201C607.347 561.299 607.575 576.309 612.128 586.998C617.136 597.915 626.696 607.012 635.346 614.972Z" fill="#2D2D2D"></path><g opacity="0.4"><path d="M2.75031 655C5.48194 632.03 9.57935 609.059 16.4084 586.998C34.1639 530.368 68.0814 486.929 112.243 464.868C140.014 450.995 171.655 445.537 202.158 440.533C216.727 438.031 231.978 435.53 246.547 432.118C302.545 418.7 341.471 388.679 350.349 351.38C353.763 337.507 353.308 322.497 352.625 307.941C351.942 284.288 351.031 261.773 366.055 244.715C379.486 229.25 402.249 223.109 424.102 217.196C452.329 209.464 479.19 202.186 483.97 176.259C486.702 161.931 480.1 148.512 473.727 135.321C468.719 124.859 463.483 114.17 462.8 103.026C460.524 64.8178 507.189 43.4394 547.935 36.8438L548.846 36.6164C582.308 31.1581 622.6 24.5626 643.087 0.227516L640.355 0.227516C619.868 22.9706 580.715 29.3387 548.391 34.5695L547.48 34.7969C506.051 41.6198 458.475 63.6806 460.751 103.026C461.434 114.625 466.67 125.542 471.905 136.004C478.279 149.422 484.425 161.931 481.921 175.576C477.141 200.366 451.191 207.417 423.419 214.922C401.111 221.063 378.12 227.203 364.462 243.123C348.983 260.863 349.893 283.606 350.576 307.714C351.031 322.042 351.487 337.052 348.3 350.698C339.422 387.087 301.179 416.88 245.864 429.844C231.296 433.255 216.272 435.757 201.475 438.259C170.745 443.49 138.876 448.948 110.877 462.821C66.2604 485.109 31.8876 529.004 14.132 586.089C7.07538 608.604 2.97785 631.575 0.246216 654.773L2.75031 654.773L2.75031 655Z" fill="#2D2D2D"></path><path d="M157.315 655L159.364 655C159.136 651.589 158.908 648.405 158.681 645.221C158.225 639.535 157.543 633.622 157.543 627.708C157.543 605.42 162.095 584.497 170.745 565.62C188.729 526.729 213.996 494.889 243.816 473.738C246.775 471.691 249.735 469.644 252.921 467.825C272.498 455.543 293.213 447.583 313.017 440.078C324.399 435.757 336.236 431.208 347.39 425.977C354.902 422.339 362.186 418.472 369.015 414.151C395.649 397.094 412.266 375.488 417.274 351.38C419.55 340.009 419.323 327.727 418.867 315.901C418.412 296.569 417.957 278.148 427.973 263.365C436.85 250.174 451.874 242.896 466.215 235.846C479.646 229.25 492.393 223.109 500.133 212.42C503.775 207.644 505.824 202.413 506.962 196.5C508.783 185.583 505.141 175.349 501.499 165.342C498.084 155.563 494.897 146.465 496.263 136.913C500.133 109.394 533.595 102.116 553.172 100.297C566.147 99.1598 580.26 99.6146 593.463 100.524C602.796 101.207 616.91 101.661 631.251 99.3872C662.209 94.1563 687.476 77.3264 702.045 52.3091C707.281 43.2118 710.695 33.8872 713.882 24.79C716.614 17.0573 719.345 9.77953 722.987 2.95659C723.443 2.04686 724.126 0.909779 724.808 4.95911e-05L722.532 4.93921e-05C722.077 0.6823 721.622 1.36461 721.394 2.04692C717.752 8.8698 715.02 16.375 712.288 24.1077C709.102 32.9775 705.687 42.3021 700.679 51.1719C686.566 75.7344 661.981 92.1094 631.478 97.3403C617.365 99.6146 603.479 99.1598 594.146 98.4775C580.943 97.5677 566.83 96.8854 553.627 98.25C533.368 100.069 498.995 107.575 494.897 136.458C493.532 146.465 496.946 156.245 500.361 165.797C503.775 175.576 507.417 185.811 505.596 196.045C504.686 201.731 502.637 206.734 499.222 211.056C491.71 221.29 479.19 227.431 465.988 233.799C451.191 241.076 436.168 248.354 426.835 262C416.591 277.238 417.046 296.797 417.501 315.674C417.729 327.5 418.184 339.554 415.908 350.698C411.128 374.123 394.966 395.502 368.56 412.104C361.959 416.425 354.674 420.292 347.162 423.703C336.008 428.934 324.854 433.255 312.789 437.576C292.758 445.082 272.043 453.042 252.239 465.55C249.279 467.37 246.092 469.417 243.133 471.691C213.085 493.069 187.59 525.137 169.38 564.255C160.502 583.359 155.949 604.51 155.949 627.254C155.949 633.394 156.404 639.307 157.087 644.993C156.86 648.632 157.087 651.816 157.315 655Z" fill="#2D2D2D"></path><path d="M313.017 626.344C314.383 631.802 315.976 637.26 316.659 642.946C317.114 647.267 317.114 651.134 316.659 655L318.708 655C319.163 651.134 319.163 647.04 318.708 642.719C318.025 636.806 316.431 631.347 315.065 625.889C313.472 620.431 312.106 614.745 311.423 609.059C308.692 584.497 313.244 562.663 325.081 544.241C342.837 516.95 367.649 493.524 387.226 476.24C389.274 474.42 391.323 472.601 393.599 470.781C397.242 467.597 400.884 464.413 404.526 461.229C421.143 446.901 435.484 434.392 448.459 420.064C452.329 415.743 455.971 411.195 459.386 406.646C473.272 388.224 481.466 370.257 483.743 351.835C484.881 342.965 484.881 333.413 484.653 324.316C484.426 309.306 484.426 294.978 489.434 282.469C493.986 271.325 501.271 263.137 508.327 254.95C515.384 247.217 521.758 239.712 525.855 229.932C527.676 225.611 528.814 221.517 529.27 217.196C530.18 210.146 529.27 203.096 528.132 196.273C526.766 187.403 525.628 178.761 528.814 170.8C538.148 147.148 571.61 146.01 597.56 152.151C605.527 153.971 613.722 156.7 621.689 159.201C627.153 161.021 632.616 162.613 638.079 164.205C652.875 168.526 665.395 169.891 677.46 168.526C704.321 165.57 727.767 149.649 750.986 118.719C754.173 114.398 757.132 110.304 760.091 105.983C768.286 94.1564 776.253 83.0123 786.497 75.0522C789.229 73.0053 792.415 70.9584 796.058 68.9116C803.57 64.8178 811.537 62.0886 819.276 59.8143C851.145 50.0348 879.144 44.5765 903.046 43.2119L903.046 41.165C878.917 42.5297 850.69 47.988 818.821 57.7674C811.082 60.2692 802.659 62.9983 795.147 67.0921C791.277 69.139 788.09 71.1859 785.359 73.4602C774.888 81.6477 766.92 92.7918 758.498 104.846C755.539 108.939 752.579 113.261 749.393 117.354C726.629 147.83 703.638 163.295 677.232 166.252C665.395 167.616 653.331 166.252 638.762 161.931C633.299 160.339 627.608 158.519 622.372 156.927C614.405 154.425 606.21 151.696 598.243 149.877C571.61 143.509 537.009 144.873 527.221 169.663C523.807 178.078 525.172 186.721 526.31 196.045C527.221 202.641 528.132 209.464 527.449 216.514C526.993 220.835 525.855 224.701 524.034 228.795C519.937 238.347 513.563 245.398 506.734 253.13C499.45 261.318 491.938 269.733 487.385 281.104C482.149 294.068 482.377 309.078 482.377 323.634C482.377 332.731 482.605 342.056 481.466 350.925C478.962 368.892 471.223 386.632 457.337 404.826C453.923 409.375 450.28 413.924 446.411 418.017C433.663 432.346 419.322 444.854 402.705 459.182C399.063 462.139 395.421 465.323 391.778 468.734C389.73 470.554 387.681 472.373 385.405 474.193C365.828 491.478 340.788 515.13 322.805 542.649C310.513 561.299 305.96 583.587 308.692 608.604C309.83 615.2 311.423 620.885 313.017 626.344Z" fill="#2D2D2D"></path><path d="M469.401 608.149C471.905 613.835 474.409 619.521 475.775 625.662C477.596 635.214 475.775 644.311 470.767 650.451C469.401 652.271 467.808 653.636 465.987 655L469.173 655C470.312 653.863 471.45 652.953 472.36 651.589C477.824 644.993 479.645 635.441 477.596 625.207C476.23 618.839 473.726 612.925 471.222 607.24C468.718 601.781 466.214 596.096 464.848 590.182C458.702 561.981 463.483 539.238 479.189 522.863C486.018 515.585 494.441 509.445 502.408 503.531C512.424 496.026 522.895 488.521 530.635 478.514C547.252 456.908 549.073 429.616 549.528 398.686L552.032 247.445C552.26 230.842 553.171 216.287 562.276 205.142C580.032 183.082 616.453 189.45 642.859 204.46C648.094 207.417 653.33 210.601 658.338 213.785C678.825 226.521 700.223 239.939 724.352 238.575C754.172 236.983 773.976 215.377 794.919 192.406C811.308 174.439 828.381 155.79 850.917 147.83C864.575 143.054 879.599 142.372 893.94 141.917C897.127 141.917 900.314 141.689 903.728 141.462L903.728 139.415C900.314 139.642 897.127 139.87 893.94 139.87C879.371 140.325 864.347 141.007 850.234 145.783C827.243 153.971 810.17 172.62 793.553 190.814C772.838 213.33 753.489 234.481 724.352 236.3C700.906 237.665 679.736 224.474 659.476 211.965C654.468 208.781 649.232 205.597 643.997 202.641C616.908 187.175 579.121 180.807 560.683 203.778C550.667 216.287 550.211 234.254 549.984 247.445L547.48 398.686C547.024 429.389 545.203 456.453 529.041 477.377C521.529 487.156 511.286 494.662 501.27 502.167C493.075 508.08 484.88 514.221 477.824 521.726C461.661 538.783 456.881 561.981 463.027 590.865C464.165 596.778 466.897 602.464 469.401 608.149Z" fill="#2D2D2D"></path><path d="M538.375 655C542.928 646.813 548.619 639.535 555.676 633.849C556.359 633.394 557.041 632.712 557.724 632.257C561.139 629.755 564.553 627.026 566.83 623.16C568.423 620.658 569.334 617.929 570.017 614.745C570.7 611.106 570.472 607.012 569.789 602.918C568.878 598.37 567.057 593.821 565.464 589.5C563.643 584.951 562.049 580.403 561.139 575.627C557.497 554.248 561.594 536.964 573.886 524.455C579.35 518.769 586.179 513.766 592.78 509.217C600.064 503.986 607.576 498.755 613.495 491.932C627.153 476.24 630.567 456.453 633.299 435.53C633.754 431.663 634.21 427.797 634.665 423.703C636.941 403.917 638.307 382.993 639.901 362.752C640.811 350.016 641.722 336.597 642.86 323.861C643.77 313.854 644.908 301.573 652.648 293.158C669.038 274.964 699.996 284.516 712.516 289.519C715.02 290.429 717.524 291.566 719.8 292.703C722.304 293.84 724.581 294.978 727.085 296.115C741.426 302.938 756.222 309.988 770.335 310.443C775.571 310.67 780.351 310.215 785.131 308.851C791.05 307.259 796.968 304.53 803.342 300.208C812.448 294.068 821.098 286.335 830.203 278.375C842.268 267.686 854.788 256.542 868.446 249.264C875.275 245.625 882.104 243.123 888.933 241.531C893.713 240.622 898.494 240.167 903.502 239.939L903.502 237.892C898.494 238.12 893.258 238.575 888.478 239.484C881.421 241.077 874.592 243.578 867.535 247.445C853.877 254.722 841.13 266.094 828.837 276.783C819.732 284.743 811.082 292.476 802.204 298.616C796.058 302.71 790.367 305.439 784.676 307.031C780.123 308.169 775.571 308.623 770.563 308.396C756.905 307.714 742.336 300.891 728.223 294.068C725.719 292.931 723.442 291.794 720.938 290.656C718.434 289.519 715.93 288.382 713.427 287.472C700.451 282.469 668.582 272.689 651.282 291.566C643.087 300.436 641.949 313.172 641.039 323.406C639.901 336.37 638.99 349.561 638.079 362.524C636.714 382.538 635.12 403.462 632.844 423.248C632.389 427.115 631.933 431.208 631.478 435.075C628.974 455.544 625.559 475.103 612.357 490.34C606.666 496.936 599.154 502.167 592.097 507.17C585.496 511.946 578.667 516.722 572.976 522.635C560.456 535.599 555.903 553.339 559.773 575.627C560.684 580.63 562.505 585.406 564.098 589.955C565.692 594.049 567.285 598.37 568.196 602.918C568.878 606.785 569.106 610.651 568.423 614.063C567.968 617.019 567.057 619.521 565.692 621.795C563.415 625.207 560.228 627.936 557.041 630.438C556.358 630.892 555.676 631.575 554.993 632.03C547.481 638.17 541.335 645.675 536.554 654.545L538.375 654.545L538.375 655Z" fill="#2D2D2D"></path><path d="M656.971 600.643C656.744 601.098 656.289 601.78 656.061 602.235C649.915 612.924 648.094 627.025 650.825 642.945C651.281 645.901 651.963 648.858 652.874 651.815C653.102 652.952 653.557 653.861 653.785 654.771L655.833 654.771C655.378 653.634 654.923 652.497 654.695 651.132C653.785 648.176 653.102 645.219 652.646 642.49C649.915 627.025 651.508 613.379 657.654 602.917C657.882 602.462 658.337 601.78 658.565 601.325C659.703 599.278 661.069 597.231 661.979 594.502C662.435 592.683 662.89 590.636 662.89 588.589C662.89 586.087 662.662 583.131 662.207 580.401C661.752 577.672 660.841 574.943 660.158 572.441C659.02 568.575 658.11 564.936 657.654 561.297C656.288 546.514 660.158 534.688 668.581 526.273C673.133 521.724 678.597 518.313 683.832 514.901C688.157 512.172 692.482 509.216 696.352 506.032C707.279 496.48 712.742 484.653 716.839 473.509C717.75 471.007 718.66 468.733 719.343 466.231C723.213 453.95 725.717 440.532 728.221 427.341C729.815 418.698 731.636 409.828 733.684 401.414C735.505 394.136 737.554 387.085 743.017 382.309C755.537 371.165 776.252 375.714 790.821 380.035C792.869 380.717 794.918 381.172 796.739 381.855C810.17 385.948 825.421 389.815 836.803 385.493C839.762 384.356 842.721 382.764 845.681 380.262C848.867 377.761 851.599 374.804 854.558 371.62L856.152 370.028C869.355 356.155 886.882 345.011 902.817 339.78L902.817 337.733C886.2 342.964 868.216 354.335 854.558 368.664L852.965 370.256C850.006 373.44 847.274 376.169 844.315 378.67C841.356 380.945 838.624 382.537 835.892 383.674C824.966 387.768 810.17 383.901 797.194 380.035C795.146 379.353 793.097 378.898 791.276 378.216C776.252 373.667 754.854 369.118 741.652 380.945C735.733 386.176 733.684 393.453 731.863 401.186C729.815 409.601 727.993 418.698 726.4 427.341C723.896 440.304 721.392 453.95 717.522 466.004C716.839 468.278 715.929 470.78 715.018 473.054C710.921 484.198 705.685 495.57 694.986 504.894C691.344 508.078 687.019 511.035 682.694 513.764C677.231 517.176 671.768 520.815 667.215 525.591C658.11 534.688 654.24 546.969 655.606 562.207C656.061 566.301 656.971 570.167 658.11 573.806C658.792 576.308 659.475 579.037 660.158 581.539C660.614 584.268 660.841 586.997 660.841 589.271C660.841 591.318 660.386 593.137 659.931 594.73C659.248 596.549 658.11 598.596 656.971 600.643Z" fill="#2D2D2D"></path><path d="M753.716 563.117C757.586 576.536 767.375 587.68 775.342 595.64C790.821 611.333 804.934 620.43 819.731 624.524C835.665 628.845 857.518 626.798 870.038 612.243C871.176 611.105 872.087 609.741 873.225 608.376C875.273 605.647 877.322 602.918 880.281 600.871C886.883 596.095 896.443 597.687 903.272 601.326L903.272 599.052C895.988 595.413 886.2 594.275 878.916 599.279C875.956 601.326 873.68 604.282 871.404 607.239C870.493 608.604 869.355 609.741 868.444 611.105C856.38 624.979 835.665 627.025 820.186 622.704C805.617 618.611 791.731 609.741 776.708 594.275C768.968 586.315 759.407 575.626 755.765 562.435C751.895 549.244 755.082 535.598 763.732 527.638C769.196 522.635 776.708 520.133 783.992 517.631C791.049 515.13 798.561 512.628 804.251 507.852C809.942 503.076 813.584 496.253 817.227 489.885C821.552 481.925 825.877 474.192 833.616 470.098C842.722 465.095 853.876 466.914 864.575 468.506C866.168 468.734 867.761 468.961 869.355 469.189C877.094 470.326 895.305 471.463 903.272 459.864L903.272 455.77C903.045 456.453 902.59 457.135 902.134 457.817C895.305 469.416 877.094 468.279 869.583 467.142C867.989 466.914 866.396 466.687 864.802 466.46C853.648 464.867 842.266 463.048 832.478 468.279C824.283 472.6 819.731 480.788 815.405 488.748C811.991 495.116 808.349 501.484 802.886 506.26C797.422 510.808 790.138 513.31 783.309 515.812C775.797 518.314 768.285 521.043 762.367 526.274C753.034 534.689 749.619 549.017 753.716 563.117Z" fill="#2D2D2D"></path></g></svg>